  0
SECTION
  2
HEADER
  9
$ACADVER
  1
AC1032
  9
$ACADMAINTVER
 90
      228
  9
$DWGCODEPAGE
  3
ANSI_1252
  9
$REQUIREDVERSIONS
160
                 0
  9
$INSBASE
 10
0.0
 20
0.0
 30
0.0
  9
$EXTMIN
 10
1.000000000000000E+20
 20
1.000000000000000E+20
 30
1.000000000000000E+20
  9
$EXTMAX
 10
-1.000000000000000E+20
 20
-1.000000000000000E+20
 30
-1.000000000000000E+20
  9
$LIMMIN
 10
0.0
 20
0.0
  9
$LIMMAX
 10
12.0
 20
9.0
  9
$ORTHOMODE
 70
     0
  9
$REGENMODE
 70
     1
  9
$FILLMODE
 70
     1
  9
$QTEXTMODE
 70
     0
  9
$MIRRTEXT
 70
     0
  9
$LTSCALE
 40
1.0
  9
$ATTMODE
 70
     1
  9
$TEXTSIZE
 40
0.2
  9
$TRACEWID
 40
0.05
  9
$TEXTSTYLE
  7
Standard
  9
$CLAYER
  8
0
  9
$CELTYPE
  6
ByLayer
  9
$CECOLOR
 62
   256
  9
$CELTSCALE
 40
1.0
  9
$DISPSILH
 70
     0
  9
$DIMSCALE
 40
1.0
  9
$DIMASZ
 40
0.18
  9
$DIMEXO
 40
0.0625
  9
$DIMDLI
 40
0.38
  9
$DIMRND
 40
0.0
  9
$DIMDLE
 40
0.0
  9
$DIMEXE
 40
0.18
  9
$DIMTP
 40
0.0
  9
$DIMTM
 40
0.0
  9
$DIMTXT
 40
0.18
  9
$DIMCEN
 40
0.09
  9
$DIMTSZ
 40
0.0
  9
$DIMTOL
 70
     0
  9
$DIMLIM
 70
     0
  9
$DIMTIH
 70
     1
  9
$DIMTOH
 70
     1
  9
$DIMSE1
 70
     0
  9
$DIMSE2
 70
     0
  9
$DIMTAD
 70
     0
  9
$DIMZIN
 70
     0
  9
$DIMBLK
  1

  9
$DIMASO
 70
     1
  9
$DIMSHO
 70
     1
  9
$DIMPOST
  1

  9
$DIMAPOST
  1

  9
$DIMALT
 70
     0
  9
$DIMALTD
 70
     2
  9
$DIMALTF
 40
25.4
  9
$DIMLFAC
 40
1.0
  9
$DIMTOFL
 70
     0
  9
$DIMTVP
 40
0.0
  9
$DIMTIX
 70
     0
  9
$DIMSOXD
 70
     0
  9
$DIMSAH
 70
     0
  9
$DIMBLK1
  1

  9
$DIMBLK2
  1

  9
$DIMSTYLE
  2
Standard
  9
$DIMCLRD
 70
     0
  9
$DIMCLRE
 70
     0
  9
$DIMCLRT
 70
     0
  9
$DIMTFAC
 40
1.0
  9
$DIMGAP
 40
0.09
  9
$DIMJUST
 70
     0
  9
$DIMSD1
 70
     0
  9
$DIMSD2
 70
     0
  9
$DIMTOLJ
 70
     1
  9
$DIMTZIN
 70
     0
  9
$DIMALTZ
 70
     0
  9
$DIMALTTZ
 70
     0
  9
$DIMUPT
 70
     0
  9
$DIMDEC
 70
     4
  9
$DIMTDEC
 70
     4
  9
$DIMALTU
 70
     2
  9
$DIMALTTD
 70
     2
  9
$DIMTXSTY
  7
Standard
  9
$DIMAUNIT
 70
     0
  9
$DIMADEC
 70
     0
  9
$DIMALTRND
 40
0.0
  9
$DIMAZIN
 70
     0
  9
$DIMDSEP
 70
    46
  9
$DIMATFIT
 70
     3
  9
$DIMFRAC
 70
     0
  9
$DIMLDRBLK
  1

  9
$DIMLUNIT
 70
     2
  9
$DIMLWD
 70
    -2
  9
$DIMLWE
 70
    -2
  9
$DIMTMOVE
 70
     0
  9
$DIMFXL
 40
1.0
  9
$DIMFXLON
 70
     0
  9
$DIMJOGANG
 40
0.7853981633974483
  9
$DIMTFILL
 70
     0
  9
$DIMTFILLCLR
 70
     0
  9
$DIMARCSYM
 70
     0
  9
$DIMLTYPE
  6

  9
$DIMLTEX1
  6

  9
$DIMLTEX2
  6

  9
$DIMTXTDIRECTION
 70
     0
  9
$LUNITS
 70
     2
  9
$LUPREC
 70
     4
  9
$SKETCHINC
 40
0.1
  9
$FILLETRAD
 40
0.0
  9
$AUNITS
 70
     0
  9
$AUPREC
 70
     0
  9
$MENU
  1
.
  9
$ELEVATION
 40
0.0
  9
$PELEVATION
 40
0.0
  9
$THICKNESS
 40
0.0
  9
$LIMCHECK
 70
     0
  9
$CHAMFERA
 40
0.0
  9
$CHAMFERB
 40
0.0
  9
$CHAMFERC
 40
0.0
  9
$CHAMFERD
 40
0.0
  9
$SKPOLY
 70
     0
  9
$TDCREATE
 40
2460389.401747685
  9
$TDUCREATE
 40
2460389.360081018
  9
$TDUPDATE
 40
2460389.401747685
  9
$TDUUPDATE
 40
2460389.360081018
  9
$TDINDWG
 40
0.0000000000
  9
$TDUSRTIMER
 40
0.0000000000
  9
$USRTIMER
 70
     1
  9
$ANGBASE
 50
0.0
  9
$ANGDIR
 70
     0
  9
$PDMODE
 70
     0
  9
$PDSIZE
 40
0.0
  9
$PLINEWID
 40
0.0
  9
$SPLFRAME
 70
     0
  9
$SPLINETYPE
 70
     6
  9
$SPLINESEGS
 70
     8
  9
$HANDSEED
  5
B0
  9
$SURFTAB1
 70
     6
  9
$SURFTAB2
 70
     6
  9
$SURFTYPE
 70
     6
  9
$SURFU
 70
     6
  9
$SURFV
 70
     6
  9
$UCSBASE
  2

  9
$UCSNAME
  2

  9
$UCSORG
 10
0.0
 20
0.0
 30
0.0
  9
$UCSXDIR
 10
1.0
 20
0.0
 30
0.0
  9
$UCSYDIR
 10
0.0
 20
1.0
 30
0.0
  9
$UCSORTHOREF
  2

  9
$UCSORTHOVIEW
 70
     0
  9
$UCSORGTOP
 10
0.0
 20
0.0
 30
0.0
  9
$UCSORGBOTTOM
 10
0.0
 20
0.0
 30
0.0
  9
$UCSORGLEFT
 10
0.0
 20
0.0
 30
0.0
  9
$UCSORGRIGHT
 10
0.0
 20
0.0
 30
0.0
  9
$UCSORGFRONT
 10
0.0
 20
0.0
 30
0.0
  9
$UCSORGBACK
 10
0.0
 20
0.0
 30
0.0
  9
$PUCSBASE
  2

  9
$PUCSNAME
  2

  9
$PUCSORG
 10
0.0
 20
0.0
 30
0.0
  9
$PUCSXDIR
 10
1.0
 20
0.0
 30
0.0
  9
$PUCSYDIR
 10
0.0
 20
1.0
 30
0.0
  9
$PUCSORTHOREF
  2

  9
$PUCSORTHOVIEW
 70
     0
  9
$PUCSORGTOP
 10
0.0
 20
0.0
 30
0.0
  9
$PUCSORGBOTTOM
 10
0.0
 20
0.0
 30
0.0
  9
$PUCSORGLEFT
 10
0.0
 20
0.0
 30
0.0
  9
$PUCSORGRIGHT
 10
0.0
 20
0.0
 30
0.0
  9
$PUCSORGFRONT
 10
0.0
 20
0.0
 30
0.0
  9
$PUCSORGBACK
 10
0.0
 20
0.0
 30
0.0
  9
$USERI1
 70
     0
  9
$USERI2
 70
     0
  9
$USERI3
 70
     0
  9
$USERI4
 70
     0
  9
$USERI5
 70
     0
  9
$USERR1
 40
0.0
  9
$USERR2
 40
0.0
  9
$USERR3
 40
0.0
  9
$USERR4
 40
0.0
  9
$USERR5
 40
0.0
  9
$WORLDVIEW
 70
     1
  9
$SHADEDGE
 70
     3
  9
$SHADEDIF
 70
    70
  9
$TILEMODE
 70
     1
  9
$MAXACTVP
 70
    64
  9
$PINSBASE
 10
0.0
 20
0.0
 30
0.0
  9
$PLIMCHECK
 70
     0
  9
$PEXTMIN
 10
1.000000000000000E+20
 20
1.000000000000000E+20
 30
1.000000000000000E+20
  9
$PEXTMAX
 10
-1.000000000000000E+20
 20
-1.000000000000000E+20
 30
-1.000000000000000E+20
  9
$PLIMMIN
 10
0.0
 20
0.0
  9
$PLIMMAX
 10
12.0
 20
9.0
  9
$UNITMODE
 70
     0
  9
$VISRETAIN
 70
     1
  9
$PLINEGEN
 70
     0
  9
$PSLTSCALE
 70
     1
  9
$TREEDEPTH
 70
  3020
  9
$CMLSTYLE
  2
Standard
  9
$CMLJUST
 70
     0
  9
$CMLSCALE
 40
1.0
  9
$PROXYGRAPHICS
 70
     1
  9
$MEASUREMENT
 70
     0
  9
$CELWEIGHT
370
    -1
  9
$ENDCAPS
280
     0
  9
$JOINSTYLE
280
     0
  9
$LWDISPLAY
290
     1
  9
$INSUNITS
 70
     4
  9
$HYPERLINKBASE
  1

  9
$STYLESHEET
  1

  9
$XEDIT
290
     1
  9
$CEPSNTYPE
380
     0
  9
$PSTYLEMODE
290
     1
  9
$FINGERPRINTGUID
  2
{A6D2C201-59DD-3B44-B0E6-DCDCD3279D61}
  9
$VERSIONGUID
  2
{2E2B228F-D339-294D-8334-75C394382CA5}
  9
$EXTNAMES
290
     1
  9
$PSVPSCALE
 40
0.0
  9
$OLESTARTUP
290
     0
  9
$SORTENTS
280
   127
  9
$INDEXCTL
280
     0
  9
$HIDETEXT
280
     1
  9
$XCLIPFRAME
280
     2
  9
$HALOGAP
280
     0
  9
$OBSCOLOR
 70
   257
  9
$OBSLTYPE
280
     0
  9
$INTERSECTIONDISPLAY
280
     0
  9
$INTERSECTIONCOLOR
 70
   257
  9
$DIMASSOC
280
     2
  9
$PROJECTNAME
  1

  9
$CAMERADISPLAY
290
     0
  9
$LENSLENGTH
 40
50.0
  9
$CAMERAHEIGHT
 40
0.0
  9
$STEPSPERSEC
 40
2.0
  9
$STEPSIZE
 40
6.0
  9
$3DDWFPREC
 40
2.0
  9
$PSOLWIDTH
 40
0.25
  9
$PSOLHEIGHT
 40
4.0
  9
$LOFTANG1
 40
1.570796326794896
  9
$LOFTANG2
 40
1.570796326794896
  9
$LOFTMAG1
 40
0.0
  9
$LOFTMAG2
 40
0.0
  9
$LOFTPARAM
 70
     7
  9
$LOFTNORMALS
280
     1
  9
$LATITUDE
 40
37.795
  9
$LONGITUDE
 40
-122.394
  9
$NORTHDIRECTION
 40
0.0
  9
$TIMEZONE
 70
 -8000
  9
$LIGHTGLYPHDISPLAY
280
     1
  9
$TILEMODELIGHTSYNCH
280
     1
  9
$CMATERIAL
347
11
  9
$SOLIDHIST
280
     0
  9
$SHOWHIST
280
     1
  9
$DWFFRAME
280
     2
  9
$DGNFRAME
280
     0
  9
$REALWORLDSCALE
290
     1
  9
$INTERFERECOLOR
 62
     1
  9
$INTERFEREOBJVS
345
33
  9
$INTERFEREVPVS
346
30
  9
$CSHADOW
280
     0
  9
$SHADOWPLANELOCATION
 40
0.0
  0
ENDSEC
  0
SECTION
  2
CLASSES
  0
CLASS
  1
ACDBDICTIONARYWDFLT
  2
AcDbDictionaryWithDefault
  3
ObjectDBX Classes
 90
        0
 91
        1
280
     0
281
     0
  0
CLASS
  1
MATERIAL
  2
AcDbMaterial
  3
ObjectDBX Classes
 90
     1153
 91
        3
280
     0
281
     0
  0
CLASS
  1
VISUALSTYLE
  2
AcDbVisualStyle
  3
ObjectDBX Classes
 90
     4095
 91
       24
280
     0
281
     0
  0
CLASS
  1
SCALE
  2
AcDbScale
  3
ObjectDBX Classes
 90
     1153
 91
       17
280
     0
281
     0
  0
CLASS
  1
TABLESTYLE
  2
AcDbTableStyle
  3
ObjectDBX Classes
 90
     4095
 91
        1
280
     0
281
     0
  0
CLASS
  1
MLEADERSTYLE
  2
AcDbMLeaderStyle
  3
ACDB_MLEADERSTYLE_CLASS
 90
     4095
 91
        1
280
     0
281
     0
  0
CLASS
  1
ACDBSECTIONVIEWSTYLE
  2
AcDbSectionViewStyle
  3
ObjectDBX Classes
 90
     1025
 91
        1
280
     0
281
     0
  0
CLASS
  1
ACDBDETAILVIEWSTYLE
  2
AcDbDetailViewStyle
  3
ObjectDBX Classes
 90
     1025
 91
        1
280
     0
281
     0
  0
CLASS
  1
DICTIONARYVAR
  2
AcDbDictionaryVar
  3
ObjectDBX Classes
 90
        0
 91
        5
280
     0
281
     0
  0
CLASS
  1
CELLSTYLEMAP
  2
AcDbCellStyleMap
  3
ObjectDBX Classes
 90
     1152
 91
        1
280
     0
281
     0
  0
ENDSEC
  0
SECTION
  2
TABLES
  0
TABLE
  2
VPORT
  5
8
330
0
100
AcDbSymbolTable
 70
     1
  0
VPORT
  5
57
330
8
100
AcDbSymbolTableRecord
100
AcDbViewportTableRecord
  2
*Active
 70
     0
 10
0.0
 20
0.0
 11
1.0
 21
1.0
 12
0.0
 22
0.0
 13
0.0
 23
0.0
 14
1.0
 24
1.0
 15
0.0
 25
0.0
 16
0.0
 26
0.0
 36
1.0
 17
18.67760247849367
 27
-15.15054261576799
 37
0.0
 40
22.56775938273314
 41
1.688549846286576
 42
50.0
 43
0.0
 44
0.0
 50
0.0
 51
0.0
 71
     0
 72
   100
 73
     1
 74
     1
 75
     0
 76
     0
 77
     0
 78
     0
281
     0
 65
     1
110
0.0
120
0.0
130
0.0
111
1.0
121
0.0
131
0.0
112
0.0
122
1.0
132
0.0
 79
     0
146
0.0
 60
     3
 61
     5
292
     1
282
     1
141
0.0
142
0.0
 63
   250
421
  3355443
  0
ENDTAB
  0
TABLE
  2
LTYPE
  5
5
330
0
100
AcDbSymbolTable
 70
     1
  0
LTYPE
  5
5B
330
5
100
AcDbSymbolTableRecord
100
AcDbLinetypeTableRecord
  2
ByBlock
 70
     0
  3

 72
    65
 73
     0
 40
0.0
  0
LTYPE
  5
5C
330
5
100
AcDbSymbolTableRecord
100
AcDbLinetypeTableRecord
  2
ByLayer
 70
     0
  3

 72
    65
 73
     0
 40
0.0
  0
LTYPE
  5
5D
330
5
100
AcDbSymbolTableRecord
100
AcDbLinetypeTableRecord
  2
Continuous
 70
     0
  3
Solid line
 72
    65
 73
     0
 40
0.0
  0
ENDTAB
  0
TABLE
  2
LAYER
  5
2
330
0
100
AcDbSymbolTable
 70
     2
  0
LAYER
  5
54
330
2
100
AcDbSymbolTableRecord
100
AcDbLayerTableRecord
  2
0
 70
     0
 62
     7
  6
Continuous
370
    -3
390
F
347
21
348
0
  0
LAYER
  5
78
330
2
100
AcDbSymbolTableRecord
100
AcDbLayerTableRecord
  2
Layer 1
 70
     0
 62
     7
  6
Continuous
370
     0
390
F
347
21
348
0
  0
ENDTAB
  0
TABLE
  2
STYLE
  5
3
330
0
100
AcDbSymbolTable
 70
     2
  0
STYLE
  5
55
330
3
100
AcDbSymbolTableRecord
100
AcDbTextStyleTableRecord
  2
Standard
 70
     0
 40
0.0
 41
1.0
 50
0.0
 71
     0
 42
0.2
  3
txt
  4

  0
STYLE
  5
5A
330
3
100
AcDbSymbolTableRecord
100
AcDbTextStyleTableRecord
  2
Annotative
 70
     0
 40
0.0
 41
1.0
 50
0.0
 71
     0
 42
0.2
  3
txt
  4

1001
AcadAnnotative
1000
AnnotativeData
1002
{
1070
     1
1070
     1
1002
}
  0
ENDTAB
  0
TABLE
  2
VIEW
  5
6
330
0
100
AcDbSymbolTable
 70
     0
  0
ENDTAB
  0
TABLE
  2
UCS
  5
7
330
0
100
AcDbSymbolTable
 70
     0
  0
ENDTAB
  0
TABLE
  2
APPID
  5
9
330
0
100
AcDbSymbolTable
 70
     2
  0
APPID
  5
56
330
9
100
AcDbSymbolTableRecord
100
AcDbRegAppTableRecord
  2
ACAD
 70
     0
  0
APPID
  5
5E
330
9
100
AcDbSymbolTableRecord
100
AcDbRegAppTableRecord
  2
AcadAnnotative
 70
     0
  0
ENDTAB
  0
TABLE
  2
DIMSTYLE
  5
A
330
0
100
AcDbSymbolTable
 70
     2
100
AcDbDimStyleTable
 71
     0
  0
DIMSTYLE
105
58
330
A
100
AcDbSymbolTableRecord
100
AcDbDimStyleTableRecord
  2
Standard
 70
     0
340
55
  0
DIMSTYLE
105
59
330
A
100
AcDbSymbolTableRecord
100
AcDbDimStyleTableRecord
  2
Annotative
 70
     0
340
55
1001
AcadAnnotative
1000
AnnotativeData
1002
{
1070
     1
1070
     1
1002
}
  0
ENDTAB
  0
TABLE
  2
BLOCK_RECORD
  5
1
330
0
100
AcDbSymbolTable
 70
     2
  0
BLOCK_RECORD
  5
70
330
1
100
AcDbSymbolTableRecord
100
AcDbBlockTableRecord
  2
*Model_Space
340
73
 70
     0
280
     1
281
     0
  0
BLOCK_RECORD
  5
6C
330
1
100
AcDbSymbolTableRecord
100
AcDbBlockTableRecord
  2
*Paper_Space
340
6F
 70
     0
280
     1
281
     0
  0
BLOCK_RECORD
  5
74
330
1
100
AcDbSymbolTableRecord
100
AcDbBlockTableRecord
  2
*Paper_Space0
340
77
 70
     0
280
     1
281
     0
  0
BLOCK_RECORD
  5
79
330
1
100
AcDbSymbolTableRecord
100
AcDbBlockTableRecord
  2
Block_0
340
0
102
{BLKREFS
331
7A
102
}
 70
     0
280
     1
281
     0
  0
ENDTAB
  0
ENDSEC
  0
SECTION
  2
BLOCKS
  0
BLOCK
  5
71
330
70
100
AcDbEntity
  8
0
100
AcDbBlockBegin
  2
*Model_Space
 70
     0
 10
0.0
 20
0.0
 30
0.0
  3
*Model_Space
  1

  0
ENDBLK
  5
72
330
70
100
AcDbEntity
  8
0
100
AcDbBlockEnd
  0
BLOCK
  5
6D
330
6C
100
AcDbEntity
 67
     1
  8
0
100
AcDbBlockBegin
  2
*Paper_Space
 70
     0
 10
0.0
 20
0.0
 30
0.0
  3
*Paper_Space
  1

  0
ENDBLK
  5
6E
330
6C
100
AcDbEntity
 67
     1
  8
0
100
AcDbBlockEnd
  0
BLOCK
  5
75
330
74
100
AcDbEntity
 67
     1
  8
0
100
AcDbBlockBegin
  2
*Paper_Space0
 70
     0
 10
0.0
 20
0.0
 30
0.0
  3
*Paper_Space0
  1

  0
ENDBLK
  5
76
330
74
100
AcDbEntity
 67
     1
  8
0
100
AcDbBlockEnd
  0
BLOCK
  5
7B
330
79
100
AcDbEntity
  8
0
100
AcDbBlockBegin
  2
Block_0
 70
     0
 10
0.0
 20
0.0
 30
0.0
  3
Block_0
  1

  0
SPLINE
  5
7D
330
79
100
AcDbEntity
  8
Layer 1
100
AcDbSpline
210
0.0
220
0.0
230
1.0
 70
     9
 71
     3
 72
    26
 73
    22
 74
     0
 42
0.0000000001
 43
0.0000000001
 40
0.0
 40
0.0
 40
0.0
 40
0.0
 40
1.0
 40
1.0
 40
1.0
 40
2.0
 40
2.0
 40
2.0
 40
3.0
 40
3.0
 40
3.0
 40
4.0
 40
4.0
 40
4.0
 40
5.0
 40
5.0
 40
5.0
 40
6.0
 40
6.0
 40
6.0
 40
7.0
 40
7.0
 40
7.0
 40
7.0
 10
14.54795216160634
 20
-4.137332301518911
 30
0.0
 10
14.75961828992392
 20
-4.006804522091591
 30
0.0
 10
14.99950728641207
 20
-4.162026748690718
 30
0.0
 10
15.16884045821422
 20
-4.289026743191898
 30
0.0
 10
15.46164665965198
 20
-4.567721195136458
 30
0.0
 10
15.56042400676813
 20
-4.983998954306235
 30
0.0
 10
15.84264595977171
 20
-5.273276708461236
 30
0.0
 10
15.96964617505842
 20
-5.453193371718572
 30
0.0
 10
16.23775669397672
 20
-5.636637809388454
 30
0.0
 10
16.13545216120947
 20
-5.890637735309231
 30
0.0
 10
16.04373053113596
 20
-6.155221068576418
 30
0.0
 10
15.70506284179124
 20
-6.098776677975702
 30
0.0
 10
15.49692389912477
 20
-6.028221021507254
 30
0.0
 10
15.0594788626639
 20
-5.84124872531605
 30
0.0
 10
14.65378522576513
 20
-5.544915506444737
 30
0.0
 10
14.39625760954059
 20
-5.14274880287075
 30
0.0
 10
14.23045162338955
 20
-4.835832092544249
 30
0.0
 10
14.20928581800204
 20
-4.334887705419008
 30
0.0
 10
14.54442363021481
 20
-4.137332170098948
 30
0.0
 10
14.54442363021481
 20
-4.137332170098948
 30
0.0
 10
14.54795216160634
 20
-4.137332301518911
 30
0.0
 10
14.54795216160634
 20
-4.137332301518911
 30
0.0
  0
HATCH
  5
7E
330
79
100
AcDbEntity
  8
Layer 1
 62
   153
420
  4560080
440
 33554687
100
AcDbHatch
 10
0.0
 20
0.0
 30
0.0
210
0.0
220
0.0
230
1.0
  2
SOLID
 70
     1
 71
     1
 91
        1
 92
        1
 93
        1
 72
     4
 94
        3
 73
     0
 74
     0
 95
       26
 96
       22
 40
0.0
 40
0.0
 40
0.0
 40
0.0
 40
1.0
 40
1.0
 40
1.0
 40
2.0
 40
2.0
 40
2.0
 40
3.0
 40
3.0
 40
3.0
 40
4.0
 40
4.0
 40
4.0
 40
5.0
 40
5.0
 40
5.0
 40
6.0
 40
6.0
 40
6.0
 40
7.0
 40
7.0
 40
7.0
 40
7.0
 10
14.54795216160634
 20
-4.137332301518911
 10
14.75961828992392
 20
-4.006804522091591
 10
14.99950728641207
 20
-4.162026748690718
 10
15.16884045821422
 20
-4.289026743191898
 10
15.46164665965198
 20
-4.567721195136458
 10
15.56042400676813
 20
-4.983998954306235
 10
15.84264595977171
 20
-5.273276708461236
 10
15.96964617505842
 20
-5.453193371718572
 10
16.23775669397672
 20
-5.636637809388454
 10
16.13545216120947
 20
-5.890637735309231
 10
16.04373053113596
 20
-6.155221068576418
 10
15.70506284179124
 20
-6.098776677975702
 10
15.49692389912477
 20
-6.028221021507254
 10
15.0594788626639
 20
-5.84124872531605
 10
14.65378522576513
 20
-5.544915506444737
 10
14.39625760954059
 20
-5.14274880287075
 10
14.23045162338955
 20
-4.835832092544249
 10
14.20928581800204
 20
-4.334887705419008
 10
14.54442363021481
 20
-4.137332170098948
 10
14.54442363021481
 20
-4.137332170098948
 10
14.54795216160634
 20
-4.137332301518911
 10
14.54795216160634
 20
-4.137332301518911
 97
        0
 97
        1
330
7D
 75
     2
 76
     1
 98
        1
 10
0.0
 20
0.0
450
        0
451
        0
460
0.0
461
0.0
452
        0
462
0.0
453
        0
470

  0
SPLINE
  5
7F
330
79
100
AcDbEntity
  8
Layer 1
100
AcDbSpline
210
0.0
220
0.0
230
1.0
 70
     9
 71
     3
 72
    26
 73
    22
 74
     0
 42
0.0000000001
 43
0.0000000001
 40
0.0
 40
0.0
 40
0.0
 40
0.0
 40
1.0
 40
1.0
 40
1.0
 40
2.0
 40
2.0
 40
2.0
 40
3.0
 40
3.0
 40
3.0
 40
4.0
 40
4.0
 40
4.0
 40
5.0
 40
5.0
 40
5.0
 40
6.0
 40
6.0
 40
6.0
 40
7.0
 40
7.0
 40
7.0
 40
7.0
 10
17.66650777021187
 20
-5.269748934048692
 30
0.0
 10
17.7970351711497
 20
-5.047498893732042
 30
0.0
 10
18.05809131876578
 20
-4.916971156359108
 30
0.0
 10
18.31209174933922
 20
-4.969887856656057
 30
0.0
 10
18.47436920409872
 20
-4.962832307830967
 30
0.0
 10
18.55550793147848
 20
-5.142748971088304
 30
0.0
 10
18.56256364852112
 20
-5.280332341395102
 30
0.0
 10
18.56961936556376
 20
-5.495526832886663
 30
0.0
 10
18.44614633592815
 20
-5.682498960860312
 30
0.0
 10
18.33678608611825
 20
-5.855360159401336
 30
0.0
 10
18.12864714345178
 20
-6.155221236793972
 30
0.0
 10
17.99459121112242
 20
-6.497415775354697
 30
0.0
 10
17.76528646306845
 20
-6.783165755097153
 30
0.0
 10
17.65239768186701
 20
-6.670276805678168
 30
0.0
 10
17.46542589032847
 20
-6.599721317427271
 30
0.0
 10
17.44425873920054
 20
-6.419804738278712
 30
0.0
 10
17.38075863155718
 20
-6.028221357942359
 30
0.0
 10
17.46542589032847
 20
-5.608415782305649
 30
0.0
 10
17.6665091159523
 20
-5.266221411962476
 30
0.0
 10
17.6665091159523
 20
-5.266221411962476
 30
0.0
 10
17.66650777021187
 20
-5.269748934048692
 30
0.0
 10
17.66650777021187
 20
-5.269748934048692
 30
0.0
  0
HATCH
  5
80
330
79
100
AcDbEntity
  8
Layer 1
 62
   153
420
  4560080
440
 33554687
100
AcDbHatch
 10
0.0
 20
0.0
 30
0.0
210
0.0
220
0.0
230
1.0
  2
SOLID
 70
     1
 71
     1
 91
        1
 92
        1
 93
        1
 72
     4
 94
        3
 73
     0
 74
     0
 95
       26
 96
       22
 40
0.0
 40
0.0
 40
0.0
 40
0.0
 40
1.0
 40
1.0
 40
1.0
 40
2.0
 40
2.0
 40
2.0
 40
3.0
 40
3.0
 40
3.0
 40
4.0
 40
4.0
 40
4.0
 40
5.0
 40
5.0
 40
5.0
 40
6.0
 40
6.0
 40
6.0
 40
7.0
 40
7.0
 40
7.0
 40
7.0
 10
17.66650777021187
 20
-5.269748934048692
 10
17.7970351711497
 20
-5.047498893732042
 10
18.05809131876578
 20
-4.916971156359108
 10
18.31209174933922
 20
-4.969887856656057
 10
18.47436920409872
 20
-4.962832307830967
 10
18.55550793147848
 20
-5.142748971088304
 10
18.56256364852112
 20
-5.280332341395102
 10
18.56961936556376
 20
-5.495526832886663
 10
18.44614633592815
 20
-5.682498960860312
 10
18.33678608611825
 20
-5.855360159401336
 10
18.12864714345178
 20
-6.155221236793972
 10
17.99459121112242
 20
-6.497415775354697
 10
17.76528646306845
 20
-6.783165755097153
 10
17.65239768186701
 20
-6.670276805678168
 10
17.46542589032847
 20
-6.599721317427271
 10
17.44425873920054
 20
-6.419804738278712
 10
17.38075863155718
 20
-6.028221357942359
 10
17.46542589032847
 20
-5.608415782305649
 10
17.6665091159523
 20
-5.266221411962476
 10
17.6665091159523
 20
-5.266221411962476
 10
17.66650777021187
 20
-5.269748934048692
 10
17.66650777021187
 20
-5.269748934048692
 97
        0
 97
        1
330
7F
 75
     2
 76
     1
 98
        1
 10
0.0
 20
0.0
450
        0
451
        0
460
0.0
461
0.0
452
        0
462
0.0
453
        0
470

  0
SPLINE
  5
81
330
79
100
AcDbEntity
  8
Layer 1
100
AcDbSpline
210
0.0
220
0.0
230
1.0
 70
     9
 71
     3
 72
    23
 73
    19
 74
     0
 42
0.0000000001
 43
0.0000000001
 40
0.0
 40
0.0
 40
0.0
 40
0.0
 40
1.0
 40
1.0
 40
1.0
 40
2.0
 40
2.0
 40
2.0
 40
3.0
 40
3.0
 40
3.0
 40
4.0
 40
4.0
 40
4.0
 40
5.0
 40
5.0
 40
5.0
 40
6.0
 40
6.0
 40
6.0
 40
6.0
 10
11.06603519974726
 20
-7.382887909882423
 30
0.0
 10
11.20009045920641
 20
-7.238249074859311
 30
0.0
 10
11.38706359648538
 20
-7.365248953710923
 30
0.0
 10
11.5175909974232
 20
-7.439332300483139
 30
0.0
 10
11.88095167780654
 20
-7.686276677578827
 30
0.0
 10
12.18434078193805
 20
-8.042582313789731
 30
0.0
 10
12.33956386539533
 20
-8.458860199122673
 30
0.0
 10
12.4065911586898
 20
-8.599971175624466
 30
0.0
 10
12.36778673356591
 20
-8.755193586211541
 30
0.0
 10
12.28311947479462
 20
-8.878665606541831
 30
0.0
 10
11.83862006703153
 20
-9.012721202436086
 30
0.0
 10
11.44703651847763
 20
-8.67052666387536
 30
0.0
 10
11.14717527286744
 20
-8.388304374436673
 30
0.0
 10
10.87553622255761
 20
-8.144887855862306
 30
0.0
 10
10.73089738753449
 20
-7.629831950543005
 30
0.0
 10
11.06603654548768
 20
-7.379360051361102
 30
0.0
 10
11.06603654548768
 20
-7.379360051361102
 30
0.0
 10
11.06603519974726
 20
-7.382887909882423
 30
0.0
 10
11.06603519974726
 20
-7.382887909882423
 30
0.0
  0
HATCH
  5
82
330
79
100
AcDbEntity
  8
Layer 1
 62
   153
420
  4560080
440
 33554687
100
AcDbHatch
 10
0.0
 20
0.0
 30
0.0
210
0.0
220
0.0
230
1.0
  2
SOLID
 70
     1
 71
     1
 91
        1
 92
        1
 93
        1
 72
     4
 94
        3
 73
     0
 74
     0
 95
       23
 96
       19
 40
0.0
 40
0.0
 40
0.0
 40
0.0
 40
1.0
 40
1.0
 40
1.0
 40
2.0
 40
2.0
 40
2.0
 40
3.0
 40
3.0
 40
3.0
 40
4.0
 40
4.0
 40
4.0
 40
5.0
 40
5.0
 40
5.0
 40
6.0
 40
6.0
 40
6.0
 40
6.0
 10
11.06603519974726
 20
-7.382887909882423
 10
11.20009045920641
 20
-7.238249074859311
 10
11.38706359648538
 20
-7.365248953710923
 10
11.5175909974232
 20
-7.439332300483139
 10
11.88095167780654
 20
-7.686276677578827
 10
12.18434078193805
 20
-8.042582313789731
 10
12.33956386539533
 20
-8.458860199122673
 10
12.4065911586898
 20
-8.599971175624466
 10
12.36778673356591
 20
-8.755193586211541
 10
12.28311947479462
 20
-8.878665606541831
 10
11.83862006703153
 20
-9.012721202436086
 10
11.44703651847763
 20
-8.67052666387536
 10
11.14717527286744
 20
-8.388304374436673
 10
10.87553622255761
 20
-8.144887855862306
 10
10.73089738753449
 20
-7.629831950543005
 10
11.06603654548768
 20
-7.379360051361102
 10
11.06603654548768
 20
-7.379360051361102
 10
11.06603519974726
 20
-7.382887909882423
 10
11.06603519974726
 20
-7.382887909882423
 97
        0
 97
        1
330
81
 75
     2
 76
     1
 98
        1
 10
0.0
 20
0.0
450
        0
451
        0
460
0.0
461
0.0
452
        0
462
0.0
453
        0
470

  0
SPLINE
  5
83
330
79
100
AcDbEntity
  8
Layer 1
100
AcDbSpline
210
0.0
220
0.0
230
1.0
 70
     9
 71
     3
 72
    92
 73
    88
 74
     0
 42
0.0000000001
 43
0.0000000001
 40
0.0
 40
0.0
 40
0.0
 40
0.0
 40
1.0
 40
1.0
 40
1.0
 40
2.0
 40
2.0
 40
2.0
 40
3.0
 40
3.0
 40
3.0
 40
4.0
 40
4.0
 40
4.0
 40
5.0
 40
5.0
 40
5.0
 40
6.0
 40
6.0
 40
6.0
 40
7.0
 40
7.0
 40
7.0
 40
8.0
 40
8.0
 40
8.0
 40
9.0
 40
9.0
 40
9.0
 40
10.0
 40
10.0
 40
10.0
 40
11.0
 40
11.0
 40
11.0
 40
12.0
 40
12.0
 40
12.0
 40
13.0
 40
13.0
 40
13.0
 40
14.0
 40
14.0
 40
14.0
 40
15.0
 40
15.0
 40
15.0
 40
16.0
 40
16.0
 40
16.0
 40
17.0
 40
17.0
 40
17.0
 40
18.0
 40
18.0
 40
18.0
 40
19.0
 40
19.0
 40
19.0
 40
20.0
 40
20.0
 40
20.0
 40
21.0
 40
21.0
 40
21.0
 40
22.0
 40
22.0
 40
22.0
 40
23.0
 40
23.0
 40
23.0
 40
24.0
 40
24.0
 40
24.0
 40
25.0
 40
25.0
 40
25.0
 40
26.0
 40
26.0
 40
26.0
 40
27.0
 40
27.0
 40
27.0
 40
28.0
 40
28.0
 40
28.0
 40
29.0
 40
29.0
 40
29.0
 40
29.0
 10
16.13897934686058
 20
-8.233082300284703
 30
0.0
 10
16.48117422185641
 20
-7.972026825538836
 30
0.0
 10
16.89039639014671
 20
-7.714498872879185
 30
0.0
 10
17.33842432930133
 20
-7.746248926700864
 30
0.0
 10
17.88170242992099
 20
-7.845026610252118
 30
0.0
 10
18.2238959591764
 20
-8.314221027664455
 30
0.0
 10
18.60489660503655
 20
-8.666998805354038
 30
0.0
 10
19.12700755452828
 20
-9.146776461895234
 30
0.0
 10
19.56092405959762
 20
-9.750026475201826
 30
0.0
 10
20.21356375576761
 20
-10.06047129637598
 30
0.0
 10
20.1394807454305
 20
-10.34622110790088
 30
0.0
 10
20.09714644317464
 20
-10.64255449498975
 30
0.0
 10
20.04070205257392
 20
-10.93183216503597
 30
0.0
 10
19.14111898861357
 20
-11.14349896622376
 30
0.0
 10
18.31209040359879
 20
-11.60210980807214
 30
0.0
 10
17.62417481369644
 20
-12.21947091902891
 30
0.0
 10
17.49717459840972
 20
-12.31472108049395
 30
0.0
 10
17.38075863155718
 20
-12.4664156325597
 30
0.0
 10
17.2078969283635
 20
-12.4664156325597
 30
0.0
 10
16.69284169591441
 20
-12.46994349108102
 30
0.0
 10
16.17073074642268
 20
-12.3958598078737
 30
0.0
 10
15.66272988527581
 20
-12.51227644759645
 30
0.0
 10
14.79842406078824
 20
-12.71335967322028
 30
0.0
 10
13.97645253855653
 20
-13.26016563236126
 30
0.0
 10
13.58839617565374
 20
-14.07860996894186
 30
0.0
 10
13.44375734063063
 20
-14.36788763898809
 30
0.0
 10
13.78595221562646
 20
-14.54427652783288
 30
0.0
 10
13.96586829012236
 20
-14.70302679694128
 30
0.0
 10
13.66247918599085
 20
-14.99583232550882
 30
0.0
 10
13.32028431099502
 20
-15.28158213703372
 30
0.0
 10
13.16506257327815
 20
-15.68374858828138
 30
0.0
 10
13.0839238458984
 20
-15.89188753094785
 30
0.0
 10
13.23914558361527
 20
-16.12824799604447
 30
0.0
 10
13.44022880923909
 20
-16.19174810368783
 30
0.0
 10
13.73303501067685
 20
-16.19174810368783
 30
0.0
 10
14.00820124663779
 20
-16.07533079109487
 30
0.0
 10
14.29042319964137
 20
-16.00830349780039
 30
0.0
 10
14.14578436461826
 20
-16.38577561226902
 30
0.0
 10
13.99761699820361
 20
-16.76324772673764
 30
0.0
 10
13.91295108517275
 20
-17.16188699233418
 30
0.0
 10
13.70833932815739
 20
-18.04030425090703
 30
0.0
 10
13.761256533107
 20
-18.96458165164643
 30
0.0
 10
13.95881257307972
 20
-19.83947037882774
 30
0.0
 10
13.59897907834749
 20
-19.70541444649838
 30
0.0
 10
13.34850717916559
 20
-19.38085953697937
 30
0.0
 10
13.22856268092151
 20
-19.02455322789825
 30
0.0
 10
13.14036823649912
 20
-18.72821984080938
 30
0.0
 10
13.2426741150068
 20
-18.42130355102676
 30
0.0
 10
13.20739552979359
 20
-18.12144163254636
 30
0.0
 10
13.04511807503408
 20
-17.92741412396518
 30
0.0
 10
12.78759045880953
 20
-17.86744120197293
 30
0.0
 10
12.56886726770889
 20
-17.75808095216303
 30
0.0
 10
12.32545108556963
 20
-17.65930360504688
 30
0.0
 10
12.12789504559691
 20
-17.48291471620209
 30
0.0
 10
11.89153458050029
 20
-17.37002593500066
 30
0.0
 10
11.57756257367503
 20
-17.29241439327201
 30
0.0
 10
11.24595127424316
 20
-17.40177598882233
 30
0.0
 10
10.9319792674179
 20
-17.31358154439994
 30
0.0
 10
10.81556262769514
 20
-17.03135959139636
 30
0.0
 10
11.01311799479765
 20
-16.73149767291596
 30
0.0
 10
10.98842365801862
 20
-16.43869281721863
 30
0.0
 10
10.72384032475143
 20
-16.04005355162207
 30
0.0
 10
10.15234002883141
 20
-16.02594346327721
 30
0.0
 10
9.866590217306509
 20
-15.64847000306817
 30
0.0
 10
9.683145611419075
 20
-15.41210953797155
 30
0.0
 10
9.665506991682679
 20
-15.08402542419079
 30
0.0
 10
9.750173577583755
 20
-14.80885851535964
 30
0.0
 10
9.866590217306509
 20
-14.50899726974945
 30
0.0
 10
10.11000707231598
 20
-14.29027542438923
 30
0.0
 10
10.28639596116077
 20
-14.02921994964336
 30
0.0
 10
10.70620170501503
 20
-13.42949745842299
 30
0.0
 10
11.21420189329169
 20
-12.82271992303018
 30
0.0
 10
11.9444517854499
 20
-12.60752526332107
 30
0.0
 10
12.68528458030185
 20
-12.35705336413916
 30
0.0
 10
13.48609029714606
 20
-12.4346642329976
 30
0.0
 10
14.22692443773844
 20
-12.19477523650945
 30
0.0
 10
14.10345275384325
 20
-11.80671954647686
 30
0.0
 10
13.8635637573551
 20
-11.40455309522921
 30
0.0
 10
13.99409115829293
 20
-10.98474735137494
 30
0.0
 10
14.13872999331604
 20
-10.60727523690632
 30
0.0
 10
14.53736925891259
 20
-10.42383063101889
 30
0.0
 10
14.7702025383581
 20
-10.10985862419363
 30
0.0
 10
15.23939762864065
 20
-9.496025371758179
 30
0.0
 10
15.50750814755894
 20
-8.71991399169301
 30
0.0
 10
16.13192497555836
 20
-8.226025237501636
 30
0.0
 10
16.13192497555836
 20
-8.226025237501636
 30
0.0
 10
16.13897934686058
 20
-8.233082300284703
 30
0.0
 10
16.13897934686058
 20
-8.233082300284703
 30
0.0
  0
HATCH
  5
84
330
79
100
AcDbEntity
  8
Layer 1
 62
   153
420
  4560080
440
 33554687
100
AcDbHatch
 10
0.0
 20
0.0
 30
0.0
210
0.0
220
0.0
230
1.0
  2
SOLID
 70
     1
 71
     1
 91
        1
 92
        1
 93
        1
 72
     4
 94
        3
 73
     0
 74
     0
 95
       92
 96
       88
 40
0.0
 40
0.0
 40
0.0
 40
0.0
 40
1.0
 40
1.0
 40
1.0
 40
2.0
 40
2.0
 40
2.0
 40
3.0
 40
3.0
 40
3.0
 40
4.0
 40
4.0
 40
4.0
 40
5.0
 40
5.0
 40
5.0
 40
6.0
 40
6.0
 40
6.0
 40
7.0
 40
7.0
 40
7.0
 40
8.0
 40
8.0
 40
8.0
 40
9.0
 40
9.0
 40
9.0
 40
10.0
 40
10.0
 40
10.0
 40
11.0
 40
11.0
 40
11.0
 40
12.0
 40
12.0
 40
12.0
 40
13.0
 40
13.0
 40
13.0
 40
14.0
 40
14.0
 40
14.0
 40
15.0
 40
15.0
 40
15.0
 40
16.0
 40
16.0
 40
16.0
 40
17.0
 40
17.0
 40
17.0
 40
18.0
 40
18.0
 40
18.0
 40
19.0
 40
19.0
 40
19.0
 40
20.0
 40
20.0
 40
20.0
 40
21.0
 40
21.0
 40
21.0
 40
22.0
 40
22.0
 40
22.0
 40
23.0
 40
23.0
 40
23.0
 40
24.0
 40
24.0
 40
24.0
 40
25.0
 40
25.0
 40
25.0
 40
26.0
 40
26.0
 40
26.0
 40
27.0
 40
27.0
 40
27.0
 40
28.0
 40
28.0
 40
28.0
 40
29.0
 40
29.0
 40
29.0
 40
29.0
 10
16.13897934686058
 20
-8.233082300284703
 10
16.48117422185641
 20
-7.972026825538836
 10
16.89039639014671
 20
-7.714498872879185
 10
17.33842432930133
 20
-7.746248926700864
 10
17.88170242992099
 20
-7.845026610252118
 10
18.2238959591764
 20
-8.314221027664455
 10
18.60489660503655
 20
-8.666998805354038
 10
19.12700755452828
 20
-9.146776461895234
 10
19.56092405959762
 20
-9.750026475201826
 10
20.21356375576761
 20
-10.06047129637598
 10
20.1394807454305
 20
-10.34622110790088
 10
20.09714644317464
 20
-10.64255449498975
 10
20.04070205257392
 20
-10.93183216503597
 10
19.14111898861357
 20
-11.14349896622376
 10
18.31209040359879
 20
-11.60210980807214
 10
17.62417481369644
 20
-12.21947091902891
 10
17.49717459840972
 20
-12.31472108049395
 10
17.38075863155718
 20
-12.4664156325597
 10
17.2078969283635
 20
-12.4664156325597
 10
16.69284169591441
 20
-12.46994349108102
 10
16.17073074642268
 20
-12.3958598078737
 10
15.66272988527581
 20
-12.51227644759645
 10
14.79842406078824
 20
-12.71335967322028
 10
13.97645253855653
 20
-13.26016563236126
 10
13.58839617565374
 20
-14.07860996894186
 10
13.44375734063063
 20
-14.36788763898809
 10
13.78595221562646
 20
-14.54427652783288
 10
13.96586829012236
 20
-14.70302679694128
 10
13.66247918599085
 20
-14.99583232550882
 10
13.32028431099502
 20
-15.28158213703372
 10
13.16506257327815
 20
-15.68374858828138
 10
13.0839238458984
 20
-15.89188753094785
 10
13.23914558361527
 20
-16.12824799604447
 10
13.44022880923909
 20
-16.19174810368783
 10
13.73303501067685
 20
-16.19174810368783
 10
14.00820124663779
 20
-16.07533079109487
 10
14.29042319964137
 20
-16.00830349780039
 10
14.14578436461826
 20
-16.38577561226902
 10
13.99761699820361
 20
-16.76324772673764
 10
13.91295108517275
 20
-17.16188699233418
 10
13.70833932815739
 20
-18.04030425090703
 10
13.761256533107
 20
-18.96458165164643
 10
13.95881257307972
 20
-19.83947037882774
 10
13.59897907834749
 20
-19.70541444649838
 10
13.34850717916559
 20
-19.38085953697937
 10
13.22856268092151
 20
-19.02455322789825
 10
13.14036823649912
 20
-18.72821984080938
 10
13.2426741150068
 20
-18.42130355102676
 10
13.20739552979359
 20
-18.12144163254636
 10
13.04511807503408
 20
-17.92741412396518
 10
12.78759045880953
 20
-17.86744120197293
 10
12.56886726770889
 20
-17.75808095216303
 10
12.32545108556963
 20
-17.65930360504688
 10
12.12789504559691
 20
-17.48291471620209
 10
11.89153458050029
 20
-17.37002593500066
 10
11.57756257367503
 20
-17.29241439327201
 10
11.24595127424316
 20
-17.40177598882233
 10
10.9319792674179
 20
-17.31358154439994
 10
10.81556262769514
 20
-17.03135959139636
 10
11.01311799479765
 20
-16.73149767291596
 10
10.98842365801862
 20
-16.43869281721863
 10
10.72384032475143
 20
-16.04005355162207
 10
10.15234002883141
 20
-16.02594346327721
 10
9.866590217306509
 20
-15.64847000306817
 10
9.683145611419075
 20
-15.41210953797155
 10
9.665506991682679
 20
-15.08402542419079
 10
9.750173577583755
 20
-14.80885851535964
 10
9.866590217306509
 20
-14.50899726974945
 10
10.11000707231598
 20
-14.29027542438923
 10
10.28639596116077
 20
-14.02921994964336
 10
10.70620170501503
 20
-13.42949745842299
 10
11.21420189329169
 20
-12.82271992303018
 10
11.9444517854499
 20
-12.60752526332107
 10
12.68528458030185
 20
-12.35705336413916
 10
13.48609029714606
 20
-12.4346642329976
 10
14.22692443773844
 20
-12.19477523650945
 10
14.10345275384325
 20
-11.80671954647686
 10
13.8635637573551
 20
-11.40455309522921
 10
13.99409115829293
 20
-10.98474735137494
 10
14.13872999331604
 20
-10.60727523690632
 10
14.53736925891259
 20
-10.42383063101889
 10
14.7702025383581
 20
-10.10985862419363
 10
15.23939762864065
 20
-9.496025371758179
 10
15.50750814755894
 20
-8.71991399169301
 10
16.13192497555836
 20
-8.226025237501636
 10
16.13192497555836
 20
-8.226025237501636
 10
16.13897934686058
 20
-8.233082300284703
 10
16.13897934686058
 20
-8.233082300284703
 97
        0
 97
        1
330
83
 75
     2
 76
     1
 98
        1
 10
0.0
 20
0.0
450
        0
451
        0
460
0.0
461
0.0
452
        0
462
0.0
453
        0
470

  0
SPLINE
  5
85
330
79
100
AcDbEntity
  8
Layer 1
100
AcDbSpline
210
0.0
220
0.0
230
1.0
 70
     9
 71
     3
 72
    17
 73
    13
 74
     0
 42
0.0000000001
 43
0.0000000001
 40
0.0
 40
0.0
 40
0.0
 40
0.0
 40
1.0
 40
1.0
 40
1.0
 40
2.0
 40
2.0
 40
2.0
 40
3.0
 40
3.0
 40
3.0
 40
4.0
 40
4.0
 40
4.0
 40
4.0
 10
13.45786877471591
 20
-8.797526879162077
 30
0.0
 10
13.68011915146767
 20
-8.815165835333578
 30
0.0
 10
13.87061812865732
 20
-8.945693572706511
 30
0.0
 10
14.07170270002157
 20
-9.037415875650228
 30
0.0
 10
14.07522988567268
 20
-9.090332407729624
 30
0.0
 10
14.08581413410686
 20
-9.19616580832352
 30
0.0
 10
14.08934131975797
 20
-9.2455548183167
 30
0.0
 10
13.89531381117678
 20
-9.23144372066652
 30
0.0
 10
13.69775777120406
 20
-9.238499101274058
 30
0.0
 10
13.51078597966552
 20
-9.182054710673341
 30
0.0
 10
13.39789719846409
 20
-9.100915983293587
 30
0.0
 10
13.29559131995641
 20
-8.878665942976937
 30
0.0
 10
13.45786877471591
 20
-8.797526879162077
 30
0.0
  0
HATCH
  5
86
330
79
100
AcDbEntity
  8
Layer 1
 62
   153
420
  4560080
440
 33554687
100
AcDbHatch
 10
0.0
 20
0.0
 30
0.0
210
0.0
220
0.0
230
1.0
  2
SOLID
 70
     1
 71
     1
 91
        1
 92
        1
 93
        1
 72
     4
 94
        3
 73
     0
 74
     0
 95
       17
 96
       13
 40
0.0
 40
0.0
 40
0.0
 40
0.0
 40
1.0
 40
1.0
 40
1.0
 40
2.0
 40
2.0
 40
2.0
 40
3.0
 40
3.0
 40
3.0
 40
4.0
 40
4.0
 40
4.0
 40
4.0
 10
13.45786877471591
 20
-8.797526879162077
 10
13.68011915146767
 20
-8.815165835333578
 10
13.87061812865732
 20
-8.945693572706511
 10
14.07170270002157
 20
-9.037415875650228
 10
14.07522988567268
 20
-9.090332407729624
 10
14.08581413410686
 20
-9.19616580832352
 10
14.08934131975797
 20
-9.2455548183167
 10
13.89531381117678
 20
-9.23144372066652
 10
13.69775777120406
 20
-9.238499101274058
 10
13.51078597966552
 20
-9.182054710673341
 10
13.39789719846409
 20
-9.100915983293587
 10
13.29559131995641
 20
-8.878665942976937
 10
13.45786877471591
 20
-8.797526879162077
 97
        0
 97
        1
330
85
 75
     2
 76
     1
 98
        1
 10
0.0
 20
0.0
450
        0
451
        0
460
0.0
461
0.0
452
        0
462
0.0
453
        0
470

  0
SPLINE
  5
87
330
79
100
AcDbEntity
  8
Layer 1
100
AcDbSpline
210
0.0
220
0.0
230
1.0
 70
     9
 71
     3
 72
    26
 73
    22
 74
     0
 42
0.0000000001
 43
0.0000000001
 40
0.0
 40
0.0
 40
0.0
 40
0.0
 40
1.0
 40
1.0
 40
1.0
 40
2.0
 40
2.0
 40
2.0
 40
3.0
 40
3.0
 40
3.0
 40
4.0
 40
4.0
 40
4.0
 40
5.0
 40
5.0
 40
5.0
 40
6.0
 40
6.0
 40
6.0
 40
7.0
 40
7.0
 40
7.0
 40
7.0
 10
4.740729201678692
 20
-9.563054683663283
 30
0.0
 10
5.082923740239418
 20
-9.301999208917417
 30
0.0
 10
5.541534582087791
 20
-9.298471350396095
 30
0.0
 10
5.950756750378091
 20
-9.319638165088916
 30
0.0
 10
6.603395773677863
 20
-9.390193653339812
 30
0.0
 10
7.241923362892349
 20
-9.633610508349283
 30
0.0
 10
7.771090029426724
 20
-10.02519405690319
 30
0.0
 10
7.943951059750195
 20
-10.14513855514726
 30
0.0
 10
8.039201221215233
 20
-10.33916606372845
 30
0.0
 10
8.127395665637628
 20
-10.5261385281372
 30
0.0
 10
7.390090056436783
 20
-10.61786083108092
 30
0.0
 10
6.656312305757258
 20
-10.46263842049385
 30
0.0
 10
5.940173847684339
 20
-10.30036096573434
 30
0.0
 10
5.545062777044218
 20
-10.20158294574798
 30
0.0
 10
5.121729511103739
 20
-10.10280559863183
 30
0.0
 10
4.807757167843372
 20
-9.820582972758039
 30
0.0
 10
4.708979484292119
 20
-9.764138582157324
 30
0.0
 10
4.719562723420977
 20
-9.654777323042106
 30
0.0
 10
4.737201679592477
 20
-9.559527498012172
 30
0.0
 10
4.737201679592477
 20
-9.559527498012172
 30
0.0
 10
4.740729201678692
 20
-9.563054683663283
 30
0.0
 10
4.740729201678692
 20
-9.563054683663283
 30
0.0
  0
HATCH
  5
88
330
79
100
AcDbEntity
  8
Layer 1
 62
   153
420
  4560080
440
 33554687
100
AcDbHatch
 10
0.0
 20
0.0
 30
0.0
210
0.0
220
0.0
230
1.0
  2
SOLID
 70
     1
 71
     1
 91
        1
 92
        1
 93
        1
 72
     4
 94
        3
 73
     0
 74
     0
 95
       26
 96
       22
 40
0.0
 40
0.0
 40
0.0
 40
0.0
 40
1.0
 40
1.0
 40
1.0
 40
2.0
 40
2.0
 40
2.0
 40
3.0
 40
3.0
 40
3.0
 40
4.0
 40
4.0
 40
4.0
 40
5.0
 40
5.0
 40
5.0
 40
6.0
 40
6.0
 40
6.0
 40
7.0
 40
7.0
 40
7.0
 40
7.0
 10
4.740729201678692
 20
-9.563054683663283
 10
5.082923740239418
 20
-9.301999208917417
 10
5.541534582087791
 20
-9.298471350396095
 10
5.950756750378091
 20
-9.319638165088916
 10
6.603395773677863
 20
-9.390193653339812
 10
7.241923362892349
 20
-9.633610508349283
 10
7.771090029426724
 20
-10.02519405690319
 10
7.943951059750195
 20
-10.14513855514726
 10
8.039201221215233
 20
-10.33916606372845
 10
8.127395665637628
 20
-10.5261385281372
 10
7.390090056436783
 20
-10.61786083108092
 10
6.656312305757258
 20
-10.46263842049385
 10
5.940173847684339
 20
-10.30036096573434
 10
5.545062777044218
 20
-10.20158294574798
 10
5.121729511103739
 20
-10.10280559863183
 10
4.807757167843372
 20
-9.820582972758039
 10
4.708979484292119
 20
-9.764138582157324
 10
4.719562723420977
 20
-9.654777323042106
 10
4.737201679592477
 20
-9.559527498012172
 10
4.737201679592477
 20
-9.559527498012172
 10
4.740729201678692
 20
-9.563054683663283
 10
4.740729201678692
 20
-9.563054683663283
 97
        0
 97
        1
330
87
 75
     2
 76
     1
 98
        1
 10
0.0
 20
0.0
450
        0
451
        0
460
0.0
461
0.0
452
        0
462
0.0
453
        0
470

  0
SPLINE
  5
89
330
79
100
AcDbEntity
  8
Layer 1
100
AcDbSpline
210
0.0
220
0.0
230
1.0
 70
     9
 71
     3
 72
    17
 73
    13
 74
     0
 42
0.0000000001
 43
0.0000000001
 40
0.0
 40
0.0
 40
0.0
 40
0.0
 40
1.0
 40
1.0
 40
1.0
 40
2.0
 40
2.0
 40
2.0
 40
3.0
 40
3.0
 40
3.0
 40
4.0
 40
4.0
 40
4.0
 40
4.0
 10
9.788979348448076
 20
-11.1329153906598
 30
0.0
 10
10.26875734142437
 20
-11.00238731685176
 30
0.0
 10
10.76617395413707
 20
-11.19288763978184
 30
0.0
 10
11.17892398094869
 20
-11.43630449479131
 30
0.0
 10
11.38000787944273
 20
-11.55272113451406
 30
0.0
 10
11.59872972480296
 20
-11.89491533663968
 30
0.0
 10
11.29534062067145
 20
-12.02897126896904
 30
0.0
 10
10.82614620325911
 20
-12.13127714747672
 30
0.0
 10
10.25464590733909
 20
-12.07130489835469
 30
0.0
 10
9.933618183471189
 20
-11.67619349127946
 30
0.0
 10
9.79603506549072
 20
-11.52802679773503
 30
0.0
 10
9.80661796818447
 20
-11.31635999654723
 30
0.0
 10
9.788979348448076
 20
-11.1329153906598
 30
0.0
  0
HATCH
  5
8A
330
79
100
AcDbEntity
  8
Layer 1
 62
   153
420
  4560080
440
 33554687
100
AcDbHatch
 10
0.0
 20
0.0
 30
0.0
210
0.0
220
0.0
230
1.0
  2
SOLID
 70
     1
 71
     1
 91
        1
 92
        1
 93
        1
 72
     4
 94
        3
 73
     0
 74
     0
 95
       17
 96
       13
 40
0.0
 40
0.0
 40
0.0
 40
0.0
 40
1.0
 40
1.0
 40
1.0
 40
2.0
 40
2.0
 40
2.0
 40
3.0
 40
3.0
 40
3.0
 40
4.0
 40
4.0
 40
4.0
 40
4.0
 10
9.788979348448076
 20
-11.1329153906598
 10
10.26875734142437
 20
-11.00238731685176
 10
10.76617395413707
 20
-11.19288763978184
 10
11.17892398094869
 20
-11.43630449479131
 10
11.38000787944273
 20
-11.55272113451406
 10
11.59872972480296
 20
-11.89491533663968
 10
11.29534062067145
 20
-12.02897126896904
 10
10.82614620325911
 20
-12.13127714747672
 10
10.25464590733909
 20
-12.07130489835469
 10
9.933618183471189
 20
-11.67619349127946
 10
9.79603506549072
 20
-11.52802679773503
 10
9.80661796818447
 20
-11.31635999654723
 10
9.788979348448076
 20
-11.1329153906598
 97
        0
 97
        1
330
89
 75
     2
 76
     1
 98
        1
 10
0.0
 20
0.0
450
        0
451
        0
460
0.0
461
0.0
452
        0
462
0.0
453
        0
470

  0
SPLINE
  5
8B
330
79
100
AcDbEntity
  8
Layer 1
100
AcDbSpline
210
0.0
220
0.0
230
1.0
 70
     9
 71
     3
 72
    23
 73
    19
 74
     0
 42
0.0000000001
 43
0.0000000001
 40
0.0
 40
0.0
 40
0.0
 40
0.0
 40
1.0
 40
1.0
 40
1.0
 40
2.0
 40
2.0
 40
2.0
 40
3.0
 40
3.0
 40
3.0
 40
4.0
 40
4.0
 40
4.0
 40
5.0
 40
5.0
 40
5.0
 40
6.0
 40
6.0
 40
6.0
 40
6.0
 10
0.6767293355865593
 20
-13.64469346387253
 30
0.0
 10
1.350534879198434
 20
-13.3906937061693
 30
0.0
 10
2.09489603722437
 20
-13.42949880416341
 30
0.0
 10
2.789868185257126
 20
-13.56708259501409
 30
0.0
 10
3.340201330049216
 20
-13.67644351769421
 30
0.0
 10
3.957562441005988
 20
-13.75052720090153
 30
0.0
 10
4.366784609296287
 20
-14.17738798892822
 30
0.0
 10
3.971673538656166
 20
-14.45255489775937
 30
0.0
 10
3.481312306551008
 20
-14.49488785427481
 30
0.0
 10
3.019173606181313
 20
-14.56897153748213
 30
0.0
 10
2.165451357257712
 20
-14.68538817720488
 30
0.0
 10
1.287034771555075
 20
-14.79474909988499
 30
0.0
 10
0.436840212935244
 20
-14.59013801573984
 30
0.0
 10
0.2428124310005343
 20
-14.53722148366045
 30
0.0
 10
-0.0252986556520039
 20
-14.4208048439377
 30
0.0
 10
-0.0006042347641905
 20
-14.17738798892822
 30
0.0
 10
0.1193402109118995
 20
-13.89869322157575
 30
0.0
 10
0.4050902011679528
 20
-13.74699934238021
 30
0.0
 10
0.6767293355865593
 20
-13.64469346387253
 30
0.0
  0
HATCH
  5
8C
330
79
100
AcDbEntity
  8
Layer 1
 62
   153
420
  4560080
440
 33554687
100
AcDbHatch
 10
0.0
 20
0.0
 30
0.0
210
0.0
220
0.0
230
1.0
  2
SOLID
 70
     1
 71
     1
 91
        1
 92
        1
 93
        1
 72
     4
 94
        3
 73
     0
 74
     0
 95
       23
 96
       19
 40
0.0
 40
0.0
 40
0.0
 40
0.0
 40
1.0
 40
1.0
 40
1.0
 40
2.0
 40
2.0
 40
2.0
 40
3.0
 40
3.0
 40
3.0
 40
4.0
 40
4.0
 40
4.0
 40
5.0
 40
5.0
 40
5.0
 40
6.0
 40
6.0
 40
6.0
 40
6.0
 10
0.6767293355865593
 20
-13.64469346387253
 10
1.350534879198434
 20
-13.3906937061693
 10
2.09489603722437
 20
-13.42949880416341
 10
2.789868185257126
 20
-13.56708259501409
 10
3.340201330049216
 20
-13.67644351769421
 10
3.957562441005988
 20
-13.75052720090153
 10
4.366784609296287
 20
-14.17738798892822
 10
3.971673538656166
 20
-14.45255489775937
 10
3.481312306551008
 20
-14.49488785427481
 10
3.019173606181313
 20
-14.56897153748213
 10
2.165451357257712
 20
-14.68538817720488
 10
1.287034771555075
 20
-14.79474909988499
 10
0.436840212935244
 20
-14.59013801573984
 10
0.2428124310005343
 20
-14.53722148366045
 10
-0.0252986556520039
 20
-14.4208048439377
 10
-0.0006042347641905
 20
-14.17738798892822
 10
0.1193402109118995
 20
-13.89869322157575
 10
0.4050902011679528
 20
-13.74699934238021
 10
0.6767293355865593
 20
-13.64469346387253
 97
        0
 97
        1
330
8B
 75
     2
 76
     1
 98
        1
 10
0.0
 20
0.0
450
        0
451
        0
460
0.0
461
0.0
452
        0
462
0.0
453
        0
470

  0
SPLINE
  5
8D
330
79
100
AcDbEntity
  8
Layer 1
100
AcDbSpline
210
0.0
220
0.0
230
1.0
 70
     9
 71
     3
 72
    23
 73
    19
 74
     0
 42
0.0000000001
 43
0.0000000001
 40
0.0
 40
0.0
 40
0.0
 40
0.0
 40
1.0
 40
1.0
 40
1.0
 40
2.0
 40
2.0
 40
2.0
 40
3.0
 40
3.0
 40
3.0
 40
4.0
 40
4.0
 40
4.0
 40
5.0
 40
5.0
 40
5.0
 40
6.0
 40
6.0
 40
6.0
 40
6.0
 10
7.06553514691777
 20
-13.62352698561481
 30
0.0
 10
7.418312924607353
 20
-13.53533254119241
 30
0.0
 10
7.728757072911292
 20
-13.75052720090153
 30
0.0
 10
7.99334040617848
 20
-13.958666143568
 30
0.0
 10
8.250868022403025
 20
-14.17033294475579
 30
0.0
 10
8.596590083049965
 20
-14.25499953065687
 30
0.0
 10
8.815312601280401
 20
-14.51252714688141
 30
0.0
 10
8.815312601280401
 20
-14.6889160357262
 30
0.0
 10
8.698895961557647
 20
-14.87941568578607
 30
0.0
 10
8.504868452976461
 20
-14.88294354430739
 30
0.0
 10
7.996868264699801
 20
-14.94291579342943
 30
0.0
 10
7.439479402865068
 20
-14.83355487074932
 30
0.0
 10
7.047895854311163
 20
-14.49135999575348
 30
0.0
 10
6.822118291908298
 20
-14.27616533604437
 30
0.0
 10
6.712756696357974
 20
-13.7646379621166
 30
0.0
 10
7.065534474047558
 20
-13.62705417126592
 30
0.0
 10
7.065534474047558
 20
-13.62705417126592
 30
0.0
 10
7.06553514691777
 20
-13.62352698561481
 30
0.0
 10
7.06553514691777
 20
-13.62352698561481
 30
0.0
  0
HATCH
  5
8E
330
79
100
AcDbEntity
  8
Layer 1
 62
   153
420
  4560080
440
 33554687
100
AcDbHatch
 10
0.0
 20
0.0
 30
0.0
210
0.0
220
0.0
230
1.0
  2
SOLID
 70
     1
 71
     1
 91
        1
 92
        1
 93
        1
 72
     4
 94
        3
 73
     0
 74
     0
 95
       23
 96
       19
 40
0.0
 40
0.0
 40
0.0
 40
0.0
 40
1.0
 40
1.0
 40
1.0
 40
2.0
 40
2.0
 40
2.0
 40
3.0
 40
3.0
 40
3.0
 40
4.0
 40
4.0
 40
4.0
 40
5.0
 40
5.0
 40
5.0
 40
6.0
 40
6.0
 40
6.0
 40
6.0
 10
7.06553514691777
 20
-13.62352698561481
 10
7.418312924607353
 20
-13.53533254119241
 10
7.728757072911292
 20
-13.75052720090153
 10
7.99334040617848
 20
-13.958666143568
 10
8.250868022403025
 20
-14.17033294475579
 10
8.596590083049965
 20
-14.25499953065687
 10
8.815312601280401
 20
-14.51252714688141
 10
8.815312601280401
 20
-14.6889160357262
 10
8.698895961557647
 20
-14.87941568578607
 10
8.504868452976461
 20
-14.88294354430739
 10
7.996868264699801
 20
-14.94291579342943
 10
7.439479402865068
 20
-14.83355487074932
 10
7.047895854311163
 20
-14.49135999575348
 10
6.822118291908298
 20
-14.27616533604437
 10
6.712756696357974
 20
-13.7646379621166
 10
7.065534474047558
 20
-13.62705417126592
 10
7.065534474047558
 20
-13.62705417126592
 10
7.06553514691777
 20
-13.62352698561481
 10
7.06553514691777
 20
-13.62352698561481
 97
        0
 97
        1
330
8D
 75
     2
 76
     1
 98
        1
 10
0.0
 20
0.0
450
        0
451
        0
460
0.0
461
0.0
452
        0
462
0.0
453
        0
470

  0
SPLINE
  5
8F
330
79
100
AcDbEntity
  8
Layer 1
100
AcDbSpline
210
0.0
220
0.0
230
1.0
 70
     9
 71
     3
 72
    20
 73
    16
 74
     0
 42
0.0000000001
 43
0.0000000001
 40
0.0
 40
0.0
 40
0.0
 40
0.0
 40
1.0
 40
1.0
 40
1.0
 40
2.0
 40
2.0
 40
2.0
 40
3.0
 40
3.0
 40
3.0
 40
4.0
 40
4.0
 40
4.0
 40
5.0
 40
5.0
 40
5.0
 40
5.0
 10
4.37384032633893
 20
-18.85169287044499
 30
0.0
 10
4.5467013566624
 20
-18.18141455453861
 30
0.0
 10
5.252256912041567
 20
-17.86744254771335
 30
0.0
 10
5.873145881519659
 20
-17.75808229790345
 30
0.0
 10
6.451701221612108
 20
-17.68752647321745
 30
0.0
 10
7.079645908132842
 20
-17.62755489696562
 30
0.0
 10
7.61939547736097
 20
-17.89919394727546
 30
0.0
 10
7.150201059948632
 20
-18.33311045234479
 30
0.0
 10
6.525784231949218
 20
-18.52008224388334
 30
0.0
 10
5.940173174814127
 20
-18.73880543498398
 30
0.0
 10
5.43922870358011
 20
-18.89755570409238
 30
0.0
 10
4.881839841745377
 20
-19.08452749563092
 30
0.0
 10
4.370312131382503
 20
-18.85169421618541
 30
0.0
 10
4.370312131382503
 20
-18.85169421618541
 30
0.0
 10
4.37384032633893
 20
-18.85169287044499
 30
0.0
 10
4.37384032633893
 20
-18.85169287044499
 30
0.0
  0
HATCH
  5
90
330
79
100
AcDbEntity
  8
Layer 1
 62
   153
420
  4560080
440
 33554687
100
AcDbHatch
 10
0.0
 20
0.0
 30
0.0
210
0.0
220
0.0
230
1.0
  2
SOLID
 70
     1
 71
     1
 91
        1
 92
        1
 93
        1
 72
     4
 94
        3
 73
     0
 74
     0
 95
       20
 96
       16
 40
0.0
 40
0.0
 40
0.0
 40
0.0
 40
1.0
 40
1.0
 40
1.0
 40
2.0
 40
2.0
 40
2.0
 40
3.0
 40
3.0
 40
3.0
 40
4.0
 40
4.0
 40
4.0
 40
5.0
 40
5.0
 40
5.0
 40
5.0
 10
4.37384032633893
 20
-18.85169287044499
 10
4.5467013566624
 20
-18.18141455453861
 10
5.252256912041567
 20
-17.86744254771335
 10
5.873145881519659
 20
-17.75808229790345
 10
6.451701221612108
 20
-17.68752647321745
 10
7.079645908132842
 20
-17.62755489696562
 10
7.61939547736097
 20
-17.89919394727546
 10
7.150201059948632
 20
-18.33311045234479
 10
6.525784231949218
 20
-18.52008224388334
 10
5.940173174814127
 20
-18.73880543498398
 10
5.43922870358011
 20
-18.89755570409238
 10
4.881839841745377
 20
-19.08452749563092
 10
4.370312131382503
 20
-18.85169421618541
 10
4.370312131382503
 20
-18.85169421618541
 10
4.37384032633893
 20
-18.85169287044499
 10
4.37384032633893
 20
-18.85169287044499
 97
        0
 97
        1
330
8F
 75
     2
 76
     1
 98
        1
 10
0.0
 20
0.0
450
        0
451
        0
460
0.0
461
0.0
452
        0
462
0.0
453
        0
470

  0
SPLINE
  5
91
330
79
100
AcDbEntity
  8
Layer 1
100
AcDbSpline
210
0.0
220
0.0
230
1.0
 70
     9
 71
     3
 72
    20
 73
    16
 74
     0
 42
0.0000000001
 43
0.0000000001
 40
0.0
 40
0.0
 40
0.0
 40
0.0
 40
1.0
 40
1.0
 40
1.0
 40
2.0
 40
2.0
 40
2.0
 40
3.0
 40
3.0
 40
3.0
 40
4.0
 40
4.0
 40
4.0
 40
5.0
 40
5.0
 40
5.0
 40
5.0
 10
8.459006965069496
 20
-18.41424917972454
 30
0.0
 10
8.441368345333103
 20
-18.19905452001543
 30
0.0
 10
8.67772948329993
 20
-18.086165738814
 30
0.0
 10
8.857645557795832
 20
-18.06147140203496
 30
0.0
 10
9.196311901400131
 20
-18.03677706525592
 30
0.0
 10
9.538506776395962
 20
-18.04030425090703
 30
0.0
 10
9.877173120000261
 20
-18.06147140203496
 30
0.0
 10
9.785450817056544
 20
-18.48127647301901
 30
0.0
 10
9.330367833729491
 20
-18.58358235152669
 30
0.0
 10
8.977590056039908
 20
-18.70352684977077
 30
0.0
 10
8.769451113373436
 20
-18.79172129419316
 30
0.0
 10
8.437839813941568
 20
-18.67883251299173
 30
0.0
 10
8.455479106548175
 20
-18.41777636537565
 30
0.0
 10
8.455479106548175
 20
-18.41777636537565
 30
0.0
 10
8.459006965069496
 20
-18.41424917972454
 30
0.0
 10
8.459006965069496
 20
-18.41424917972454
 30
0.0
  0
HATCH
  5
92
330
79
100
AcDbEntity
  8
Layer 1
 62
   153
420
  4560080
440
 33554687
100
AcDbHatch
 10
0.0
 20
0.0
 30
0.0
210
0.0
220
0.0
230
1.0
  2
SOLID
 70
     1
 71
     1
 91
        1
 92
        1
 93
        1
 72
     4
 94
        3
 73
     0
 74
     0
 95
       20
 96
       16
 40
0.0
 40
0.0
 40
0.0
 40
0.0
 40
1.0
 40
1.0
 40
1.0
 40
2.0
 40
2.0
 40
2.0
 40
3.0
 40
3.0
 40
3.0
 40
4.0
 40
4.0
 40
4.0
 40
5.0
 40
5.0
 40
5.0
 40
5.0
 10
8.459006965069496
 20
-18.41424917972454
 10
8.441368345333103
 20
-18.19905452001543
 10
8.67772948329993
 20
-18.086165738814
 10
8.857645557795832
 20
-18.06147140203496
 10
9.196311901400131
 20
-18.03677706525592
 10
9.538506776395962
 20
-18.04030425090703
 10
9.877173120000261
 20
-18.06147140203496
 10
9.785450817056544
 20
-18.48127647301901
 10
9.330367833729491
 20
-18.58358235152669
 10
8.977590056039908
 20
-18.70352684977077
 10
8.769451113373436
 20
-18.79172129419316
 10
8.437839813941568
 20
-18.67883251299173
 10
8.455479106548175
 20
-18.41777636537565
 10
8.455479106548175
 20
-18.41777636537565
 10
8.459006965069496
 20
-18.41424917972454
 10
8.459006965069496
 20
-18.41424917972454
 97
        0
 97
        1
330
91
 75
     2
 76
     1
 98
        1
 10
0.0
 20
0.0
450
        0
451
        0
460
0.0
461
0.0
452
        0
462
0.0
453
        0
470

  0
SPLINE
  5
93
330
79
100
AcDbEntity
  8
Layer 1
100
AcDbSpline
210
0.0
220
0.0
230
1.0
 70
     9
 71
     3
 72
   116
 73
   112
 74
     0
 42
0.0000000001
 43
0.0000000001
 40
0.0
 40
0.0
 40
0.0
 40
0.0
 40
1.0
 40
1.0
 40
1.0
 40
2.0
 40
2.0
 40
2.0
 40
3.0
 40
3.0
 40
3.0
 40
4.0
 40
4.0
 40
4.0
 40
5.0
 40
5.0
 40
5.0
 40
6.0
 40
6.0
 40
6.0
 40
7.0
 40
7.0
 40
7.0
 40
8.0
 40
8.0
 40
8.0
 40
9.0
 40
9.0
 40
9.0
 40
10.0
 40
10.0
 40
10.0
 40
11.0
 40
11.0
 40
11.0
 40
12.0
 40
12.0
 40
12.0
 40
13.0
 40
13.0
 40
13.0
 40
14.0
 40
14.0
 40
14.0
 40
15.0
 40
15.0
 40
15.0
 40
16.0
 40
16.0
 40
16.0
 40
17.0
 40
17.0
 40
17.0
 40
18.0
 40
18.0
 40
18.0
 40
19.0
 40
19.0
 40
19.0
 40
20.0
 40
20.0
 40
20.0
 40
21.0
 40
21.0
 40
21.0
 40
22.0
 40
22.0
 40
22.0
 40
23.0
 40
23.0
 40
23.0
 40
24.0
 40
24.0
 40
24.0
 40
25.0
 40
25.0
 40
25.0
 40
26.0
 40
26.0
 40
26.0
 40
27.0
 40
27.0
 40
27.0
 40
28.0
 40
28.0
 40
28.0
 40
29.0
 40
29.0
 40
29.0
 40
30.0
 40
30.0
 40
30.0
 40
31.0
 40
31.0
 40
31.0
 40
32.0
 40
32.0
 40
32.0
 40
33.0
 40
33.0
 40
33.0
 40
34.0
 40
34.0
 40
34.0
 40
35.0
 40
35.0
 40
35.0
 40
36.0
 40
36.0
 40
36.0
 40
37.0
 40
37.0
 40
37.0
 40
37.0
 10
33.00941924223593
 20
-9.787666996522267
 30
0.0
 10
32.1874409913021
 20
-9.671244300967606
 30
0.0
 10
31.35842182647029
 20
-9.770032414007145
 30
0.0
 10
30.53291235266408
 20
-9.720638357487375
 30
0.0
 10
29.70389318783228
 20
-9.882902354842643
 30
0.0
 10
28.84311454899582
 20
-9.889964800587405
 30
0.0
 10
28.03877088057712
 20
-10.16161057959935
 30
0.0
 10
27.88707901999221
 20
-10.21100463611912
 30
0.0
 10
27.81651915808494
 20
-10.36622771957641
 30
0.0
 10
27.80241579844219
 20
-10.51438835728894
 30
0.0
 10
27.77418754730993
 20
-10.8742070488765
 30
0.0
 10
27.82358160382969
 20
-11.24110971805561
 30
0.0
 10
27.72832471366254
 20
-11.59035627287281
 30
0.0
 10
27.49196963152762
 20
-12.51816355074416
 30
0.0
 10
26.83227690979584
 20
-13.3366105788056
 30
0.0
 10
25.96443582521462
 20
-13.74229210404055
 30
0.0
 10
25.79864060498697
 20
-13.82344563456497
 30
0.0
 10
25.63282385291254
 20
-13.90104641037022
 30
0.0
 10
25.47055985555727
 20
-13.98570963192024
 30
0.0
 10
25.44233160442501
 20
-14.13389180147954
 30
0.0
 10
25.43175946765465
 20
-14.28205243919207
 30
0.0
 10
25.38589663400726
 20
-14.42668185403222
 30
0.0
 10
25.71044616056458
 20
-14.73008710704881
 30
0.0
 10
25.87624138079223
 20
-15.15340321479889
 30
0.0
 10
26.00676743598963
 20
-15.56616871762538
 30
0.0
 10
26.3807325509135
 20
-16.85732590995667
 30
0.0
 10
26.27841321500158
 20
-18.29666527184727
 30
0.0
 10
25.65752088117243
 20
-19.49609679688379
 30
0.0
 10
25.1812794940302
 20
-20.46623568553014
 30
0.0
 10
24.34872910632601
 20
-21.20355071491395
 30
0.0
 10
23.46325343922968
 20
-21.79268357473846
 30
0.0
 10
21.87222221675417
 20
-22.81574774277697
 30
0.0
 10
19.88961282868645
 20
-23.30962371243431
 30
0.0
 10
18.0234261361734
 20
-22.8968797414546
 30
0.0
 10
17.22614491349945
 20
-22.73461574409934
 30
0.0
 10
16.47825774734528
 20
-22.33948482378796
 30
0.0
 10
15.92086282967864
 20
-21.74682074109107
 30
0.0
 10
14.88369530199739
 20
-20.66028068873684
 30
0.0
 10
14.46035766240053
 20
-19.06924946626133
 30
0.0
 10
14.67554693914795
 20
-17.59817216221287
 30
0.0
 10
14.79550085757499
 20
-16.96315493689419
 30
0.0
 10
15.00364922042443
 20
-16.29289007839205
 30
0.0
 10
15.46578724792392
 20
-15.82722082802019
 30
0.0
 10
15.55398169234631
 20
-15.64376949343064
 30
0.0
 10
15.61041666276406
 20
-15.44974602207072
 30
0.0
 10
15.63511369102395
 20
-15.24866010496604
 30
0.0
 10
15.35642699811402
 20
-15.1957348255739
 30
0.0
 10
15.07771877335731
 20
-15.14989352377329
 30
0.0
 10
14.79903208044738
 20
-15.1075403811515
 30
0.0
 10
15.18354780029482
 20
-14.82179124249681
 30
0.0
 10
15.66685163318181
 20
-14.75125291243632
 30
0.0
 10
16.07608591313592
 20
-14.52193874419937
 30
0.0
 10
16.09372049565105
 20
-14.29262457596243
 30
0.0
 10
16.0407952162589
 20
-14.07039438531703
 30
0.0
 10
15.931434966449
 20
-13.86930846821236
 30
0.0
 10
15.61747910850882
 20
-13.89047427359986
 30
0.0
 10
15.30350171872187
 20
-13.74935454978532
 30
0.0
 10
14.99305555180729
 20
-13.69291957936757
 30
0.0
 10
15.57865718875941
 20
-13.3366105788056
 30
0.0
 10
16.30537854952608
 20
-13.13552466170093
 30
0.0
 10
16.98625860849215
 20
-13.30131988192858
 30
0.0
 10
17.18732299375004
 20
-13.34365149270358
 30
0.0
 10
17.38840891085472
 20
-13.41068013173847
 30
0.0
 10
17.59655727370416
 20
-13.36130760706549
 30
0.0
 10
17.67415804950941
 20
-13.32601691018846
 30
0.0
 10
17.7411866885443
 20
-13.27664438551547
 30
0.0
 10
17.79764319080884
 20
-13.20961574648058
 30
0.0
 10
18.4150043017656
 20
-12.52522599648892
 30
0.0
 10
19.22992010695467
 20
-12.01369391246967
 30
0.0
 10
20.11539577405101
 20
-11.76321393884522
 30
0.0
 10
20.15772738482602
 20
-11.95019649630715
 30
0.0
 10
20.19652777272865
 20
-12.13362629904993
 30
0.0
 10
20.23532816063127
 20
-12.32060885651186
 30
0.0
 10
20.47170477461298
 20
-12.99440493788638
 30
0.0
 10
20.7962543011703
 20
-13.67879468787804
 30
0.0
 10
21.37832471525004
 20
-14.1232981328624
 30
0.0
 10
21.55824482696721
 20
-14.27145877057493
 30
0.0
 10
21.79813113197452
 20
-14.27852121631969
 30
0.0
 10
22.02038285446669
 20
-14.29262457596243
 30
0.0
 10
22.08388027062921
 20
-14.13389180147954
 30
0.0
 10
22.15090890966409
 20
-13.97513749514988
 30
0.0
 10
22.21440632582661
 20
-13.81638318882021
 30
0.0
 10
22.02038285446669
 20
-13.53063405016552
 30
0.0
 10
21.70289577365414
 20
-13.36483882993787
 30
0.0
 10
21.51238199331982
 20
-13.07906815943639
 30
0.0
 10
20.89855210523543
 20
-12.18655157844208
 30
0.0
 10
20.71159107962028
 20
-10.98709852155878
 30
0.0
 10
21.11727260485523
 20
-9.971096799265039
 30
0.0
 10
21.50180985654946
 20
-8.990385773848323
 30
0.0
 10
22.34142268999841
 20
-8.228373716204625
 30
0.0
 10
23.32566493828751
 20
-7.872086247489444
 30
0.0
 10
23.32566493828751
 20
-7.872086247489444
 30
0.0
 10
23.32566493828751
 20
-7.879127161387423
 30
0.0
 10
23.32566493828751
 20
-7.879127161387423
 30
0.0
 10
24.03828293941144
 20
-7.593378022732732
 30
0.0
 10
24.81790804772348
 20
-7.600440468477493
 30
0.0
 10
25.56932643675003
 20
-7.660406661767624
 30
0.0
 10
26.26077863248646
 20
-7.783891803067048
 30
0.0
 10
26.93457471386098
 20
-8.073172164594121
 30
0.0
 10
27.45670046649737
 20
-8.549413551736344
 30
0.0
 10
27.59075774456716
 20
-8.658773801546244
 30
0.0
 10
27.71069013114742
 20
-8.789299856743648
 30
0.0
 10
27.86238199173233
 20
-8.877494301166043
 30
0.0
 10
28.50797135382136
 20
-8.91982591194105
 30
0.0
 10
29.16413285268076
 20
-8.849266050033778
 30
0.0
 10
29.80619099189742
 20
-8.951585385945698
 30
0.0
 10
31.22789577127289
 20
-9.060945635755597
 30
0.0
 10
32.6248819905417
 20
-9.392557608057677
 30
0.0
 10
33.99013026765265
 20
-9.808832801909771
 30
0.0
 10
33.66204951822294
 20
-9.81587371580775
 30
0.0
 10
33.33749999166562
 20
-9.81587371580775
 30
0.0
 10
33.00941924223593
 20
-9.787666996522267
 30
0.0
  0
SPLINE
  5
94
330
79
100
AcDbEntity
  8
Layer 1
100
AcDbSpline
210
0.0
220
0.0
230
1.0
 70
     9
 71
     3
 72
   203
 73
   199
 74
     0
 42
0.0000000001
 43
0.0000000001
 40
0.0
 40
0.0
 40
0.0
 40
0.0
 40
1.0
 40
1.0
 40
1.0
 40
2.0
 40
2.0
 40
2.0
 40
3.0
 40
3.0
 40
3.0
 40
4.0
 40
4.0
 40
4.0
 40
5.0
 40
5.0
 40
5.0
 40
6.0
 40
6.0
 40
6.0
 40
7.0
 40
7.0
 40
7.0
 40
8.0
 40
8.0
 40
8.0
 40
9.0
 40
9.0
 40
9.0
 40
10.0
 40
10.0
 40
10.0
 40
11.0
 40
11.0
 40
11.0
 40
12.0
 40
12.0
 40
12.0
 40
13.0
 40
13.0
 40
13.0
 40
14.0
 40
14.0
 40
14.0
 40
15.0
 40
15.0
 40
15.0
 40
16.0
 40
16.0
 40
16.0
 40
17.0
 40
17.0
 40
17.0
 40
18.0
 40
18.0
 40
18.0
 40
19.0
 40
19.0
 40
19.0
 40
20.0
 40
20.0
 40
20.0
 40
21.0
 40
21.0
 40
21.0
 40
22.0
 40
22.0
 40
22.0
 40
23.0
 40
23.0
 40
23.0
 40
24.0
 40
24.0
 40
24.0
 40
25.0
 40
25.0
 40
25.0
 40
26.0
 40
26.0
 40
26.0
 40
27.0
 40
27.0
 40
27.0
 40
28.0
 40
28.0
 40
28.0
 40
29.0
 40
29.0
 40
29.0
 40
30.0
 40
30.0
 40
30.0
 40
31.0
 40
31.0
 40
31.0
 40
32.0
 40
32.0
 40
32.0
 40
33.0
 40
33.0
 40
33.0
 40
34.0
 40
34.0
 40
34.0
 40
35.0
 40
35.0
 40
35.0
 40
36.0
 40
36.0
 40
36.0
 40
37.0
 40
37.0
 40
37.0
 40
38.0
 40
38.0
 40
38.0
 40
39.0
 40
39.0
 40
39.0
 40
40.0
 40
40.0
 40
40.0
 40
41.0
 40
41.0
 40
41.0
 40
42.0
 40
42.0
 40
42.0
 40
43.0
 40
43.0
 40
43.0
 40
44.0
 40
44.0
 40
44.0
 40
45.0
 40
45.0
 40
45.0
 40
46.0
 40
46.0
 40
46.0
 40
47.0
 40
47.0
 40
47.0
 40
48.0
 40
48.0
 40
48.0
 40
49.0
 40
49.0
 40
49.0
 40
50.0
 40
50.0
 40
50.0
 40
51.0
 40
51.0
 40
51.0
 40
52.0
 40
52.0
 40
52.0
 40
53.0
 40
53.0
 40
53.0
 40
54.0
 40
54.0
 40
54.0
 40
55.0
 40
55.0
 40
55.0
 40
56.0
 40
56.0
 40
56.0
 40
57.0
 40
57.0
 40
57.0
 40
58.0
 40
58.0
 40
58.0
 40
59.0
 40
59.0
 40
59.0
 40
60.0
 40
60.0
 40
60.0
 40
61.0
 40
61.0
 40
61.0
 40
62.0
 40
62.0
 40
62.0
 40
63.0
 40
63.0
 40
63.0
 40
64.0
 40
64.0
 40
64.0
 40
65.0
 40
65.0
 40
65.0
 40
66.0
 40
66.0
 40
66.0
 40
66.0
 10
37.32741579606094
 20
-10.73664007978112
 30
0.0
 10
37.16513026685922
 20
-10.52849171693168
 30
0.0
 10
36.93936885334112
 20
-10.39090321598951
 30
0.0
 10
36.731220490492
 20
-10.23921135540461
 30
0.0
 10
35.28130899183071
 20
-9.269072466758252
 30
0.0
 10
33.58797996529008
 20
-8.746968245968639
 30
0.0
 10
31.89462940690265
 20
-8.401252914023819
 30
0.0
 10
30.71636368725364
 20
-8.175469968659257
 30
0.0
 10
29.5239730761151
 20
-8.016715662329588
 30
0.0
 10
28.32101032820621
 20
-8.051984827359834
 30
0.0
 10
28.1728281586469
 20
-8.073172164594121
 30
0.0
 10
28.06699913170938
 20
-7.960280691911839
 30
0.0
 10
27.95763888189948
 20
-7.879127161387423
 30
0.0
 10
27.0792256605479
 20
-7.113605412718126
 30
0.0
 10
25.89740718617973
 20
-6.729068161023896
 30
0.0
 10
24.74030727191822
 20
-6.79258710903319
 30
0.0
 10
22.74357299236098
 20
-6.74319305251342
 30
0.0
 10
20.73275688500778
 20
-8.097847661007222
 30
0.0
 10
20.21416235524377
 20
-10.05929124368743
 30
0.0
 10
20.21416235524377
 20
-10.05929124368743
 30
0.0
 10
20.21769357811615
 20
-10.07341613517696
 30
0.0
 10
20.21769357811615
 20
-10.07341613517696
 30
0.0
 10
20.1436024933365
 20
-10.35916527383165
 30
0.0
 10
20.09773965968911
 20
-10.6554865492567
 30
0.0
 10
20.04483591214374
 20
-10.94476691078377
 30
0.0
 10
19.14525688540466
 20
-11.15644649650559
 30
0.0
 10
18.31268496585369
 20
-11.61505330113269
 30
0.0
 10
17.62829521586202
 20
-12.23241441208946
 30
0.0
 10
17.49776916066462
 20
-12.32414007938424
 30
0.0
 10
17.38489921982912
 20
-12.47936316284153
 30
0.0
 10
17.21202002200993
 20
-12.47936316284153
 30
0.0
 10
16.69697824696507
 20
-12.48289438571391
 30
0.0
 10
16.17485249432868
 20
-12.40880330093426
 30
0.0
 10
15.66685163318181
 20
-12.52522599648892
 30
0.0
 10
14.80256330331976
 20
-12.72629038174681
 30
0.0
 10
13.97705382951355
 20
-13.27311316264309
 30
0.0
 10
13.5925381096661
 20
-14.09156019070454
 30
0.0
 10
13.56784108140622
 20
-14.14093271537752
 30
0.0
 10
13.55724741278907
 20
-14.18679554902491
 30
0.0
 10
13.55724741278907
 20
-14.22912715979992
 30
0.0
 10
13.55724741278907
 20
-14.25029296518743
 30
0.0
 10
13.56077863566145
 20
-14.27145877057493
 30
0.0
 10
13.56784108140622
 20
-14.29615579883481
 30
0.0
 10
13.61017269218122
 20
-14.46901346480722
 30
0.0
 10
13.82536196892864
 20
-14.59249860610665
 30
0.0
 10
13.95941924699843
 20
-14.70892130166131
 30
0.0
 10
13.96295046987081
 20
-14.70892130166131
 30
0.0
 10
13.96648169274319
 20
-14.71243099268691
 30
0.0
 10
13.96999138376879
 20
-14.71596221555929
 30
0.0
 10
13.67013888547135
 20
-15.00877379995874
 30
0.0
 10
13.32442355352653
 20
-15.29099171574105
 30
0.0
 10
13.16920047006924
 20
-15.69669477282279
 30
0.0
 10
13.1586068014521
 20
-15.71786057821029
 30
0.0
 10
13.15507557857972
 20
-15.73549516072541
 30
0.0
 10
13.15156588755412
 20
-15.75312974324053
 30
0.0
 10
13.14450344180936
 20
-15.79193013114316
 30
0.0
 10
13.14450344180936
 20
-15.82722082802019
 30
0.0
 10
13.15156588755412
 20
-15.86248999305043
 30
0.0
 10
13.17273169294163
 20
-16.01771307650772
 30
0.0
 10
13.29619530239426
 20
-16.15530157744989
 30
0.0
 10
13.44435594010679
 20
-16.20469563396966
 30
0.0
 10
13.73363630163386
 20
-16.20116441109727
 30
0.0
 10
14.00528208064581
 20
-16.09180416128738
 30
0.0
 10
14.28396877355574
 20
-16.02477552225249
 30
0.0
 10
14.28749999642812
 20
-16.02124429938011
 30
0.0
 10
14.2910312193005
 20
-16.02124429938011
 30
0.0
 10
14.29456244217289
 20
-16.02124429938011
 30
0.0
 10
14.15344271835834
 20
-16.39871910532957
 30
0.0
 10
14.00175085777343
 20
-16.77972513415142
 30
0.0
 10
13.91708763622342
 20
-17.17483452261601
 30
0.0
 10
13.76892699851089
 20
-17.80629899321553
 30
0.0
 10
13.75480210702137
 20
-18.46246049207492
 30
0.0
 10
13.8324244146734
 20
-19.10804985416396
 30
0.0
 10
13.86416235683127
 20
-19.35499860491603
 30
0.0
 10
13.90649396760627
 20
-19.59841613279571
 30
0.0
 10
13.95941924699843
 20
-19.83830243780301
 30
0.0
 10
13.95941924699843
 20
-19.84183366067539
 30
0.0
 10
13.96295046987081
 20
-19.84887457457337
 30
0.0
 10
13.96295046987081
 20
-19.85240579744575
 30
0.0
 10
14.18520219236299
 20
-20.67791527125196
 30
0.0
 10
14.56618668933805
 20
-21.46107160243639
 30
0.0
 10
15.11300947023433
 20
-22.11725463314256
 30
0.0
 10
14.15697394123072
 20
-22.64993099070254
 30
0.0
 10
13.20800085797187
 20
-23.19322254872643
 30
0.0
 10
12.25196532896826
 20
-23.72592043813319
 30
0.0
 10
11.698101634174
 20
-23.17909765723691
 30
0.0
 10
11.15483160799688
 20
-22.62525549428943
 30
0.0
 10
10.60096791320262
 20
-22.08196393626554
 30
0.0
 10
10.46691063513284
 20
-21.93027207568063
 30
0.0
 10
10.25172135838542
 20
-21.88440924203324
 30
0.0
 10
10.06827002379586
 20
-21.96554124071087
 30
0.0
 10
9.302748275126569
 20
-22.25129037936556
 30
0.0
 10
8.544267440355252
 20
-22.55822685525454
 30
0.0
 10
7.778745691685956
 20
-22.84748568493483
 30
0.0
 10
7.598825579968783
 20
-22.91451432396972
 30
0.0
 10
7.383636303221365
 20
-23.03446824239677
 30
0.0
 10
7.383636303221365
 20
-23.25318874201657
 30
0.0
 10
7.341304692446358
 20
-23.5318754349265
 30
0.0
 10
7.669385441876056
 20
-23.78235540855094
 30
0.0
 10
7.926906329398482
 20
-23.67652638161342
 30
0.0
 10
8.678324718425036
 20
-23.40841182547385
 30
0.0
 10
9.412108524936469
 20
-23.0944344356869
 30
0.0
 10
10.1670581368354
 20
-22.82631987954733
 30
0.0
 10
10.73502519127241
 20
-23.40134937972909
 30
0.0
 10
11.32064836007131
 20
-23.95874429739573
 30
0.0
 10
11.89214663738069
 20
-24.5337737975775
 30
0.0
 10
12.02620391545048
 20
-24.6854656581624
 30
0.0
 10
12.26962144333016
 20
-24.67489352139204
 30
0.0
 10
12.43188544068543
 20
-24.57610540835251
 30
0.0
 10
13.53255038452919
 20
-23.96227552026811
 30
0.0
 10
14.62968410550056
 20
-23.3343207406942
 30
0.0
 10
15.7338802722167
 20
-22.72049085260981
 30
0.0
 10
16.34773169214788
 20
-23.2249604908843
 30
0.0
 10
17.08855641255729
 20
-23.56010368605876
 30
0.0
 10
17.86820305271611
 20
-23.71885799238843
 30
0.0
 10
19.66736110619427
 20
-24.12807074049576
 30
0.0
 10
21.56530727271197
 20
-23.75765838029106
 30
0.0
 10
23.19160766021772
 20
-22.92863921545925
 30
0.0
 10
24.08414577305883
 20
-23.95874429739573
 30
0.0
 10
24.95902777153802
 20
-25.00297427082174
 30
0.0
 10
25.85156588437913
 20
-26.03307935275823
 30
0.0
 10
25.98560163060213
 20
-26.22710282411814
 30
0.0
 10
26.26784107823122
 20
-26.27649688063791
 30
0.0
 10
26.45480210384637
 20
-26.12127379718062
 30
0.0
 10
27.06863199193076
 20
-25.68736402081341
 30
0.0
 10
27.66482729750002
 20
-25.22522599331392
 30
0.0
 10
28.27865718558442
 20
-24.78776346222754
 30
0.0
 10
28.43037057801611
 20
-24.66783107564728
 30
0.0
 10
28.64555985476353
 20
-24.54434593434786
 30
0.0
 10
28.61733160363126
 20
-24.31858452083007
 30
0.0
 10
28.64555985476353
 20
-23.99754468529836
 30
0.0
 10
28.22928466091143
 20
-23.80352121393844
 30
0.0
 10
27.97880468728699
 20
-23.98344132565561
 30
0.0
 10
27.39320305033486
 20
-24.38561315986497
 30
0.0
 10
26.83580813266822
 20
-24.82658538197695
 30
0.0
 10
26.25724740961408
 20
-25.23579813008428
 30
0.0
 10
25.48113199232764
 20
-24.32211574370246
 30
0.0
 10
24.69797566114321
 20
-23.41194304834623
 30
0.0
 10
23.92186024385678
 20
-22.49470790724525
 30
0.0
 10
24.27110679867398
 20
-22.26541527085509
 30
0.0
 10
24.60978121672082
 20
-22.01846652010302
 30
0.0
 10
24.92375860650778
 20
-21.73977982719309
 30
0.0
 10
24.92726829753337
 20
-21.73624860432072
 30
0.0
 10
24.92726829753337
 20
-21.73624860432072
 30
0.0
 10
24.93079952040576
 20
-21.73271738144833
 30
0.0
 10
25.02252518770053
 20
-21.6515853827707
 30
0.0
 10
25.11071963212293
 20
-21.56692216122069
 30
0.0
 10
25.19538285367294
 20
-21.48576863069627
 30
0.0
 10
25.19891407654533
 20
-21.48223740782388
 30
0.0
 10
25.19891407654533
 20
-21.47872771679829
 30
0.0
 10
25.20244529941771
 20
-21.47872771679829
 30
0.0
 10
25.83037854714484
 20
-20.86487629686712
 30
0.0
 10
26.33837940829171
 20
-20.13815493610044
 30
0.0
 10
26.64531588418069
 20
-19.31266699414102
 30
0.0
 10
26.77935163040369
 20
-18.95988921645143
 30
0.0
 10
26.88167096631561
 20
-18.59651777014471
 30
0.0
 10
26.94516838247812
 20
-18.22610540994
 30
0.0
 10
26.95223082822288
 20
-18.2049396045525
 30
0.0
 10
26.95574051924848
 20
-18.18730502203737
 30
0.0
 10
26.95574051924848
 20
-18.16613921664987
 30
0.0
 10
27.09686024306303
 20
-17.36532677110355
 30
0.0
 10
27.07569443767552
 20
-16.53630760627174
 30
0.0
 10
26.90283677170311
 20
-15.73902638359779
 30
0.0
 10
26.88167096631561
 20
-15.62613491091551
 30
0.0
 10
26.85344271518334
 20
-15.51324343823323
 30
0.0
 10
26.82170477302548
 20
-15.40035196555095
 30
0.0
 10
26.72644788285832
 20
-15.07227121612126
 30
0.0
 10
26.61002518730366
 20
-14.75125291243632
 30
0.0
 10
26.46539577246351
 20
-14.44433796839412
 30
0.0
 10
26.46539577246351
 20
-14.44433796839412
 30
0.0
 10
26.46892699533589
 20
-14.44433796839412
 30
0.0
 10
26.46892699533589
 20
-14.44080674552174
 30
0.0
 10
26.83580813266822
 20
-14.22559593692754
 30
0.0
 10
27.17799224174066
 20
-13.96807504940511
 30
0.0
 10
27.47080382614011
 20
-13.6646913282353
 30
0.0
 10
27.52726032840465
 20
-13.60472513494517
 30
0.0
 10
27.58369529882239
 20
-13.54473740980826
 30
0.0
 10
27.64013026924014
 20
-13.48477121651813
 30
0.0
 10
27.74949051905004
 20
-13.35424516132073
 30
0.0
 10
27.85180985496197
 20
-13.22018788325094
 30
0.0
 10
27.95057643615472
 20
-13.0755584684108
 30
0.0
 10
27.95057643615472
 20
-13.0755584684108
 30
0.0
 10
27.95057643615472
 20
-13.07202724553842
 30
0.0
 10
27.95057643615472
 20
-13.07202724553842
 30
0.0
 10
28.33511368784895
 20
-12.51110110499939
 30
0.0
 10
28.56440632423911
 20
-11.85140838326762
 30
0.0
 10
28.63496618614638
 20
-11.1776123018931
 30
0.0
 10
28.64909107763591
 20
-11.06118960633843
 30
0.0
 10
28.66672566015103
 20
-10.94829813365615
 30
0.0
 10
28.68436024266615
 20
-10.83540666097387
 30
0.0
 10
30.42355210285418
 20
-10.51791958016132
 30
0.0
 10
32.20507557381723
 20
-10.47558796938631
 30
0.0
 10
33.95839232549478
 20
-10.69430846900611
 30
0.0
 10
34.93206243701351
 20
-10.79660627307124
 30
0.0
 10
35.89867010278748
 20
-10.98358883053318
 30
0.0
 10
36.81941493491439
 20
-11.31166957996288
 30
0.0
 10
37.17572393547636
 20
-11.43160196654314
 30
0.0
 10
37.45087940551358
 20
-11.06472082921081
 30
0.0
 10
37.32741579606094
 20
-10.73664007978112
 30
0.0
  0
SPLINE
  5
95
330
79
100
AcDbEntity
  8
Layer 1
100
AcDbSpline
210
0.0
220
0.0
230
1.0
 70
     9
 71
     3
 72
    23
 73
    19
 74
     0
 42
0.0000000001
 43
0.0000000001
 40
0.0
 40
0.0
 40
0.0
 40
0.0
 40
1.0
 40
1.0
 40
1.0
 40
2.0
 40
2.0
 40
2.0
 40
3.0
 40
3.0
 40
3.0
 40
4.0
 40
4.0
 40
4.0
 40
5.0
 40
5.0
 40
5.0
 40
6.0
 40
6.0
 40
6.0
 40
6.0
 10
25.20244529941771
 20
-10.81070963271399
 30
0.0
 10
24.9625589944104
 20
-11.09294908034308
 30
0.0
 10
24.55332471445629
 20
-11.09998999424106
 30
0.0
 10
24.23583763364373
 20
-10.95182935652853
 30
0.0
 10
24.05238629905418
 20
-10.77897169055612
 30
0.0
 10
23.90775688421403
 20
-10.53908538554882
 30
0.0
 10
23.93245391247392
 20
-10.27450205228163
 30
0.0
 10
23.93245391247392
 20
-10.27450205228163
 30
0.0
 10
23.92892268960154
 20
-10.27097082940925
 30
0.0
 10
23.92892268960154
 20
-10.27097082940925
 30
0.0
 10
23.92892268960154
 20
-9.85822685842954
 30
0.0
 10
24.33460421483649
 20
-9.516021217510317
 30
0.0
 10
24.74030727191822
 20
-9.565415274030087
 30
0.0
 10
25.01195305093018
 20
-9.600684439060332
 30
0.0
 10
25.19891407654533
 20
-9.81587371580775
 30
0.0
 10
25.38589663400726
 20
-9.992262604652541
 30
0.0
 10
25.38236541113488
 20
-10.27097082940925
 30
0.0
 10
25.43526915868025
 20
-10.60258280171133
 30
0.0
 10
25.20244529941771
 20
-10.81070963271399
 30
0.0
  0
SPLINE
  5
96
330
79
100
AcDbEntity
  8
Layer 1
100
AcDbSpline
210
0.0
220
0.0
230
1.0
 70
     9
 71
     3
 72
   116
 73
   112
 74
     0
 42
0.0000000001
 43
0.0000000001
 40
0.0
 40
0.0
 40
0.0
 40
0.0
 40
1.0
 40
1.0
 40
1.0
 40
2.0
 40
2.0
 40
2.0
 40
3.0
 40
3.0
 40
3.0
 40
4.0
 40
4.0
 40
4.0
 40
5.0
 40
5.0
 40
5.0
 40
6.0
 40
6.0
 40
6.0
 40
7.0
 40
7.0
 40
7.0
 40
8.0
 40
8.0
 40
8.0
 40
9.0
 40
9.0
 40
9.0
 40
10.0
 40
10.0
 40
10.0
 40
11.0
 40
11.0
 40
11.0
 40
12.0
 40
12.0
 40
12.0
 40
13.0
 40
13.0
 40
13.0
 40
14.0
 40
14.0
 40
14.0
 40
15.0
 40
15.0
 40
15.0
 40
16.0
 40
16.0
 40
16.0
 40
17.0
 40
17.0
 40
17.0
 40
18.0
 40
18.0
 40
18.0
 40
19.0
 40
19.0
 40
19.0
 40
20.0
 40
20.0
 40
20.0
 40
21.0
 40
21.0
 40
21.0
 40
22.0
 40
22.0
 40
22.0
 40
23.0
 40
23.0
 40
23.0
 40
24.0
 40
24.0
 40
24.0
 40
25.0
 40
25.0
 40
25.0
 40
26.0
 40
26.0
 40
26.0
 40
27.0
 40
27.0
 40
27.0
 40
28.0
 40
28.0
 40
28.0
 40
29.0
 40
29.0
 40
29.0
 40
30.0
 40
30.0
 40
30.0
 40
31.0
 40
31.0
 40
31.0
 40
32.0
 40
32.0
 40
32.0
 40
33.0
 40
33.0
 40
33.0
 40
34.0
 40
34.0
 40
34.0
 40
35.0
 40
35.0
 40
35.0
 40
36.0
 40
36.0
 40
36.0
 40
37.0
 40
37.0
 40
37.0
 40
37.0
 10
29.80619099189742
 20
-8.951585385945698
 30
0.0
 10
29.16413285268076
 20
-8.849266050033778
 30
0.0
 10
28.50797135382136
 20
-8.91982591194105
 30
0.0
 10
27.86238199173233
 20
-8.877494301166043
 30
0.0
 10
27.71069013114742
 20
-8.789299856743648
 30
0.0
 10
27.59075774456716
 20
-8.658773801546244
 30
0.0
 10
27.45670046649737
 20
-8.549413551736344
 30
0.0
 10
26.93457471386098
 20
-8.073172164594121
 30
0.0
 10
26.26077863248646
 20
-7.783891803067048
 30
0.0
 10
25.56932643675003
 20
-7.660406661767624
 30
0.0
 10
24.81790804772348
 20
-7.600440468477493
 30
0.0
 10
24.03828293941144
 20
-7.593378022732732
 30
0.0
 10
23.32566493828751
 20
-7.879127161387423
 30
0.0
 10
23.32566493828751
 20
-7.879127161387423
 30
0.0
 10
23.32566493828751
 20
-7.872086247489444
 30
0.0
 10
23.32566493828751
 20
-7.872086247489444
 30
0.0
 10
22.34142268999841
 20
-8.228373716204625
 30
0.0
 10
21.50180985654946
 20
-8.990385773848323
 30
0.0
 10
21.11727260485523
 20
-9.971096799265039
 30
0.0
 10
20.71159107962028
 20
-10.98709852155878
 30
0.0
 10
20.89855210523543
 20
-12.18655157844208
 30
0.0
 10
21.51238199331982
 20
-13.07906815943639
 30
0.0
 10
21.70289577365414
 20
-13.36483882993787
 30
0.0
 10
22.02038285446669
 20
-13.53063405016552
 30
0.0
 10
22.21440632582661
 20
-13.81638318882021
 30
0.0
 10
22.15090890966409
 20
-13.97513749514988
 30
0.0
 10
22.08388027062921
 20
-14.13389180147954
 30
0.0
 10
22.02038285446669
 20
-14.29262457596243
 30
0.0
 10
21.79813113197452
 20
-14.27852121631969
 30
0.0
 10
21.55824482696721
 20
-14.27145877057493
 30
0.0
 10
21.37832471525004
 20
-14.1232981328624
 30
0.0
 10
20.7962543011703
 20
-13.67879468787804
 30
0.0
 10
20.47170477461298
 20
-12.99440493788638
 30
0.0
 10
20.23532816063127
 20
-12.32060885651186
 30
0.0
 10
20.19652777272865
 20
-12.13362629904993
 30
0.0
 10
20.15772738482602
 20
-11.95019649630715
 30
0.0
 10
20.11539577405101
 20
-11.76321393884522
 30
0.0
 10
19.22992010695467
 20
-12.01369391246967
 30
0.0
 10
18.4150043017656
 20
-12.52522599648892
 30
0.0
 10
17.79764319080884
 20
-13.20961574648058
 30
0.0
 10
17.7411866885443
 20
-13.27664438551547
 30
0.0
 10
17.67415804950941
 20
-13.32601691018846
 30
0.0
 10
17.59655727370416
 20
-13.36130760706549
 30
0.0
 10
17.38840891085472
 20
-13.41068013173847
 30
0.0
 10
17.18732299375004
 20
-13.34365149270358
 30
0.0
 10
16.98625860849215
 20
-13.30131988192858
 30
0.0
 10
16.30537854952608
 20
-13.13552466170093
 30
0.0
 10
15.57865718875941
 20
-13.3366105788056
 30
0.0
 10
14.99305555180729
 20
-13.69291957936757
 30
0.0
 10
15.30350171872187
 20
-13.74935454978532
 30
0.0
 10
15.61747910850882
 20
-13.89047427359986
 30
0.0
 10
15.931434966449
 20
-13.86930846821236
 30
0.0
 10
16.0407952162589
 20
-14.07039438531703
 30
0.0
 10
16.09372049565105
 20
-14.29262457596243
 30
0.0
 10
16.07608591313592
 20
-14.52193874419937
 30
0.0
 10
15.66685163318181
 20
-14.75125291243632
 30
0.0
 10
15.18354780029482
 20
-14.82179124249681
 30
0.0
 10
14.79903208044738
 20
-15.1075403811515
 30
0.0
 10
15.07771877335731
 20
-15.14989352377329
 30
0.0
 10
15.35642699811402
 20
-15.1957348255739
 30
0.0
 10
15.63511369102395
 20
-15.24866010496604
 30
0.0
 10
15.61041666276406
 20
-15.44974602207072
 30
0.0
 10
15.55398169234631
 20
-15.64376949343064
 30
0.0
 10
15.46578724792392
 20
-15.82722082802019
 30
0.0
 10
15.00364922042443
 20
-16.29289007839205
 30
0.0
 10
14.79550085757499
 20
-16.96315493689419
 30
0.0
 10
14.67554693914795
 20
-17.59817216221287
 30
0.0
 10
14.46035766240053
 20
-19.06924946626133
 30
0.0
 10
14.88369530199739
 20
-20.66028068873684
 30
0.0
 10
15.92086282967864
 20
-21.74682074109107
 30
0.0
 10
16.47825774734528
 20
-22.33948482378796
 30
0.0
 10
17.22614491349945
 20
-22.73461574409934
 30
0.0
 10
18.0234261361734
 20
-22.8968797414546
 30
0.0
 10
19.88961282868645
 20
-23.30962371243431
 30
0.0
 10
21.87222221675417
 20
-22.81574774277697
 30
0.0
 10
23.46325343922968
 20
-21.79268357473846
 30
0.0
 10
24.34872910632601
 20
-21.20355071491395
 30
0.0
 10
25.1812794940302
 20
-20.46623568553014
 30
0.0
 10
25.65752088117243
 20
-19.49609679688379
 30
0.0
 10
26.27841321500158
 20
-18.29666527184727
 30
0.0
 10
26.3807325509135
 20
-16.85732590995667
 30
0.0
 10
26.00676743598963
 20
-15.56616871762538
 30
0.0
 10
25.87624138079223
 20
-15.15340321479889
 30
0.0
 10
25.71044616056458
 20
-14.73008710704881
 30
0.0
 10
25.38589663400726
 20
-14.42668185403222
 30
0.0
 10
25.43175946765465
 20
-14.28205243919207
 30
0.0
 10
25.44233160442501
 20
-14.13389180147954
 30
0.0
 10
25.47055985555727
 20
-13.98570963192024
 30
0.0
 10
25.63282385291254
 20
-13.90104641037022
 30
0.0
 10
25.79864060498697
 20
-13.82344563456497
 30
0.0
 10
25.96443582521462
 20
-13.74229210404055
 30
0.0
 10
26.83227690979584
 20
-13.3366105788056
 30
0.0
 10
27.49196963152762
 20
-12.51816355074416
 30
0.0
 10
27.72832471366254
 20
-11.59035627287281
 30
0.0
 10
27.82358160382969
 20
-11.24110971805561
 30
0.0
 10
27.77418754730993
 20
-10.8742070488765
 30
0.0
 10
27.80241579844219
 20
-10.51438835728894
 30
0.0
 10
27.81651915808494
 20
-10.36622771957641
 30
0.0
 10
27.88707901999221
 20
-10.21100463611912
 30
0.0
 10
28.03877088057712
 20
-10.16161057959935
 30
0.0
 10
28.84311454899582
 20
-9.889964800587405
 30
0.0
 10
29.70389318783228
 20
-9.882902354842643
 30
0.0
 10
30.53291235266408
 20
-9.720638357487375
 30
0.0
 10
31.35842182647029
 20
-9.770032414007145
 30
0.0
 10
32.1874409913021
 20
-9.671244300967606
 30
0.0
 10
33.00941924223593
 20
-9.787666996522267
 30
0.0
 10
33.33749999166562
 20
-9.81587371580775
 30
0.0
 10
33.66204951822294
 20
-9.81587371580775
 30
0.0
 10
33.99013026765265
 20
-9.808832801909771
 30
0.0
 10
32.6248819905417
 20
-9.392557608057677
 30
0.0
 10
31.22789577127289
 20
-9.060945635755597
 30
0.0
 10
29.80619099189742
 20
-8.951585385945698
 30
0.0
  0
HATCH
  5
97
330
79
100
AcDbEntity
  8
Layer 1
 62
   232
420
 14750068
440
 33554687
100
AcDbHatch
 10
0.0
 20
0.0
 30
0.0
210
0.0
220
0.0
230
1.0
  2
SOLID
 70
     1
 71
     1
 91
        2
 92
        1
 93
        1
 72
     4
 94
        3
 73
     0
 74
     0
 95
       23
 96
       19
 40
0.0
 40
0.0
 40
0.0
 40
0.0
 40
1.0
 40
1.0
 40
1.0
 40
2.0
 40
2.0
 40
2.0
 40
3.0
 40
3.0
 40
3.0
 40
4.0
 40
4.0
 40
4.0
 40
5.0
 40
5.0
 40
5.0
 40
6.0
 40
6.0
 40
6.0
 40
6.0
 10
25.20244529941771
 20
-10.81070963271399
 10
24.9625589944104
 20
-11.09294908034308
 10
24.55332471445629
 20
-11.09998999424106
 10
24.23583763364373
 20
-10.95182935652853
 10
24.05238629905418
 20
-10.77897169055612
 10
23.90775688421403
 20
-10.53908538554882
 10
23.93245391247392
 20
-10.27450205228163
 10
23.93245391247392
 20
-10.27450205228163
 10
23.92892268960154
 20
-10.27097082940925
 10
23.92892268960154
 20
-10.27097082940925
 10
23.92892268960154
 20
-9.85822685842954
 10
24.33460421483649
 20
-9.516021217510317
 10
24.74030727191822
 20
-9.565415274030087
 10
25.01195305093018
 20
-9.600684439060332
 10
25.19891407654533
 20
-9.81587371580775
 10
25.38589663400726
 20
-9.992262604652541
 10
25.38236541113488
 20
-10.27097082940925
 10
25.43526915868025
 20
-10.60258280171133
 10
25.20244529941771
 20
-10.81070963271399
 97
        0
 97
        1
330
95
 92
        1
 93
        1
 72
     4
 94
        3
 73
     0
 74
     0
 95
      116
 96
      112
 40
0.0
 40
0.0
 40
0.0
 40
0.0
 40
1.0
 40
1.0
 40
1.0
 40
2.0
 40
2.0
 40
2.0
 40
3.0
 40
3.0
 40
3.0
 40
4.0
 40
4.0
 40
4.0
 40
5.0
 40
5.0
 40
5.0
 40
6.0
 40
6.0
 40
6.0
 40
7.0
 40
7.0
 40
7.0
 40
8.0
 40
8.0
 40
8.0
 40
9.0
 40
9.0
 40
9.0
 40
10.0
 40
10.0
 40
10.0
 40
11.0
 40
11.0
 40
11.0
 40
12.0
 40
12.0
 40
12.0
 40
13.0
 40
13.0
 40
13.0
 40
14.0
 40
14.0
 40
14.0
 40
15.0
 40
15.0
 40
15.0
 40
16.0
 40
16.0
 40
16.0
 40
17.0
 40
17.0
 40
17.0
 40
18.0
 40
18.0
 40
18.0
 40
19.0
 40
19.0
 40
19.0
 40
20.0
 40
20.0
 40
20.0
 40
21.0
 40
21.0
 40
21.0
 40
22.0
 40
22.0
 40
22.0
 40
23.0
 40
23.0
 40
23.0
 40
24.0
 40
24.0
 40
24.0
 40
25.0
 40
25.0
 40
25.0
 40
26.0
 40
26.0
 40
26.0
 40
27.0
 40
27.0
 40
27.0
 40
28.0
 40
28.0
 40
28.0
 40
29.0
 40
29.0
 40
29.0
 40
30.0
 40
30.0
 40
30.0
 40
31.0
 40
31.0
 40
31.0
 40
32.0
 40
32.0
 40
32.0
 40
33.0
 40
33.0
 40
33.0
 40
34.0
 40
34.0
 40
34.0
 40
35.0
 40
35.0
 40
35.0
 40
36.0
 40
36.0
 40
36.0
 40
37.0
 40
37.0
 40
37.0
 40
37.0
 10
29.80619099189742
 20
-8.951585385945698
 10
29.16413285268076
 20
-8.849266050033778
 10
28.50797135382136
 20
-8.91982591194105
 10
27.86238199173233
 20
-8.877494301166043
 10
27.71069013114742
 20
-8.789299856743648
 10
27.59075774456716
 20
-8.658773801546244
 10
27.45670046649737
 20
-8.549413551736344
 10
26.93457471386098
 20
-8.073172164594121
 10
26.26077863248646
 20
-7.783891803067048
 10
25.56932643675003
 20
-7.660406661767624
 10
24.81790804772348
 20
-7.600440468477493
 10
24.03828293941144
 20
-7.593378022732732
 10
23.32566493828751
 20
-7.879127161387423
 10
23.32566493828751
 20
-7.879127161387423
 10
23.32566493828751
 20
-7.872086247489444
 10
23.32566493828751
 20
-7.872086247489444
 10
22.34142268999841
 20
-8.228373716204625
 10
21.50180985654946
 20
-8.990385773848323
 10
21.11727260485523
 20
-9.971096799265039
 10
20.71159107962028
 20
-10.98709852155878
 10
20.89855210523543
 20
-12.18655157844208
 10
21.51238199331982
 20
-13.07906815943639
 10
21.70289577365414
 20
-13.36483882993787
 10
22.02038285446669
 20
-13.53063405016552
 10
22.21440632582661
 20
-13.81638318882021
 10
22.15090890966409
 20
-13.97513749514988
 10
22.08388027062921
 20
-14.13389180147954
 10
22.02038285446669
 20
-14.29262457596243
 10
21.79813113197452
 20
-14.27852121631969
 10
21.55824482696721
 20
-14.27145877057493
 10
21.37832471525004
 20
-14.1232981328624
 10
20.7962543011703
 20
-13.67879468787804
 10
20.47170477461298
 20
-12.99440493788638
 10
20.23532816063127
 20
-12.32060885651186
 10
20.19652777272865
 20
-12.13362629904993
 10
20.15772738482602
 20
-11.95019649630715
 10
20.11539577405101
 20
-11.76321393884522
 10
19.22992010695467
 20
-12.01369391246967
 10
18.4150043017656
 20
-12.52522599648892
 10
17.79764319080884
 20
-13.20961574648058
 10
17.7411866885443
 20
-13.27664438551547
 10
17.67415804950941
 20
-13.32601691018846
 10
17.59655727370416
 20
-13.36130760706549
 10
17.38840891085472
 20
-13.41068013173847
 10
17.18732299375004
 20
-13.34365149270358
 10
16.98625860849215
 20
-13.30131988192858
 10
16.30537854952608
 20
-13.13552466170093
 10
15.57865718875941
 20
-13.3366105788056
 10
14.99305555180729
 20
-13.69291957936757
 10
15.30350171872187
 20
-13.74935454978532
 10
15.61747910850882
 20
-13.89047427359986
 10
15.931434966449
 20
-13.86930846821236
 10
16.0407952162589
 20
-14.07039438531703
 10
16.09372049565105
 20
-14.29262457596243
 10
16.07608591313592
 20
-14.52193874419937
 10
15.66685163318181
 20
-14.75125291243632
 10
15.18354780029482
 20
-14.82179124249681
 10
14.79903208044738
 20
-15.1075403811515
 10
15.07771877335731
 20
-15.14989352377329
 10
15.35642699811402
 20
-15.1957348255739
 10
15.63511369102395
 20
-15.24866010496604
 10
15.61041666276406
 20
-15.44974602207072
 10
15.55398169234631
 20
-15.64376949343064
 10
15.46578724792392
 20
-15.82722082802019
 10
15.00364922042443
 20
-16.29289007839205
 10
14.79550085757499
 20
-16.96315493689419
 10
14.67554693914795
 20
-17.59817216221287
 10
14.46035766240053
 20
-19.06924946626133
 10
14.88369530199739
 20
-20.66028068873684
 10
15.92086282967864
 20
-21.74682074109107
 10
16.47825774734528
 20
-22.33948482378796
 10
17.22614491349945
 20
-22.73461574409934
 10
18.0234261361734
 20
-22.8968797414546
 10
19.88961282868645
 20
-23.30962371243431
 10
21.87222221675417
 20
-22.81574774277697
 10
23.46325343922968
 20
-21.79268357473846
 10
24.34872910632601
 20
-21.20355071491395
 10
25.1812794940302
 20
-20.46623568553014
 10
25.65752088117243
 20
-19.49609679688379
 10
26.27841321500158
 20
-18.29666527184727
 10
26.3807325509135
 20
-16.85732590995667
 10
26.00676743598963
 20
-15.56616871762538
 10
25.87624138079223
 20
-15.15340321479889
 10
25.71044616056458
 20
-14.73008710704881
 10
25.38589663400726
 20
-14.42668185403222
 10
25.43175946765465
 20
-14.28205243919207
 10
25.44233160442501
 20
-14.13389180147954
 10
25.47055985555727
 20
-13.98570963192024
 10
25.63282385291254
 20
-13.90104641037022
 10
25.79864060498697
 20
-13.82344563456497
 10
25.96443582521462
 20
-13.74229210404055
 10
26.83227690979584
 20
-13.3366105788056
 10
27.49196963152762
 20
-12.51816355074416
 10
27.72832471366254
 20
-11.59035627287281
 10
27.82358160382969
 20
-11.24110971805561
 10
27.77418754730993
 20
-10.8742070488765
 10
27.80241579844219
 20
-10.51438835728894
 10
27.81651915808494
 20
-10.36622771957641
 10
27.88707901999221
 20
-10.21100463611912
 10
28.03877088057712
 20
-10.16161057959935
 10
28.84311454899582
 20
-9.889964800587405
 10
29.70389318783228
 20
-9.882902354842643
 10
30.53291235266408
 20
-9.720638357487375
 10
31.35842182647029
 20
-9.770032414007145
 10
32.1874409913021
 20
-9.671244300967606
 10
33.00941924223593
 20
-9.787666996522267
 10
33.33749999166562
 20
-9.81587371580775
 10
33.66204951822294
 20
-9.81587371580775
 10
33.99013026765265
 20
-9.808832801909771
 10
32.6248819905417
 20
-9.392557608057677
 10
31.22789577127289
 20
-9.060945635755597
 10
29.80619099189742
 20
-8.951585385945698
 97
        0
 97
        1
330
96
 75
     2
 76
     1
 98
        1
 10
0.0
 20
0.0
450
        0
451
        0
460
0.0
461
0.0
452
        0
462
0.0
453
        0
470

  0
SPLINE
  5
98
330
79
100
AcDbEntity
  8
Layer 1
100
AcDbSpline
210
0.0
220
0.0
230
1.0
 70
     9
 71
     3
 72
    23
 73
    19
 74
     0
 42
0.0000000001
 43
0.0000000001
 40
0.0
 40
0.0
 40
0.0
 40
0.0
 40
1.0
 40
1.0
 40
1.0
 40
2.0
 40
2.0
 40
2.0
 40
3.0
 40
3.0
 40
3.0
 40
4.0
 40
4.0
 40
4.0
 40
5.0
 40
5.0
 40
5.0
 40
6.0
 40
6.0
 40
6.0
 40
6.0
 10
25.20244529941771
 20
-10.81070963271399
 30
0.0
 10
24.9625589944104
 20
-11.09294908034308
 30
0.0
 10
24.55332471445629
 20
-11.09998999424106
 30
0.0
 10
24.23583763364373
 20
-10.95182935652853
 30
0.0
 10
24.05238629905418
 20
-10.77897169055612
 30
0.0
 10
23.90775688421403
 20
-10.53908538554882
 30
0.0
 10
23.93245391247392
 20
-10.27450205228163
 30
0.0
 10
23.93245391247392
 20
-10.27450205228163
 30
0.0
 10
23.92892268960154
 20
-10.27097082940925
 30
0.0
 10
23.92892268960154
 20
-10.27097082940925
 30
0.0
 10
23.92892268960154
 20
-9.85822685842954
 30
0.0
 10
24.33460421483649
 20
-9.516021217510317
 30
0.0
 10
24.74030727191822
 20
-9.565415274030087
 30
0.0
 10
25.01195305093018
 20
-9.600684439060332
 30
0.0
 10
25.19891407654533
 20
-9.81587371580775
 30
0.0
 10
25.38589663400726
 20
-9.992262604652541
 30
0.0
 10
25.38236541113488
 20
-10.27097082940925
 30
0.0
 10
25.43526915868025
 20
-10.60258280171133
 30
0.0
 10
25.20244529941771
 20
-10.81070963271399
 30
0.0
  0
SPLINE
  5
99
330
79
100
AcDbEntity
  8
Layer 1
100
AcDbSpline
210
0.0
220
0.0
230
1.0
 70
     9
 71
     3
 72
    14
 73
    10
 74
     0
 42
0.0000000001
 43
0.0000000001
 40
0.0
 40
0.0
 40
0.0
 40
0.0
 40
1.0
 40
1.0
 40
1.0
 40
2.0
 40
2.0
 40
2.0
 40
3.0
 40
3.0
 40
3.0
 40
3.0
 10
30.5675909926607
 20
-13.58472121475049
 30
0.0
 10
30.58170242674599
 20
-13.10847108029551
 30
0.0
 10
31.10734056188884
 20
-12.73452682434821
 30
0.0
 10
31.55889568669457
 20
-12.9285543329294
 30
0.0
 10
31.53420134991553
 20
-13.04144311413083
 30
0.0
 10
31.54831278400081
 20
-13.16844332941755
 30
0.0
 10
31.48481267635745
 20
-13.27427639357634
 30
0.0
 10
31.21317497178805
 20
-13.45772099946377
 30
0.0
 10
30.8850915308775
 20
-13.52827615127956
 30
0.0
 10
30.5675909926607
 20
-13.58472121475049
 30
0.0
  0
HATCH
  5
9A
330
79
100
AcDbEntity
  8
Layer 1
 62
     2
420
 16050715
440
 33554687
100
AcDbHatch
 10
0.0
 20
0.0
 30
0.0
210
0.0
220
0.0
230
1.0
  2
SOLID
 70
     1
 71
     1
 91
        1
 92
        1
 93
        1
 72
     4
 94
        3
 73
     0
 74
     0
 95
       14
 96
       10
 40
0.0
 40
0.0
 40
0.0
 40
0.0
 40
1.0
 40
1.0
 40
1.0
 40
2.0
 40
2.0
 40
2.0
 40
3.0
 40
3.0
 40
3.0
 40
3.0
 10
30.5675909926607
 20
-13.58472121475049
 10
30.58170242674599
 20
-13.10847108029551
 10
31.10734056188884
 20
-12.73452682434821
 10
31.55889568669457
 20
-12.9285543329294
 10
31.53420134991553
 20
-13.04144311413083
 10
31.54831278400081
 20
-13.16844332941755
 10
31.48481267635745
 20
-13.27427639357634
 10
31.21317497178805
 20
-13.45772099946377
 10
30.8850915308775
 20
-13.52827615127956
 10
30.5675909926607
 20
-13.58472121475049
 97
        0
 97
        1
330
99
 75
     2
 76
     1
 98
        1
 10
0.0
 20
0.0
450
        0
451
        0
460
0.0
461
0.0
452
        0
462
0.0
453
        0
470

  0
SPLINE
  5
9B
330
79
100
AcDbEntity
  8
Layer 1
100
AcDbSpline
210
0.0
220
0.0
230
1.0
 70
     9
 71
     3
 72
    59
 73
    55
 74
     0
 42
0.0000000001
 43
0.0000000001
 40
0.0
 40
0.0
 40
0.0
 40
0.0
 40
1.0
 40
1.0
 40
1.0
 40
2.0
 40
2.0
 40
2.0
 40
3.0
 40
3.0
 40
3.0
 40
4.0
 40
4.0
 40
4.0
 40
5.0
 40
5.0
 40
5.0
 40
6.0
 40
6.0
 40
6.0
 40
7.0
 40
7.0
 40
7.0
 40
8.0
 40
8.0
 40
8.0
 40
9.0
 40
9.0
 40
9.0
 40
10.0
 40
10.0
 40
10.0
 40
11.0
 40
11.0
 40
11.0
 40
12.0
 40
12.0
 40
12.0
 40
13.0
 40
13.0
 40
13.0
 40
14.0
 40
14.0
 40
14.0
 40
15.0
 40
15.0
 40
15.0
 40
16.0
 40
16.0
 40
16.0
 40
17.0
 40
17.0
 40
17.0
 40
18.0
 40
18.0
 40
18.0
 40
18.0
 10
27.94645199676787
 20
-13.07319316795251
 30
0.0
 10
28.38036984757763
 20
-13.29897073035537
 30
0.0
 10
28.78253629882529
 20
-13.61999845422328
 30
0.0
 10
29.00478532983662
 20
-14.06097067633526
 30
0.0
 10
29.12472848234027
 20
-14.29380395578077
 30
0.0
 10
29.10003414556123
 20
-14.56191514756927
 30
0.0
 10
29.16353425320459
 20
-14.80533200257875
 30
0.0
 10
29.61861790940186
 20
-15.03816528202425
 30
0.0
 10
30.19717324949431
 20
-15.02405452080918
 30
0.0
 10
30.57111683257139
 20
-15.40858235232044
 30
0.0
 10
30.70869995055186
 20
-15.51794394787077
 30
0.0
 10
30.76867152680369
 20
-15.76488731566113
 30
0.0
 10
30.61345113482725
 20
-15.88483181390521
 30
0.0
 10
30.30653349930421
 20
-16.17763801534297
 30
0.0
 10
29.86908980858376
 20
-16.2905267965444
 30
0.0
 10
29.57275776723532
 20
-16.59391455493549
 30
0.0
 10
29.32228586805342
 20
-16.88672075637325
 30
0.0
 10
29.20939708685198
 20
-17.28183149057826
 30
0.0
 10
29.19528565276669
 20
-17.66283079069799
 30
0.0
 10
29.17764568728987
 20
-18.01913575403868
 30
0.0
 10
29.30817443396813
 20
-18.36133062903451
 30
0.0
 10
29.29406299988285
 20
-18.71763693811563
 30
0.0
 10
29.11767411103805
 20
-18.90813726104571
 30
0.0
 10
28.86014514907308
 20
-18.99280317407657
 30
0.0
 10
28.64142464945328
 20
-19.12685910640593
 30
0.0
 10
28.68375895170914
 20
-19.32088661498712
 30
0.0
 10
28.75078489926318
 20
-19.5149141235683
 30
0.0
 10
28.90247945132894
 20
-19.6524985872892
 30
0.0
 10
29.02947966661566
 20
-19.78655451961856
 30
0.0
 10
29.23409142363102
 20
-19.98058202819974
 30
0.0
 10
29.07181396887151
 20
-20.16755381973829
 30
0.0
 10
28.77548192752307
 20
-20.44272005569923
 30
0.0
 10
28.32039827132581
 20
-20.37569276240476
 30
0.0
 10
27.98525776763219
 20
-20.5803031736797
 30
0.0
 10
27.76300873662086
 20
-20.67555333514473
 30
0.0
 10
27.8088688787874
 20
-20.95424810249721
 30
0.0
 10
27.74889730253557
 20
-21.14474707968686
 30
0.0
 10
27.67481429219846
 20
-21.56808068206244
 30
0.0
 10
27.31497945172581
 20
-21.91027555705828
 30
0.0
 10
26.88811866369912
 20
-21.97024713331011
 30
0.0
 10
26.2284232504865
 20
-22.06196876338361
 30
0.0
 10
25.55461909466943
 20
-21.93496989383731
 30
0.0
 10
24.92667508101891
 20
-21.73388666821348
 30
0.0
 10
25.67809077856461
 20
-21.07419260074128
 30
0.0
 10
26.29545188952139
 20
-20.25574826416068
 30
0.0
 10
26.64470382730029
 20
-19.31383089794447
 30
0.0
 10
27.24442497278023
 20
-17.75102523512039
 30
0.0
 10
27.17387049383466
 20
-15.95538629285079
 30
0.0
 10
26.46831493845549
 20
-14.43844211793367
 30
0.0
 10
27.05392734133101
 20
-14.09624791580805
 30
0.0
 10
27.57250841369078
 20
-13.64116425961078
 30
0.0
 10
27.9499805281594
 20
-13.07319249508229
 30
0.0
 10
27.9499805281594
 20
-13.07319249508229
 30
0.0
 10
27.94645199676787
 20
-13.07319316795251
 30
0.0
 10
27.94645199676787
 20
-13.07319316795251
 30
0.0
  0
HATCH
  5
9C
330
79
100
AcDbEntity
  8
Layer 1
 62
     2
420
 16050715
440
 33554687
100
AcDbHatch
 10
0.0
 20
0.0
 30
0.0
210
0.0
220
0.0
230
1.0
  2
SOLID
 70
     1
 71
     1
 91
        1
 92
        1
 93
        1
 72
     4
 94
        3
 73
     0
 74
     0
 95
       59
 96
       55
 40
0.0
 40
0.0
 40
0.0
 40
0.0
 40
1.0
 40
1.0
 40
1.0
 40
2.0
 40
2.0
 40
2.0
 40
3.0
 40
3.0
 40
3.0
 40
4.0
 40
4.0
 40
4.0
 40
5.0
 40
5.0
 40
5.0
 40
6.0
 40
6.0
 40
6.0
 40
7.0
 40
7.0
 40
7.0
 40
8.0
 40
8.0
 40
8.0
 40
9.0
 40
9.0
 40
9.0
 40
10.0
 40
10.0
 40
10.0
 40
11.0
 40
11.0
 40
11.0
 40
12.0
 40
12.0
 40
12.0
 40
13.0
 40
13.0
 40
13.0
 40
14.0
 40
14.0
 40
14.0
 40
15.0
 40
15.0
 40
15.0
 40
16.0
 40
16.0
 40
16.0
 40
17.0
 40
17.0
 40
17.0
 40
18.0
 40
18.0
 40
18.0
 40
18.0
 10
27.94645199676787
 20
-13.07319316795251
 10
28.38036984757763
 20
-13.29897073035537
 10
28.78253629882529
 20
-13.61999845422328
 10
29.00478532983662
 20
-14.06097067633526
 10
29.12472848234027
 20
-14.29380395578077
 10
29.10003414556123
 20
-14.56191514756927
 10
29.16353425320459
 20
-14.80533200257875
 10
29.61861790940186
 20
-15.03816528202425
 10
30.19717324949431
 20
-15.02405452080918
 10
30.57111683257139
 20
-15.40858235232044
 10
30.70869995055186
 20
-15.51794394787077
 10
30.76867152680369
 20
-15.76488731566113
 10
30.61345113482725
 20
-15.88483181390521
 10
30.30653349930421
 20
-16.17763801534297
 10
29.86908980858376
 20
-16.2905267965444
 10
29.57275776723532
 20
-16.59391455493549
 10
29.32228586805342
 20
-16.88672075637325
 10
29.20939708685198
 20
-17.28183149057826
 10
29.19528565276669
 20
-17.66283079069799
 10
29.17764568728987
 20
-18.01913575403868
 10
29.30817443396813
 20
-18.36133062903451
 10
29.29406299988285
 20
-18.71763693811563
 10
29.11767411103805
 20
-18.90813726104571
 10
28.86014514907308
 20
-18.99280317407657
 10
28.64142464945328
 20
-19.12685910640593
 10
28.68375895170914
 20
-19.32088661498712
 10
28.75078489926318
 20
-19.5149141235683
 10
28.90247945132894
 20
-19.6524985872892
 10
29.02947966661566
 20
-19.78655451961856
 10
29.23409142363102
 20
-19.98058202819974
 10
29.07181396887151
 20
-20.16755381973829
 10
28.77548192752307
 20
-20.44272005569923
 10
28.32039827132581
 20
-20.37569276240476
 10
27.98525776763219
 20
-20.5803031736797
 10
27.76300873662086
 20
-20.67555333514473
 10
27.8088688787874
 20
-20.95424810249721
 10
27.74889730253557
 20
-21.14474707968686
 10
27.67481429219846
 20
-21.56808068206244
 10
27.31497945172581
 20
-21.91027555705828
 10
26.88811866369912
 20
-21.97024713331011
 10
26.2284232504865
 20
-22.06196876338361
 10
25.55461909466943
 20
-21.93496989383731
 10
24.92667508101891
 20
-21.73388666821348
 10
25.67809077856461
 20
-21.07419260074128
 10
26.29545188952139
 20
-20.25574826416068
 10
26.64470382730029
 20
-19.31383089794447
 10
27.24442497278023
 20
-17.75102523512039
 10
27.17387049383466
 20
-15.95538629285079
 10
26.46831493845549
 20
-14.43844211793367
 10
27.05392734133101
 20
-14.09624791580805
 10
27.57250841369078
 20
-13.64116425961078
 10
27.9499805281594
 20
-13.07319249508229
 10
27.9499805281594
 20
-13.07319249508229
 10
27.94645199676787
 20
-13.07319316795251
 10
27.94645199676787
 20
-13.07319316795251
 97
        0
 97
        1
330
9B
 75
     2
 76
     1
 98
        1
 10
0.0
 20
0.0
450
        0
451
        0
460
0.0
461
0.0
452
        0
462
0.0
453
        0
470

  0
SPLINE
  5
9D
330
79
100
AcDbEntity
  8
Layer 1
100
AcDbSpline
210
0.0
220
0.0
230
1.0
 70
     9
 71
     3
 72
    17
 73
    13
 74
     0
 42
0.0000000001
 43
0.0000000001
 40
0.0
 40
0.0
 40
0.0
 40
0.0
 40
1.0
 40
1.0
 40
1.0
 40
2.0
 40
2.0
 40
2.0
 40
3.0
 40
3.0
 40
3.0
 40
4.0
 40
4.0
 40
4.0
 40
4.0
 10
33.53445070346006
 20
-14.56897086461192
 30
0.0
 10
33.83783980759157
 20
-14.45255422488916
 30
0.0
 10
34.21531192206019
 20
-14.43138774663145
 30
0.0
 10
34.46931235263363
 20
-14.66774888459827
 30
0.0
 10
34.67039557825746
 20
-14.81944343666403
 30
0.0
 10
34.67039557825746
 20
-15.18985983409001
 30
0.0
 10
34.41639514768402
 20
-15.29216571259769
 30
0.0
 10
33.90133991523493
 20
-15.53558256760716
 30
0.0
 10
33.25575593610759
 20
-15.65905425150235
 30
0.0
 10
32.72306073818168
 20
-15.39447091823516
 30
0.0
 10
32.68425496731736
 20
-14.91822078378018
 30
0.0
 10
33.15697858899144
 20
-14.69949893841995
 30
0.0
 10
33.53445070346006
 20
-14.56897086461192
 30
0.0
  0
HATCH
  5
9E
330
79
100
AcDbEntity
  8
Layer 1
 62
     2
420
 16050715
440
 33554687
100
AcDbHatch
 10
0.0
 20
0.0
 30
0.0
210
0.0
220
0.0
230
1.0
  2
SOLID
 70
     1
 71
     1
 91
        1
 92
        1
 93
        1
 72
     4
 94
        3
 73
     0
 74
     0
 95
       17
 96
       13
 40
0.0
 40
0.0
 40
0.0
 40
0.0
 40
1.0
 40
1.0
 40
1.0
 40
2.0
 40
2.0
 40
2.0
 40
3.0
 40
3.0
 40
3.0
 40
4.0
 40
4.0
 40
4.0
 40
4.0
 10
33.53445070346006
 20
-14.56897086461192
 10
33.83783980759157
 20
-14.45255422488916
 10
34.21531192206019
 20
-14.43138774663145
 10
34.46931235263363
 20
-14.66774888459827
 10
34.67039557825746
 20
-14.81944343666403
 10
34.67039557825746
 20
-15.18985983409001
 10
34.41639514768402
 20
-15.29216571259769
 10
33.90133991523493
 20
-15.53558256760716
 10
33.25575593610759
 20
-15.65905425150235
 10
32.72306073818168
 20
-15.39447091823516
 10
32.68425496731736
 20
-14.91822078378018
 10
33.15697858899144
 20
-14.69949893841995
 10
33.53445070346006
 20
-14.56897086461192
 97
        0
 97
        1
330
9D
 75
     2
 76
     1
 98
        1
 10
0.0
 20
0.0
450
        0
451
        0
460
0.0
461
0.0
452
        0
462
0.0
453
        0
470

  0
SPLINE
  5
9F
330
79
100
AcDbEntity
  8
Layer 1
100
AcDbSpline
210
0.0
220
0.0
230
1.0
 70
     9
 71
     3
 72
    17
 73
    13
 74
     0
 42
0.0000000001
 43
0.0000000001
 40
0.0
 40
0.0
 40
0.0
 40
0.0
 40
1.0
 40
1.0
 40
1.0
 40
2.0
 40
2.0
 40
2.0
 40
3.0
 40
3.0
 40
3.0
 40
4.0
 40
4.0
 40
4.0
 40
4.0
 10
30.46881364554456
 20
-17.83216530824056
 30
0.0
 10
30.57817389535446
 20
-17.4476374767293
 30
0.0
 10
31.00856321477269
 20
-17.5393591068028
 30
0.0
 10
31.3119523189042
 20
-17.57110916062448
 30
0.0
 10
31.53772988130706
 20
-17.58874778036088
 30
0.0
 10
31.80937027735732
 20
-17.64872070235313
 30
0.0
 10
31.91167346438415
 20
-17.88155398179864
 30
0.0
 10
31.93989633255472
 20
-18.015609914128
 30
0.0
 10
31.93989633255472
 20
-18.15319303210847
 30
0.0
 10
31.94695070385694
 20
-18.29077615008894
 30
0.0
 10
31.39661823193506
 20
-18.44952641919733
 30
0.0
 10
30.94858894704001
 20
-18.01913709977911
 30
0.0
 10
30.46881364554456
 20
-17.83216530824056
 30
0.0
  0
HATCH
  5
A0
330
79
100
AcDbEntity
  8
Layer 1
 62
     2
420
 16050715
440
 33554687
100
AcDbHatch
 10
0.0
 20
0.0
 30
0.0
210
0.0
220
0.0
230
1.0
  2
SOLID
 70
     1
 71
     1
 91
        1
 92
        1
 93
        1
 72
     4
 94
        3
 73
     0
 74
     0
 95
       17
 96
       13
 40
0.0
 40
0.0
 40
0.0
 40
0.0
 40
1.0
 40
1.0
 40
1.0
 40
2.0
 40
2.0
 40
2.0
 40
3.0
 40
3.0
 40
3.0
 40
4.0
 40
4.0
 40
4.0
 40
4.0
 10
30.46881364554456
 20
-17.83216530824056
 10
30.57817389535446
 20
-17.4476374767293
 10
31.00856321477269
 20
-17.5393591068028
 10
31.3119523189042
 20
-17.57110916062448
 10
31.53772988130706
 20
-17.58874778036088
 10
31.80937027735732
 20
-17.64872070235313
 10
31.91167346438415
 20
-17.88155398179864
 10
31.93989633255472
 20
-18.015609914128
 10
31.93989633255472
 20
-18.15319303210847
 10
31.94695070385694
 20
-18.29077615008894
 10
31.39661823193506
 20
-18.44952641919733
 10
30.94858894704001
 20
-18.01913709977911
 10
30.46881364554456
 20
-17.83216530824056
 97
        0
 97
        1
330
9F
 75
     2
 76
     1
 98
        1
 10
0.0
 20
0.0
450
        0
451
        0
460
0.0
461
0.0
452
        0
462
0.0
453
        0
470

  0
SPLINE
  5
A1
330
79
100
AcDbEntity
  8
Layer 1
100
AcDbSpline
210
0.0
220
0.0
230
1.0
 70
     9
 71
     3
 72
    14
 73
    10
 74
     0
 42
0.0000000001
 43
0.0000000001
 40
0.0
 40
0.0
 40
0.0
 40
0.0
 40
1.0
 40
1.0
 40
1.0
 40
2.0
 40
2.0
 40
2.0
 40
3.0
 40
3.0
 40
3.0
 40
3.0
 10
33.35100744331305
 20
-17.85333245936849
 30
0.0
 10
33.50623052677034
 20
-17.8568596450196
 30
0.0
 10
33.66850798152984
 20
-17.8392210252832
 30
0.0
 10
33.81667400220407
 20
-17.88860969884128
 30
0.0
 10
33.88722848114964
 20
-17.97327695761256
 30
0.0
 10
33.94367421749079
 20
-18.06499858768607
 30
0.0
 10
34.00717432513415
 20
-18.16024874915111
 30
0.0
 10
33.74259099186696
 20
-18.16377593480222
 30
0.0
 10
33.47095328729755
 20
-18.11791579263568
 30
0.0
 10
33.35100744331305
 20
-17.85333245936849
 30
0.0
  0
HATCH
  5
A2
330
79
100
AcDbEntity
  8
Layer 1
 62
     2
420
 16050715
440
 33554687
100
AcDbHatch
 10
0.0
 20
0.0
 30
0.0
210
0.0
220
0.0
230
1.0
  2
SOLID
 70
     1
 71
     1
 91
        1
 92
        1
 93
        1
 72
     4
 94
        3
 73
     0
 74
     0
 95
       14
 96
       10
 40
0.0
 40
0.0
 40
0.0
 40
0.0
 40
1.0
 40
1.0
 40
1.0
 40
2.0
 40
2.0
 40
2.0
 40
3.0
 40
3.0
 40
3.0
 40
3.0
 10
33.35100744331305
 20
-17.85333245936849
 10
33.50623052677034
 20
-17.8568596450196
 10
33.66850798152984
 20
-17.8392210252832
 10
33.81667400220407
 20
-17.88860969884128
 10
33.88722848114964
 20
-17.97327695761256
 10
33.94367421749079
 20
-18.06499858768607
 10
34.00717432513415
 20
-18.16024874915111
 10
33.74259099186696
 20
-18.16377593480222
 10
33.47095328729755
 20
-18.11791579263568
 10
33.35100744331305
 20
-17.85333245936849
 97
        0
 97
        1
330
A1
 75
     2
 76
     1
 98
        1
 10
0.0
 20
0.0
450
        0
451
        0
460
0.0
461
0.0
452
        0
462
0.0
453
        0
470

  0
SPLINE
  5
A3
330
79
100
AcDbEntity
  8
Layer 1
100
AcDbSpline
210
0.0
220
0.0
230
1.0
 70
     9
 71
     3
 72
    23
 73
    19
 74
     0
 42
0.0000000001
 43
0.0000000001
 40
0.0
 40
0.0
 40
0.0
 40
0.0
 40
1.0
 40
1.0
 40
1.0
 40
2.0
 40
2.0
 40
2.0
 40
3.0
 40
3.0
 40
3.0
 40
4.0
 40
4.0
 40
4.0
 40
5.0
 40
5.0
 40
5.0
 40
6.0
 40
6.0
 40
6.0
 40
6.0
 10
31.41778403732256
 20
-19.51844400070026
 30
0.0
 10
31.80936758587647
 20
-19.41613812219258
 30
0.0
 10
32.26445124207373
 20
-19.44788817601426
 30
0.0
 10
32.59253468298428
 20
-19.69836007519616
 30
0.0
 10
32.76539504043753
 20
-19.85005462726191
 30
0.0
 10
32.94531246067386
 20
-20.13580511165703
 30
0.0
 10
32.74775776644157
 20
-20.34041552293197
 30
0.0
 10
32.35617421788766
 20
-20.48505435795508
 30
0.0
 10
31.92225905855875
 20
-20.37569276240476
 30
0.0
 10
31.5412584126986
 20
-20.25222107850957
 30
0.0
 10
31.35075808976852
 20
-20.17460953678093
 30
0.0
 10
31.0826462251098
 20
-20.06524928697103
 30
0.0
 10
31.07559185380758
 20
-19.82536029048288
 30
0.0
 10
31.05089751702854
 20
-19.6348599675528
 30
0.0
 10
31.26962070812919
 20
-19.5643041428668
 30
0.0
 10
31.41425819741188
 20
-19.51844400070026
 30
0.0
 10
31.41425819741188
 20
-19.51844400070026
 30
0.0
 10
31.41778403732256
 20
-19.51844400070026
 30
0.0
 10
31.41778403732256
 20
-19.51844400070026
 30
0.0
  0
HATCH
  5
A4
330
79
100
AcDbEntity
  8
Layer 1
 62
     2
420
 16050715
440
 33554687
100
AcDbHatch
 10
0.0
 20
0.0
 30
0.0
210
0.0
220
0.0
230
1.0
  2
SOLID
 70
     1
 71
     1
 91
        1
 92
        1
 93
        1
 72
     4
 94
        3
 73
     0
 74
     0
 95
       23
 96
       19
 40
0.0
 40
0.0
 40
0.0
 40
0.0
 40
1.0
 40
1.0
 40
1.0
 40
2.0
 40
2.0
 40
2.0
 40
3.0
 40
3.0
 40
3.0
 40
4.0
 40
4.0
 40
4.0
 40
5.0
 40
5.0
 40
5.0
 40
6.0
 40
6.0
 40
6.0
 40
6.0
 10
31.41778403732256
 20
-19.51844400070026
 10
31.80936758587647
 20
-19.41613812219258
 10
32.26445124207373
 20
-19.44788817601426
 10
32.59253468298428
 20
-19.69836007519616
 10
32.76539504043753
 20
-19.85005462726191
 10
32.94531246067386
 20
-20.13580511165703
 10
32.74775776644157
 20
-20.34041552293197
 10
32.35617421788766
 20
-20.48505435795508
 10
31.92225905855875
 20
-20.37569276240476
 10
31.5412584126986
 20
-20.25222107850957
 10
31.35075808976852
 20
-20.17460953678093
 10
31.0826462251098
 20
-20.06524928697103
 10
31.07559185380758
 20
-19.82536029048288
 10
31.05089751702854
 20
-19.6348599675528
 10
31.26962070812919
 20
-19.5643041428668
 10
31.41425819741188
 20
-19.51844400070026
 10
31.41425819741188
 20
-19.51844400070026
 10
31.41778403732256
 20
-19.51844400070026
 10
31.41778403732256
 20
-19.51844400070026
 97
        0
 97
        1
330
A3
 75
     2
 76
     1
 98
        1
 10
0.0
 20
0.0
450
        0
451
        0
460
0.0
461
0.0
452
        0
462
0.0
453
        0
470

  0
SPLINE
  5
A5
330
79
100
AcDbEntity
  8
Layer 1
100
AcDbSpline
210
0.0
220
0.0
230
1.0
 70
     9
 71
     3
 72
    17
 73
    13
 74
     0
 42
0.0000000001
 43
0.0000000001
 40
0.0
 40
0.0
 40
0.0
 40
0.0
 40
1.0
 40
1.0
 40
1.0
 40
2.0
 40
2.0
 40
2.0
 40
3.0
 40
3.0
 40
3.0
 40
4.0
 40
4.0
 40
4.0
 40
4.0
 10
29.79853532963818
 20
-20.98952668771042
 30
0.0
 10
30.22892464905641
 20
-20.97188806797403
 30
0.0
 10
30.50761941640888
 20
-21.33877727974889
 30
0.0
 10
30.765145686893
 20
-21.62452641840358
 30
0.0
 10
30.92036877035029
 20
-21.78680387316309
 30
0.0
 10
30.88861737078819
 20
-22.14663736789532
 30
0.0
 10
30.63461694021475
 20
-22.19249885580228
 30
0.0
 10
30.42295081189717
 20
-22.24541606075189
 30
0.0
 10
30.23597902035863
 20
-22.07608154320932
 30
0.0
 10
30.15131041584691
 20
-21.89969265436452
 30
0.0
 10
30.00667023508338
 20
-21.60688645292677
 30
0.0
 10
29.87614417988598
 20
-21.30702588018679
 30
0.0
 10
29.79853532963818
 20
-20.98952668771042
 30
0.0
  0
HATCH
  5
A6
330
79
100
AcDbEntity
  8
Layer 1
 62
     2
420
 16050715
440
 33554687
100
AcDbHatch
 10
0.0
 20
0.0
 30
0.0
210
0.0
220
0.0
230
1.0
  2
SOLID
 70
     1
 71
     1
 91
        1
 92
        1
 93
        1
 72
     4
 94
        3
 73
     0
 74
     0
 95
       17
 96
       13
 40
0.0
 40
0.0
 40
0.0
 40
0.0
 40
1.0
 40
1.0
 40
1.0
 40
2.0
 40
2.0
 40
2.0
 40
3.0
 40
3.0
 40
3.0
 40
4.0
 40
4.0
 40
4.0
 40
4.0
 10
29.79853532963818
 20
-20.98952668771042
 10
30.22892464905641
 20
-20.97188806797403
 10
30.50761941640888
 20
-21.33877727974889
 10
30.765145686893
 20
-21.62452641840358
 10
30.92036877035029
 20
-21.78680387316309
 10
30.88861737078819
 20
-22.14663736789532
 10
30.63461694021475
 20
-22.19249885580228
 10
30.42295081189717
 20
-22.24541606075189
 10
30.23597902035863
 20
-22.07608154320932
 10
30.15131041584691
 20
-21.89969265436452
 10
30.00667023508338
 20
-21.60688645292677
 10
29.87614417988598
 20
-21.30702588018679
 10
29.79853532963818
 20
-20.98952668771042
 97
        0
 97
        1
330
A5
 75
     2
 76
     1
 98
        1
 10
0.0
 20
0.0
450
        0
451
        0
460
0.0
461
0.0
452
        0
462
0.0
453
        0
470

  0
ENDBLK
  5
7C
330
79
100
AcDbEntity
  8
0
100
AcDbBlockEnd
  0
ENDSEC
  0
SECTION
  2
ENTITIES
  0
INSERT
  5
7A
330
70
100
AcDbEntity
  8
Layer 1
100
AcDbBlockReference
  2
Block_0
 10
0.0
 20
0.0
 30
0.0
  0
ENDSEC
  0
SECTION
  2
OBJECTS
  0
DICTIONARY
  5
C
330
0
100
AcDbDictionary
281
     1
  3
ACAD_COLOR
350
63
  3
ACAD_DETAILVIEWSTYLE
350
6A
  3
ACAD_GROUP
350
D
  3
ACAD_LAYOUT
350
62
  3
ACAD_MATERIAL
350
10
  3
ACAD_MLEADERSTYLE
350
66
  3
ACAD_MLINESTYLE
350
5F
  3
ACAD_PLOTSETTINGS
350
61
  3
ACAD_PLOTSTYLENAME
350
E
  3
ACAD_SCALELIST
350
42
  3
ACAD_SECTIONVIEWSTYLE
350
68
  3
ACAD_TABLESTYLE
350
64
  3
ACAD_VISUALSTYLE
350
29
  3
ACDB_RECOMPOSE_DATA
350
AF
  3
AcDbVariableDictionary
350
A7
  0
DICTIONARY
  5
63
102
{ACAD_REACTORS
330
C
102
}
330
C
100
AcDbDictionary
281
     1
  0
DICTIONARY
  5
6A
102
{ACAD_REACTORS
330
C
102
}
330
C
100
AcDbDictionary
281
     1
  3
Imperial24
350
6B
  0
DICTIONARY
  5
D
102
{ACAD_REACTORS
330
C
102
}
330
C
100
AcDbDictionary
281
     1
  0
DICTIONARY
  5
62
102
{ACAD_REACTORS
330
C
102
}
330
C
100
AcDbDictionary
281
     1
  3
Layout1
350
6F
  3
Layout2
350
77
  3
Model
350
73
  0
DICTIONARY
  5
10
102
{ACAD_REACTORS
330
C
102
}
330
C
100
AcDbDictionary
281
     1
  3
ByBlock
350
19
  3
ByLayer
350
11
  3
Global
350
21
  0
DICTIONARY
  5
66
102
{ACAD_REACTORS
330
C
102
}
330
C
100
AcDbDictionary
281
     1
  3
Standard
350
67
  0
DICTIONARY
  5
5F
102
{ACAD_REACTORS
330
C
102
}
330
C
100
AcDbDictionary
281
     1
  3
Standard
350
60
  0
DICTIONARY
  5
61
102
{ACAD_REACTORS
330
C
102
}
330
C
100
AcDbDictionary
281
     1
  0
ACDBDICTIONARYWDFLT
  5
E
102
{ACAD_REACTORS
330
C
102
}
330
C
100
AcDbDictionary
281
     1
  3
Normal
350
F
100
AcDbDictionaryWithDefault
340
F
  0
DICTIONARY
  5
42
102
{ACAD_REACTORS
330
C
102
}
330
C
100
AcDbDictionary
281
     1
  3
A0
350
43
  3
A1
350
44
  3
A2
350
45
  3
A3
350
46
  3
A4
350
47
  3
A5
350
48
  3
A6
350
49
  3
A7
350
4A
  3
A8
350
4B
  3
A9
350
4C
  3
B0
350
4D
  3
B1
350
4E
  3
B2
350
4F
  3
B3
350
50
  3
B4
350
51
  3
B5
350
52
  3
B6
350
53
  0
DICTIONARY
  5
68
102
{ACAD_REACTORS
330
C
102
}
330
C
100
AcDbDictionary
281
     1
  3
Imperial24
350
69
  0
DICTIONARY
  5
64
102
{ACAD_REACTORS
330
C
102
}
330
C
100
AcDbDictionary
281
     1
  3
Standard
350
65
  0
DICTIONARY
  5
29
102
{ACAD_REACTORS
330
C
102
}
330
C
100
AcDbDictionary
281
     1
  3
2dWireframe
350
2F
  3
Basic
350
2E
  3
Brighten
350
35
  3
ColorChange
350
39
  3
Conceptual
350
32
  3
Dim
350
34
  3
EdgeColorOff
350
41
  3
Facepattern
350
38
  3
Flat
350
2A
  3
FlatWithEdges
350
2B
  3
Gouraud
350
2C
  3
GouraudWithEdges
350
2D
  3
Hidden
350
31
  3
JitterOff
350
3F
  3
Linepattern
350
37
  3
OverhangOff
350
40
  3
Realistic
350
33
  3
Shaded
350
3E
  3
Shaded with edges
350
3D
  3
Shades of Gray
350
3A
  3
Sketchy
350
3B
  3
Thicken
350
36
  3
Wireframe
350
30
  3
X-Ray
350
3C
  0
XRECORD
  5
AF
102
{ACAD_REACTORS
330
C
102
}
330
C
100
AcDbXrecord
280
     1
 90
        1
330
65
  0
DICTIONARY
  5
A7
102
{ACAD_REACTORS
330
C
102
}
330
C
100
AcDbDictionary
281
     1
  3
CANNOSCALE
350
AC
  3
CMLEADERSTYLE
350
A9
  3
CTABLESTYLE
350
A8
  3
CVIEWDETAILSTYLE
350
AA
  3
CVIEWSECTIONSTYLE
350
AB
  0
ACDBDETAILVIEWSTYLE
  5
6B
102
{ACAD_REACTORS
330
6A
102
}
330
6A
100
AcDbModelDocViewStyle
 70
     0
  3
Imperial24
290
     1
300
Imperial24
 90
        0
100
AcDbDetailViewStyle
 70
     0
 71
     0
 90
        3
 71
     1
340
55
 62
   256
 40
0.24
340
0
 62
   256
 40
0.24
300

 40
0.36
280
     3
 71
     2
340
5D
 90
       25
 62
   256
 71
     3
340
55
 62
   256
 40
0.24
 90
        1
 40
0.75
 90
        1
300
%<\AcVar ViewType \f "%tc1">% %<\AcVar ViewDetailId>%\PSCALE %<\AcVar ViewScale \f "%sn">%
 71
     4
340
5D
 90
       25
 62
   256
340
5D
 90
       25
 62
   256
280
     0
  0
LAYOUT
  5
6F
102
{ACAD_REACTORS
330
62
102
}
330
62
100
AcDbPlotSettings
  1

  2

  4

  6

 40
0.0
 41
0.0
 42
0.0
 43
0.0
 44
0.0
 45
0.0
 46
0.0
 47
0.0
 48
0.0
 49
0.0
140
0.0
141
0.0
142
1.0
143
1.0
 70
   688
 72
     0
 73
     0
 74
     5
  7

 75
    16
147
1.0
 76
     0
 77
     2
 78
   300
148
0.0
149
0.0
100
AcDbLayout
  1
Layout1
 70
     1
 71
     1
 10
0.0
 20
0.0
 11
12.0
 21
9.0
 12
0.0
 22
0.0
 32
0.0
 14
0.0
 24
0.0
 34
0.0
 15
0.0
 25
0.0
 35
0.0
146
0.0
 13
0.0
 23
0.0
 33
0.0
 16
1.0
 26
0.0
 36
0.0
 17
0.0
 27
1.0
 37
0.0
 76
     0
330
6C
  0
LAYOUT
  5
77
102
{ACAD_REACTORS
330
62
102
}
330
62
100
AcDbPlotSettings
  1

  2

  4

  6

 40
0.0
 41
0.0
 42
0.0
 43
0.0
 44
0.0
 45
0.0
 46
0.0
 47
0.0
 48
0.0
 49
0.0
140
0.0
141
0.0
142
1.0
143
1.0
 70
   688
 72
     0
 73
     0
 74
     5
  7

 75
    16
147
1.0
 76
     0
 77
     2
 78
   300
148
0.0
149
0.0
100
AcDbLayout
  1
Layout2
 70
     1
 71
     2
 10
0.0
 20
0.0
 11
12.0
 21
9.0
 12
0.0
 22
0.0
 32
0.0
 14
0.0
 24
0.0
 34
0.0
 15
0.0
 25
0.0
 35
0.0
146
0.0
 13
0.0
 23
0.0
 33
0.0
 16
1.0
 26
0.0
 36
0.0
 17
0.0
 27
1.0
 37
0.0
 76
     0
330
74
  0
LAYOUT
  5
73
102
{ACAD_REACTORS
330
62
102
}
330
62
100
AcDbPlotSettings
  1

  2

  4

  6

 40
0.0
 41
0.0
 42
0.0
 43
0.0
 44
0.0
 45
0.0
 46
0.0
 47
0.0
 48
0.0
 49
0.0
140
0.0
141
0.0
142
1.0
143
1.0
 70
  1712
 72
     0
 73
     0
 74
     0
  7

 75
     0
147
1.0
 76
     0
 77
     2
 78
   300
148
0.0
149
0.0
100
AcDbLayout
  1
Model
 70
     1
 71
     0
 10
0.0
 20
0.0
 11
12.0
 21
9.0
 12
0.0
 22
0.0
 32
0.0
 14
0.0
 24
0.0
 34
0.0
 15
0.0
 25
0.0
 35
0.0
146
0.0
 13
0.0
 23
0.0
 33
0.0
 16
1.0
 26
0.0
 36
0.0
 17
0.0
 27
1.0
 37
0.0
 76
     0
330
70
  0
MATERIAL
  5
19
102
{ACAD_XDICTIONARY
360
1A
102
}
102
{ACAD_REACTORS
330
10
102
}
330
10
100
AcDbMaterial
  1
ByBlock
 72
     0
 43
0.0208333333333333
 43
0.0
 43
0.0
 43
0.0
 43
0.0
 43
0.0208333333333333
 43
0.0
 43
0.0
 43
0.0
 43
0.0
 43
1.0
 43
0.0
 43
0.0
 43
0.0
 43
0.0
 43
1.0
 77
     0
 47
0.0208333333333333
 47
0.0
 47
0.0
 47
0.0
 47
0.0
 47
0.0208333333333333
 47
0.0
 47
0.0
 47
0.0
 47
0.0
 47
1.0
 47
0.0
 47
0.0
 47
0.0
 47
0.0
 47
1.0
171
     0
 49
0.0208333333333333
 49
0.0
 49
0.0
 49
0.0
 49
0.0
 49
0.0208333333333333
 49
0.0
 49
0.0
 49
0.0
 49
0.0
 49
1.0
 49
0.0
 49
0.0
 49
0.0
 49
0.0
 49
1.0
175
     0
142
0.0208333333333333
142
0.0
142
0.0
142
0.0
142
0.0
142
0.0208333333333333
142
0.0
142
0.0
142
0.0
142
0.0
142
1.0
142
0.0
142
0.0
142
0.0
142
0.0
142
1.0
179
     0
144
0.0208333333333333
144
0.0
144
0.0
144
0.0
144
0.0
144
0.0208333333333333
144
0.0
144
0.0
144
0.0
144
0.0
144
1.0
144
0.0
144
0.0
144
0.0
144
0.0
144
1.0
147
0.0208333333333333
147
0.0
147
0.0
147
0.0
147
0.0
147
0.0208333333333333
147
0.0
147
0.0
147
0.0
147
0.0
147
1.0
147
0.0
147
0.0
147
0.0
147
0.0
147
1.0
  0
MATERIAL
  5
11
102
{ACAD_XDICTIONARY
360
12
102
}
102
{ACAD_REACTORS
330
10
102
}
330
10
100
AcDbMaterial
  1
ByLayer
 72
     0
 43
0.0208333333333333
 43
0.0
 43
0.0
 43
0.0
 43
0.0
 43
0.0208333333333333
 43
0.0
 43
0.0
 43
0.0
 43
0.0
 43
1.0
 43
0.0
 43
0.0
 43
0.0
 43
0.0
 43
1.0
 77
     0
 47
0.0208333333333333
 47
0.0
 47
0.0
 47
0.0
 47
0.0
 47
0.0208333333333333
 47
0.0
 47
0.0
 47
0.0
 47
0.0
 47
1.0
 47
0.0
 47
0.0
 47
0.0
 47
0.0
 47
1.0
171
     0
 49
0.0208333333333333
 49
0.0
 49
0.0
 49
0.0
 49
0.0
 49
0.0208333333333333
 49
0.0
 49
0.0
 49
0.0
 49
0.0
 49
1.0
 49
0.0
 49
0.0
 49
0.0
 49
0.0
 49
1.0
175
     0
142
0.0208333333333333
142
0.0
142
0.0
142
0.0
142
0.0
142
0.0208333333333333
142
0.0
142
0.0
142
0.0
142
0.0
142
1.0
142
0.0
142
0.0
142
0.0
142
0.0
142
1.0
179
     0
144
0.0208333333333333
144
0.0
144
0.0
144
0.0
144
0.0
144
0.0208333333333333
144
0.0
144
0.0
144
0.0
144
0.0
144
1.0
144
0.0
144
0.0
144
0.0
144
0.0
144
1.0
147
0.0208333333333333
147
0.0
147
0.0
147
0.0
147
0.0
147
0.0208333333333333
147
0.0
147
0.0
147
0.0
147
0.0
147
1.0
147
0.0
147
0.0
147
0.0
147
0.0
147
1.0
  0
MATERIAL
  5
21
102
{ACAD_XDICTIONARY
360
22
102
}
102
{ACAD_REACTORS
330
10
102
}
330
10
100
AcDbMaterial
  1
Global
 72
     0
 43
0.0208333333333333
 43
0.0
 43
0.0
 43
0.0
 43
0.0
 43
0.0208333333333333
 43
0.0
 43
0.0
 43
0.0
 43
0.0
 43
1.0
 43
0.0
 43
0.0
 43
0.0
 43
0.0
 43
1.0
 77
     0
 47
0.0208333333333333
 47
0.0
 47
0.0
 47
0.0
 47
0.0
 47
0.0208333333333333
 47
0.0
 47
0.0
 47
0.0
 47
0.0
 47
1.0
 47
0.0
 47
0.0
 47
0.0
 47
0.0
 47
1.0
171
     0
 49
0.0208333333333333
 49
0.0
 49
0.0
 49
0.0
 49
0.0
 49
0.0208333333333333
 49
0.0
 49
0.0
 49
0.0
 49
0.0
 49
1.0
 49
0.0
 49
0.0
 49
0.0
 49
0.0
 49
1.0
175
     0
142
0.0208333333333333
142
0.0
142
0.0
142
0.0
142
0.0
142
0.0208333333333333
142
0.0
142
0.0
142
0.0
142
0.0
142
1.0
142
0.0
142
0.0
142
0.0
142
0.0
142
1.0
179
     0
144
0.0208333333333333
144
0.0
144
0.0
144
0.0
144
0.0
144
0.0208333333333333
144
0.0
144
0.0
144
0.0
144
0.0
144
1.0
144
0.0
144
0.0
144
0.0
144
0.0
144
1.0
147
0.0208333333333333
147
0.0
147
0.0
147
0.0
147
0.0
147
0.0208333333333333
147
0.0
147
0.0
147
0.0
147
0.0
147
1.0
147
0.0
147
0.0
147
0.0
147
0.0
147
1.0
  0
MLEADERSTYLE
  5
67
102
{ACAD_REACTORS
330
66
102
}
330
66
100
AcDbMLeaderStyle
179
     2
170
     2
171
     1
172
     0
 90
        2
 40
0.0
 41
0.0
173
     1
 91
-1056964608
340
5B
 92
       -2
290
     1
 42
0.09
291
     1
 43
0.36
  3
Standard
 44
0.18
300

342
55
174
     1
178
     6
175
     1
176
     0
 93
-1056964608
 45
0.18
292
     0
297
     0
 46
0.18
 94
-1056964608
 47
1.0
 49
1.0
140
1.0
293
     1
141
0.0
294
     1
177
     0
142
1.0
295
     1
296
     0
143
0.125
271
     0
272
     9
273
     9
298
     1
  0
MLINESTYLE
  5
60
102
{ACAD_REACTORS
330
5F
102
}
330
5F
100
AcDbMlineStyle
  2
STANDARD
 70
     0
  3

 62
   256
 51
90.0
 52
90.0
 71
     2
 49
0.5
 62
   256
  6
BYLAYER
 49
-0.5
 62
   256
  6
BYLAYER
  0
ACDBPLACEHOLDER
  5
F
102
{ACAD_REACTORS
330
E
102
}
330
E
  0
SCALE
  5
43
102
{ACAD_REACTORS
330
42
102
}
330
42
100
AcDbScale
 70
     0
300
1:1
140
1.0
141
1.0
290
     1
  0
SCALE
  5
44
102
{ACAD_REACTORS
330
42
102
}
330
42
100
AcDbScale
 70
     0
300
1/128" = 1'-0"
140
0.0078125
141
12.0
290
     0
  0
SCALE
  5
45
102
{ACAD_REACTORS
330
42
102
}
330
42
100
AcDbScale
 70
     0
300
1/64" = 1'-0"
140
0.015625
141
12.0
290
     0
  0
SCALE
  5
46
102
{ACAD_REACTORS
330
42
102
}
330
42
100
AcDbScale
 70
     0
300
1/32" = 1'-0"
140
0.03125
141
12.0
290
     0
  0
SCALE
  5
47
102
{ACAD_REACTORS
330
42
102
}
330
42
100
AcDbScale
 70
     0
300
1/16" = 1'-0"
140
0.0625
141
12.0
290
     0
  0
SCALE
  5
48
102
{ACAD_REACTORS
330
42
102
}
330
42
100
AcDbScale
 70
     0
300
3/32" = 1'-0"
140
0.09375
141
12.0
290
     0
  0
SCALE
  5
49
102
{ACAD_REACTORS
330
42
102
}
330
42
100
AcDbScale
 70
     0
300
1/8" = 1'-0"
140
0.125
141
12.0
290
     0
  0
SCALE
  5
4A
102
{ACAD_REACTORS
330
42
102
}
330
42
100
AcDbScale
 70
     0
300
3/16" = 1'-0"
140
0.1875
141
12.0
290
     0
  0
SCALE
  5
4B
102
{ACAD_REACTORS
330
42
102
}
330
42
100
AcDbScale
 70
     0
300
1/4" = 1'-0"
140
0.25
141
12.0
290
     0
  0
SCALE
  5
4C
102
{ACAD_REACTORS
330
42
102
}
330
42
100
AcDbScale
 70
     0
300
3/8" = 1'-0"
140
0.375
141
12.0
290
     0
  0
SCALE
  5
4D
102
{ACAD_REACTORS
330
42
102
}
330
42
100
AcDbScale
 70
     0
300
1/2" = 1'-0"
140
0.5
141
12.0
290
     0
  0
SCALE
  5
4E
102
{ACAD_REACTORS
330
42
102
}
330
42
100
AcDbScale
 70
     0
300
3/4" = 1'-0"
140
0.75
141
12.0
290
     0
  0
SCALE
  5
4F
102
{ACAD_REACTORS
330
42
102
}
330
42
100
AcDbScale
 70
     0
300
1" = 1'-0"
140
1.0
141
12.0
290
     0
  0
SCALE
  5
50
102
{ACAD_REACTORS
330
42
102
}
330
42
100
AcDbScale
 70
     0
300
1-1/2" = 1'-0"
140
1.5
141
12.0
290
     0
  0
SCALE
  5
51
102
{ACAD_REACTORS
330
42
102
}
330
42
100
AcDbScale
 70
     0
300
3" = 1'-0"
140
3.0
141
12.0
290
     0
  0
SCALE
  5
52
102
{ACAD_REACTORS
330
42
102
}
330
42
100
AcDbScale
 70
     0
300
6" = 1'-0"
140
6.0
141
12.0
290
     0
  0
SCALE
  5
53
102
{ACAD_REACTORS
330
42
102
}
330
42
100
AcDbScale
 70
     0
300
1'-0" = 1'-0"
140
12.0
141
12.0
290
     0
  0
ACDBSECTIONVIEWSTYLE
  5
69
102
{ACAD_REACTORS
330
68
102
}
330
68
100
AcDbModelDocViewStyle
 70
     0
  3
Imperial24
290
     1
300
Imperial24
 90
        0
100
AcDbSectionViewStyle
 70
     0
 71
     0
 90
       78
 71
     1
340
55
 62
   256
 40
0.24
340
0
340
0
 62
   256
 40
0.24
300
I, O, Q, S, X, Z
 40
0.48
 90
        3
 40
0.18
 90
        1
 71
     2
340
5D
 90
       25
 62
   256
340
5D
 90
       50
 62
   256
 40
0.24
 40
0.0
 40
0.24
 71
     3
340
55
 62
   256
 40
0.24
 90
        1
 40
0.75
 90
        1
300
%<\AcVar ViewType \f "%tc1">% %<\AcVar ViewSectionStartId>%-%<\AcVar ViewSectionEndId>%\PSCALE %<\AcVar ViewScale \f "%sn">%
 71
     4
 62
   256
 62
   257
300
ANSI31
 40
1.0
 90
        0
290
     0
290
     0
 90
        6
 40
0.0
 40
1.570796326794896
 40
0.2617993877991494
 40
1.308996938995747
 40
-0.2617993877991494
 40
1.832595714594046
  0
TABLESTYLE
  5
65
102
{ACAD_XDICTIONARY
360
AD
102
}
102
{ACAD_REACTORS
330
64
102
}
330
64
100
AcDbTableStyle
280
     0
  3
Standard
 70
     0
 71
     0
 40
0.06
 41
0.06
280
     0
281
     0
  7
Standard
140
0.18
170
     2
 62
     0
 63
     7
283
     0
 90
      512
 91
        0
  1

274
    -2
284
     1
 64
     0
275
    -2
285
     1
 65
     0
276
    -2
286
     1
 66
     0
277
    -2
287
     1
 67
     0
278
    -2
288
     1
 68
     0
279
    -2
289
     1
 69
     0
  7
Standard
140
0.25
170
     5
 62
     0
 63
     7
283
     0
 90
      512
 91
        0
  1

274
    -2
284
     1
 64
     0
275
    -2
285
     1
 65
     0
276
    -2
286
     1
 66
     0
277
    -2
287
     1
 67
     0
278
    -2
288
     1
 68
     0
279
    -2
289
     1
 69
     0
  7
Standard
140
0.18
170
     5
 62
     0
 63
     7
283
     0
 90
      512
 91
        0
  1

274
    -2
284
     1
 64
     0
275
    -2
285
     1
 65
     0
276
    -2
286
     1
 66
     0
277
    -2
287
     1
 67
     0
278
    -2
288
     1
 68
     0
279
    -2
289
     1
 69
     0
  0
VISUALSTYLE
  5
2F
102
{ACAD_REACTORS
330
29
102
}
330
29
100
AcDbVisualStyle
  2
2dWireframe
 70
     4
177
     3
291
     0
 70
    58
 90
        0
176
     1
 90
        2
176
     1
 90
        0
176
     1
 90
        0
176
     1
 40
0.6
176
     1
 40
30.0
176
     1
 62
     7
420
 16777215
176
     1
 90
        1
176
     1
 90
        4
176
     1
 62
     7
176
     1
 62
   257
176
     1
 90
        1
176
     1
 90
        1
176
     1
 40
1.0
176
     1
 90
        0
176
     1
 62
   257
176
     1
 40
1.0
176
     1
 90
        1
176
     1
 90
        6
176
     1
 90
        2
176
     1
 62
     7
176
     1
 90
        5
176
     1
 90
        0
176
     1
 90
        0
176
     1
290
     0
176
     1
 90
        1
176
     1
 40
0.0
176
     1
 90
        0
176
     1
290
     1
176
     1
290
     1
176
     1
290
     0
176
     1
290
     0
176
     1
290
     0
176
     1
290
     0
176
     1
290
     0
176
     1
290
     0
176
     1
290
     0
176
     1
 90
       50
176
     1
 40
0.0
176
     1
 40
1.0
176
     1
 90
        0
176
     1
 62
    18
420
        0
176
     1
 90
       50
176
     1
 90
        3
176
     1
 62
     5
420
      255
176
     1
290
     0
176
     1
 90
       50
176
     1
 90
       50
176
     1
 90
       50
176
     1
290
     0
176
     1
 90
       50
176
     1
 62
   256
176
     0
 40
1.0
176
     0
 90
        2
176
     1
  1
strokes_ogs.tif
176
     1
290
     0
176
     1
 40
1.0
176
     1
 40
1.0
176
     1
  0
VISUALSTYLE
  5
2E
102
{ACAD_REACTORS
330
29
102
}
330
29
100
AcDbVisualStyle
  2
Basic
 70
     7
177
     3
291
     1
 70
    58
 90
        1
176
     1
 90
        0
176
     1
 90
        1
176
     1
 90
        0
176
     1
 40
0.6
176
     1
 40
30.0
176
     1
 62
     7
420
 16777215
176
     1
 90
        0
176
     1
 90
        4
176
     1
 62
     7
176
     1
 62
   257
176
     1
 90
        1
176
     1
 90
        1
176
     1
 40
1.0
176
     1
 90
        8
176
     1
 62
     7
176
     1
 40
1.0
176
     1
 90
        1
176
     1
 90
        6
176
     1
 90
        2
176
     1
 62
     7
176
     1
 90
        5
176
     1
 90
        0
176
     1
 90
        0
176
     1
290
     0
176
     1
 90
        1
176
     1
 40
0.0
176
     1
 90
        0
176
     1
290
     0
176
     1
290
     1
176
     1
290
     1
176
     1
290
     0
176
     1
290
     0
176
     1
290
     0
176
     1
290
     0
176
     1
290
     0
176
     1
290
     0
176
     1
 90
       50
176
     1
 40
0.0
176
     1
 40
1.0
176
     1
 90
        0
176
     1
 62
    18
420
        0
176
     1
 90
       50
176
     1
 90
        3
176
     1
 62
     5
420
      255
176
     1
290
     0
176
     1
 90
       50
176
     1
 90
       50
176
     1
 90
       50
176
     1
290
     0
176
     1
 90
       50
176
     1
 62
   256
176
     0
 40
1.0
176
     0
 90
        2
176
     1
  1
strokes_ogs.tif
176
     1
290
     0
176
     1
 40
1.0
176
     1
 40
1.0
176
     1
  0
VISUALSTYLE
  5
35
102
{ACAD_REACTORS
330
29
102
}
330
29
100
AcDbVisualStyle
  2
Brighten
 70
    12
177
     3
291
     1
 70
    58
 90
        2
176
     1
 90
        2
176
     1
 90
        0
176
     1
 90
        0
176
     1
 40
0.6
176
     1
 40
30.0
176
     1
 62
     7
420
 16777215
176
     1
 90
        1
176
     1
 90
        4
176
     1
 62
     7
176
     1
 62
   257
176
     1
 90
        1
176
     1
 90
        1
176
     1
 40
1.0
176
     1
 90
        8
176
     1
 62
     7
176
     1
 40
1.0
176
     1
 90
        1
176
     1
 90
        6
176
     1
 90
        2
176
     1
 62
     7
176
     1
 90
        5
176
     1
 90
        0
176
     1
 90
        0
176
     1
290
     0
176
     1
 90
        1
176
     1
 40
50.0
176
     1
 90
        0
176
     1
290
     0
176
     1
290
     1
176
     1
290
     1
176
     1
290
     0
176
     1
290
     0
176
     1
290
     0
176
     1
290
     0
176
     1
290
     0
176
     1
290
     0
176
     1
 90
       50
176
     1
 40
0.0
176
     1
 40
1.0
176
     1
 90
        0
176
     1
 62
    18
420
        0
176
     1
 90
       50
176
     1
 90
        3
176
     1
 62
     5
420
      255
176
     1
290
     0
176
     1
 90
       50
176
     1
 90
       50
176
     1
 90
       50
176
     1
290
     0
176
     1
 90
       50
176
     1
 62
   256
176
     0
 40
1.0
176
     0
 90
        2
176
     1
  1
strokes_ogs.tif
176
     1
290
     0
176
     1
 40
1.0
176
     1
 40
1.0
176
     1
  0
VISUALSTYLE
  5
39
102
{ACAD_REACTORS
330
29
102
}
330
29
100
AcDbVisualStyle
  2
ColorChange
 70
    16
177
     3
291
     1
 70
    58
 90
        2
176
     1
 90
        2
176
     1
 90
        3
176
     1
 90
        0
176
     1
 40
0.6
176
     1
 40
30.0
176
     1
 62
     8
420
  8421504
176
     1
 90
        1
176
     1
 90
        4
176
     1
 62
     7
176
     1
 62
   257
176
     1
 90
        1
176
     1
 90
        1
176
     1
 40
1.0
176
     1
 90
        8
176
     1
 62
     8
420
  8421504
176
     1
 40
1.0
176
     1
 90
        1
176
     1
 90
        6
176
     1
 90
        2
176
     1
 62
     7
176
     1
 90
        5
176
     1
 90
        0
176
     1
 90
        0
176
     1
290
     0
176
     1
 90
        1
176
     1
 40
0.0
176
     1
 90
        0
176
     1
290
     0
176
     1
290
     1
176
     1
290
     1
176
     1
290
     0
176
     1
290
     0
176
     1
290
     0
176
     1
290
     0
176
     1
290
     0
176
     1
290
     0
176
     1
 90
       50
176
     1
 40
0.0
176
     1
 40
1.0
176
     1
 90
        0
176
     1
 62
    18
420
        0
176
     1
 90
       50
176
     1
 90
        3
176
     1
 62
     5
420
      255
176
     1
290
     0
176
     1
 90
       50
176
     1
 90
       50
176
     1
 90
       50
176
     1
290
     0
176
     1
 90
       50
176
     1
 62
   256
176
     0
 40
1.0
176
     0
 90
        2
176
     1
  1
strokes_ogs.tif
176
     1
290
     0
176
     1
 40
1.0
176
     1
 40
1.0
176
     1
  0
VISUALSTYLE
  5
32
102
{ACAD_REACTORS
330
29
102
}
330
29
100
AcDbVisualStyle
  2
Conceptual
 70
     9
177
     3
291
     0
 70
    58
 90
        3
176
     1
 90
        2
176
     1
 90
        0
176
     1
 90
        0
176
     1
 40
0.6
176
     1
 40
30.0
176
     1
 62
     7
420
 16777215
176
     1
 90
        2
176
     1
 90
        2
176
     1
 62
     7
176
     1
 62
   257
176
     1
 90
        1
176
     1
 90
        1
176
     1
 40
179.0
176
     1
 90
        8
176
     1
 62
     7
176
     1
 40
1.0
176
     1
 90
        1
176
     1
 90
        6
176
     1
 90
        2
176
     1
 62
     7
176
     1
 90
        3
176
     1
 90
        0
176
     1
 90
        0
176
     1
290
     0
176
     1
 90
        1
176
     1
 40
0.0
176
     1
 90
        0
176
     1
290
     0
176
     1
290
     1
176
     1
290
     1
176
     1
290
     0
176
     1
290
     0
176
     1
290
     0
176
     1
290
     0
176
     1
290
     0
176
     1
290
     0
176
     1
 90
       50
176
     1
 40
0.0
176
     1
 40
1.0
176
     1
 90
        0
176
     1
 62
    18
420
        0
176
     1
 90
       50
176
     1
 90
        3
176
     1
 62
     5
420
      255
176
     1
290
     0
176
     1
 90
       50
176
     1
 90
       50
176
     1
 90
       50
176
     1
290
     0
176
     1
 90
       50
176
     1
 62
   256
176
     0
 40
1.0
176
     0
 90
        2
176
     1
  1
strokes_ogs.tif
176
     1
290
     0
176
     1
 40
1.0
176
     1
 40
1.0
176
     1
  0
VISUALSTYLE
  5
34
102
{ACAD_REACTORS
330
29
102
}
330
29
100
AcDbVisualStyle
  2
Dim
 70
    11
177
     3
291
     1
 70
    58
 90
        2
176
     1
 90
        2
176
     1
 90
        0
176
     1
 90
        0
176
     1
 40
0.6
176
     1
 40
30.0
176
     1
 62
     7
420
 16777215
176
     1
 90
        1
176
     1
 90
        4
176
     1
 62
     7
176
     1
 62
   257
176
     1
 90
        1
176
     1
 90
        1
176
     1
 40
1.0
176
     1
 90
        8
176
     1
 62
     7
176
     1
 40
1.0
176
     1
 90
        1
176
     1
 90
        6
176
     1
 90
        2
176
     1
 62
     7
176
     1
 90
        5
176
     1
 90
        0
176
     1
 90
        0
176
     1
290
     0
176
     1
 90
        1
176
     1
 40
-50.0
176
     1
 90
        0
176
     1
290
     0
176
     1
290
     1
176
     1
290
     1
176
     1
290
     0
176
     1
290
     0
176
     1
290
     0
176
     1
290
     0
176
     1
290
     0
176
     1
290
     0
176
     1
 90
       50
176
     1
 40
0.0
176
     1
 40
1.0
176
     1
 90
        0
176
     1
 62
    18
420
        0
176
     1
 90
       50
176
     1
 90
        3
176
     1
 62
     5
420
      255
176
     1
290
     0
176
     1
 90
       50
176
     1
 90
       50
176
     1
 90
       50
176
     1
290
     0
176
     1
 90
       50
176
     1
 62
   256
176
     0
 40
1.0
176
     0
 90
        2
176
     1
  1
strokes_ogs.tif
176
     1
290
     0
176
     1
 40
1.0
176
     1
 40
1.0
176
     1
  0
VISUALSTYLE
  5
41
102
{ACAD_REACTORS
330
29
102
}
330
29
100
AcDbVisualStyle
  2
EdgeColorOff
 70
    22
177
     3
291
     1
 70
    58
 90
        2
176
     0
 90
        2
176
     0
 90
        0
176
     0
 90
        0
176
     0
 40
0.6
176
     0
 40
30.0
176
     0
 62
     7
420
 16777215
176
     0
 90
        1
176
     0
 90
        4
176
     0
 62
     7
176
     0
 62
   257
176
     0
 90
        1
176
     0
 90
        1
176
     0
 40
1.0
176
     0
 90
        8
176
     2
 62
     7
176
     0
 40
1.0
176
     0
 90
        1
176
     0
 90
        6
176
     0
 90
        2
176
     0
 62
     7
176
     0
 90
        5
176
     0
 90
        0
176
     0
 90
        0
176
     0
290
     0
176
     0
 90
        1
176
     0
 40
0.0
176
     0
 90
        0
176
     0
290
     0
176
     0
290
     1
176
     0
290
     1
176
     0
290
     0
176
     0
290
     0
176
     0
290
     0
176
     0
290
     0
176
     0
290
     0
176
     0
290
     0
176
     0
 90
       50
176
     0
 40
0.0
176
     0
 40
1.0
176
     0
 90
        0
176
     0
 62
    18
420
        0
176
     0
 90
       50
176
     0
 90
        3
176
     0
 62
     5
420
      255
176
     0
290
     0
176
     0
 90
       50
176
     0
 90
       50
176
     0
 90
       50
176
     0
290
     0
176
     0
 90
       50
176
     0
 62
   256
176
     0
 40
1.0
176
     0
 90
        2
176
     0
  1
strokes_ogs.tif
176
     0
290
     0
176
     0
 40
1.0
176
     0
 40
1.0
176
     0
  0
VISUALSTYLE
  5
38
102
{ACAD_REACTORS
330
29
102
}
330
29
100
AcDbVisualStyle
  2
Facepattern
 70
    15
177
     3
291
     1
 70
    58
 90
        2
176
     1
 90
        2
176
     1
 90
        0
176
     1
 90
        0
176
     1
 40
0.6
176
     1
 40
30.0
176
     1
 62
     7
420
 16777215
176
     1
 90
        1
176
     1
 90
        4
176
     1
 62
     7
176
     1
 62
   257
176
     1
 90
        1
176
     1
 90
        1
176
     1
 40
1.0
176
     1
 90
        8
176
     1
 62
     7
176
     1
 40
1.0
176
     1
 90
        1
176
     1
 90
        6
176
     1
 90
        2
176
     1
 62
     7
176
     1
 90
        5
176
     1
 90
        0
176
     1
 90
        0
176
     1
290
     0
176
     1
 90
        1
176
     1
 40
0.0
176
     1
 90
        0
176
     1
290
     0
176
     1
290
     1
176
     1
290
     1
176
     1
290
     0
176
     1
290
     0
176
     1
290
     0
176
     1
290
     0
176
     1
290
     0
176
     1
290
     0
176
     1
 90
       50
176
     1
 40
0.0
176
     1
 40
1.0
176
     1
 90
        0
176
     1
 62
    18
420
        0
176
     1
 90
       50
176
     1
 90
        3
176
     1
 62
     5
420
      255
176
     1
290
     0
176
     1
 90
       50
176
     1
 90
       50
176
     1
 90
       50
176
     1
290
     0
176
     1
 90
       50
176
     1
 62
   256
176
     0
 40
1.0
176
     0
 90
        2
176
     1
  1
strokes_ogs.tif
176
     1
290
     0
176
     1
 40
1.0
176
     1
 40
1.0
176
     1
  0
VISUALSTYLE
  5
2A
102
{ACAD_REACTORS
330
29
102
}
330
29
100
AcDbVisualStyle
  2
Flat
 70
     0
177
     3
291
     1
 70
    58
 90
        2
176
     1
 90
        1
176
     1
 90
        1
176
     1
 90
        2
176
     1
 40
0.6
176
     1
 40
30.0
176
     1
 62
     7
420
 16777215
176
     1
 90
        0
176
     1
 90
        0
176
     1
 62
     7
176
     1
 62
   257
176
     1
 90
        1
176
     1
 90
        1
176
     1
 40
1.0
176
     1
 90
        8
176
     1
 62
     7
176
     1
 40
1.0
176
     1
 90
        1
176
     1
 90
        6
176
     1
 90
        2
176
     1
 62
     7
176
     1
 90
        5
176
     1
 90
        0
176
     1
 90
        0
176
     1
290
     0
176
     1
 90
       13
176
     1
 40
0.0
176
     1
 90
        0
176
     1
290
     0
176
     1
290
     1
176
     1
290
     1
176
     1
290
     0
176
     1
290
     0
176
     1
290
     0
176
     1
290
     0
176
     1
290
     0
176
     1
290
     0
176
     1
 90
       50
176
     1
 40
0.0
176
     1
 40
1.0
176
     1
 90
        0
176
     1
 62
    18
420
        0
176
     1
 90
       50
176
     1
 90
        3
176
     1
 62
     5
420
      255
176
     1
290
     0
176
     1
 90
       50
176
     1
 90
       50
176
     1
 90
       50
176
     1
290
     0
176
     1
 90
       50
176
     1
 62
   256
176
     0
 40
1.0
176
     0
 90
        2
176
     1
  1
strokes_ogs.tif
176
     1
290
     0
176
     1
 40
1.0
176
     1
 40
1.0
176
     1
  0
VISUALSTYLE
  5
2B
102
{ACAD_REACTORS
330
29
102
}
330
29
100
AcDbVisualStyle
  2
FlatWithEdges
 70
     1
177
     3
291
     1
 70
    58
 90
        2
176
     1
 90
        1
176
     1
 90
        1
176
     1
 90
        2
176
     1
 40
0.6
176
     1
 40
30.0
176
     1
 62
     7
420
 16777215
176
     1
 90
        1
176
     1
 90
        0
176
     1
 62
     7
176
     1
 62
   257
176
     1
 90
        1
176
     1
 90
        1
176
     1
 40
1.0
176
     1
 90
        0
176
     1
 62
   257
176
     1
 40
1.0
176
     1
 90
        1
176
     1
 90
        6
176
     1
 90
        2
176
     1
 62
     7
176
     1
 90
        5
176
     1
 90
        0
176
     1
 90
        0
176
     1
290
     0
176
     1
 90
       13
176
     1
 40
0.0
176
     1
 90
        0
176
     1
290
     0
176
     1
290
     1
176
     1
290
     1
176
     1
290
     0
176
     1
290
     0
176
     1
290
     0
176
     1
290
     0
176
     1
290
     0
176
     1
290
     0
176
     1
 90
       50
176
     1
 40
0.0
176
     1
 40
1.0
176
     1
 90
        0
176
     1
 62
    18
420
        0
176
     1
 90
       50
176
     1
 90
        3
176
     1
 62
     5
420
      255
176
     1
290
     0
176
     1
 90
       50
176
     1
 90
       50
176
     1
 90
       50
176
     1
290
     0
176
     1
 90
       50
176
     1
 62
   256
176
     0
 40
1.0
176
     0
 90
        2
176
     1
  1
strokes_ogs.tif
176
     1
290
     0
176
     1
 40
1.0
176
     1
 40
1.0
176
     1
  0
VISUALSTYLE
  5
2C
102
{ACAD_REACTORS
330
29
102
}
330
29
100
AcDbVisualStyle
  2
Gouraud
 70
     2
177
     3
291
     1
 70
    58
 90
        2
176
     1
 90
        2
176
     1
 90
        1
176
     1
 90
        2
176
     1
 40
0.6
176
     1
 40
30.0
176
     1
 62
     7
420
 16777215
176
     1
 90
        0
176
     1
 90
        0
176
     1
 62
     7
176
     1
 62
   257
176
     1
 90
        1
176
     1
 90
        1
176
     1
 40
1.0
176
     1
 90
        0
176
     1
 62
     7
176
     1
 40
1.0
176
     1
 90
        1
176
     1
 90
        6
176
     1
 90
        2
176
     1
 62
     7
176
     1
 90
        5
176
     1
 90
        0
176
     1
 90
        0
176
     1
290
     0
176
     1
 90
       13
176
     1
 40
0.0
176
     1
 90
        0
176
     1
290
     0
176
     1
290
     1
176
     1
290
     1
176
     1
290
     0
176
     1
290
     0
176
     1
290
     0
176
     1
290
     0
176
     1
290
     0
176
     1
290
     0
176
     1
 90
       50
176
     1
 40
0.0
176
     1
 40
1.0
176
     1
 90
        0
176
     1
 62
    18
420
        0
176
     1
 90
       50
176
     1
 90
        3
176
     1
 62
     5
420
      255
176
     1
290
     0
176
     1
 90
       50
176
     1
 90
       50
176
     1
 90
       50
176
     1
290
     0
176
     1
 90
       50
176
     1
 62
   256
176
     0
 40
1.0
176
     0
 90
        2
176
     1
  1
strokes_ogs.tif
176
     1
290
     0
176
     1
 40
1.0
176
     1
 40
1.0
176
     1
  0
VISUALSTYLE
  5
2D
102
{ACAD_REACTORS
330
29
102
}
330
29
100
AcDbVisualStyle
  2
GouraudWithEdges
 70
     3
177
     3
291
     1
 70
    58
 90
        2
176
     1
 90
        2
176
     1
 90
        1
176
     1
 90
        2
176
     1
 40
0.6
176
     1
 40
30.0
176
     1
 62
     7
420
 16777215
176
     1
 90
        1
176
     1
 90
        0
176
     1
 62
     7
176
     1
 62
   257
176
     1
 90
        1
176
     1
 90
        1
176
     1
 40
1.0
176
     1
 90
        0
176
     1
 62
   257
176
     1
 40
1.0
176
     1
 90
        1
176
     1
 90
        6
176
     1
 90
        2
176
     1
 62
     7
176
     1
 90
        5
176
     1
 90
        0
176
     1
 90
        0
176
     1
290
     0
176
     1
 90
       13
176
     1
 40
0.0
176
     1
 90
        0
176
     1
290
     0
176
     1
290
     1
176
     1
290
     1
176
     1
290
     0
176
     1
290
     0
176
     1
290
     0
176
     1
290
     0
176
     1
290
     0
176
     1
290
     0
176
     1
 90
       50
176
     1
 40
0.0
176
     1
 40
1.0
176
     1
 90
        0
176
     1
 62
    18
420
        0
176
     1
 90
       50
176
     1
 90
        3
176
     1
 62
     5
420
      255
176
     1
290
     0
176
     1
 90
       50
176
     1
 90
       50
176
     1
 90
       50
176
     1
290
     0
176
     1
 90
       50
176
     1
 62
   256
176
     0
 40
1.0
176
     0
 90
        2
176
     1
  1
strokes_ogs.tif
176
     1
290
     0
176
     1
 40
1.0
176
     1
 40
1.0
176
     1
  0
VISUALSTYLE
  5
31
102
{ACAD_REACTORS
330
29
102
}
330
29
100
AcDbVisualStyle
  2
Hidden
 70
     6
177
     3
291
     0
 70
    58
 90
        1
176
     1
 90
        2
176
     1
 90
        2
176
     1
 90
        0
176
     1
 40
0.6
176
     1
 40
30.0
176
     1
 62
     7
420
 16777215
176
     1
 90
        2
176
     1
 90
        2
176
     1
 62
     7
176
     1
 62
   257
176
     1
 90
        2
176
     1
 90
        1
176
     1
 40
40.0
176
     1
 90
        0
176
     1
 62
   257
176
     1
 40
1.0
176
     1
 90
        1
176
     1
 90
        6
176
     1
 90
        2
176
     1
 62
     7
176
     1
 90
        3
176
     1
 90
        0
176
     1
 90
        0
176
     1
290
     0
176
     1
 90
        1
176
     1
 40
0.0
176
     1
 90
        0
176
     1
290
     0
176
     1
290
     1
176
     1
290
     1
176
     1
290
     0
176
     1
290
     0
176
     1
290
     0
176
     1
290
     0
176
     1
290
     0
176
     1
290
     0
176
     1
 90
       50
176
     1
 40
0.0
176
     1
 40
1.0
176
     1
 90
        0
176
     1
 62
    18
420
        0
176
     1
 90
       50
176
     1
 90
        3
176
     1
 62
     5
420
      255
176
     1
290
     0
176
     1
 90
       50
176
     1
 90
       50
176
     1
 90
       50
176
     1
290
     0
176
     1
 90
       50
176
     1
 62
   256
176
     0
 40
1.0
176
     0
 90
        2
176
     1
  1
strokes_ogs.tif
176
     1
290
     0
176
     1
 40
1.0
176
     1
 40
1.0
176
     1
  0
VISUALSTYLE
  5
3F
102
{ACAD_REACTORS
330
29
102
}
330
29
100
AcDbVisualStyle
  2
JitterOff
 70
    20
177
     3
291
     1
 70
    58
 90
        2
176
     0
 90
        2
176
     0
 90
        0
176
     0
 90
        0
176
     0
 40
0.6
176
     0
 40
30.0
176
     0
 62
     7
420
 16777215
176
     0
 90
        1
176
     0
 90
        4
176
     0
 62
     7
176
     0
 62
   257
176
     0
 90
        1
176
     0
 90
        1
176
     0
 40
1.0
176
     0
 90
       10
176
     2
 62
     7
176
     0
 40
1.0
176
     0
 90
        1
176
     0
 90
        6
176
     0
 90
        2
176
     0
 62
     7
176
     0
 90
        5
176
     0
 90
        0
176
     0
 90
        0
176
     0
290
     0
176
     0
 90
        1
176
     0
 40
0.0
176
     0
 90
        0
176
     0
290
     0
176
     0
290
     1
176
     0
290
     1
176
     0
290
     0
176
     0
290
     0
176
     0
290
     0
176
     0
290
     0
176
     0
290
     0
176
     0
290
     0
176
     0
 90
       50
176
     0
 40
0.0
176
     0
 40
1.0
176
     0
 90
        0
176
     0
 62
    18
420
        0
176
     0
 90
       50
176
     0
 90
        3
176
     0
 62
     5
420
      255
176
     0
290
     0
176
     0
 90
       50
176
     0
 90
       50
176
     0
 90
       50
176
     0
290
     0
176
     0
 90
       50
176
     0
 62
   256
176
     0
 40
1.0
176
     0
 90
        2
176
     0
  1
strokes_ogs.tif
176
     0
290
     0
176
     0
 40
1.0
176
     0
 40
1.0
176
     0
  0
VISUALSTYLE
  5
37
102
{ACAD_REACTORS
330
29
102
}
330
29
100
AcDbVisualStyle
  2
Linepattern
 70
    14
177
     3
291
     1
 70
    58
 90
        2
176
     1
 90
        2
176
     1
 90
        0
176
     1
 90
        0
176
     1
 40
0.6
176
     1
 40
30.0
176
     1
 62
     7
420
 16777215
176
     1
 90
        1
176
     1
 90
        4
176
     1
 62
     7
176
     1
 62
   257
176
     1
 90
        7
176
     1
 90
        7
176
     1
 40
1.0
176
     1
 90
        8
176
     1
 62
     7
176
     1
 40
1.0
176
     1
 90
        1
176
     1
 90
        6
176
     1
 90
        2
176
     1
 62
     7
176
     1
 90
        5
176
     1
 90
        0
176
     1
 90
        0
176
     1
290
     0
176
     1
 90
        1
176
     1
 40
0.0
176
     1
 90
        0
176
     1
290
     0
176
     1
290
     1
176
     1
290
     1
176
     1
290
     0
176
     1
290
     0
176
     1
290
     0
176
     1
290
     0
176
     1
290
     0
176
     1
290
     0
176
     1
 90
       50
176
     1
 40
0.0
176
     1
 40
1.0
176
     1
 90
        0
176
     1
 62
    18
420
        0
176
     1
 90
       50
176
     1
 90
        3
176
     1
 62
     5
420
      255
176
     1
290
     0
176
     1
 90
       50
176
     1
 90
       50
176
     1
 90
       50
176
     1
290
     0
176
     1
 90
       50
176
     1
 62
   256
176
     0
 40
1.0
176
     0
 90
        2
176
     1
  1
strokes_ogs.tif
176
     1
290
     0
176
     1
 40
1.0
176
     1
 40
1.0
176
     1
  0
VISUALSTYLE
  5
40
102
{ACAD_REACTORS
330
29
102
}
330
29
100
AcDbVisualStyle
  2
OverhangOff
 70
    21
177
     3
291
     1
 70
    58
 90
        2
176
     0
 90
        2
176
     0
 90
        0
176
     0
 90
        0
176
     0
 40
0.6
176
     0
 40
30.0
176
     0
 62
     7
420
 16777215
176
     0
 90
        1
176
     0
 90
        4
176
     0
 62
     7
176
     0
 62
   257
176
     0
 90
        1
176
     0
 90
        1
176
     0
 40
1.0
176
     0
 90
        9
176
     2
 62
     7
176
     0
 40
1.0
176
     0
 90
        1
176
     0
 90
        6
176
     0
 90
        2
176
     0
 62
     7
176
     0
 90
        5
176
     0
 90
        0
176
     0
 90
        0
176
     0
290
     0
176
     0
 90
        1
176
     0
 40
0.0
176
     0
 90
        0
176
     0
290
     0
176
     0
290
     1
176
     0
290
     1
176
     0
290
     0
176
     0
290
     0
176
     0
290
     0
176
     0
290
     0
176
     0
290
     0
176
     0
290
     0
176
     0
 90
       50
176
     0
 40
0.0
176
     0
 40
1.0
176
     0
 90
        0
176
     0
 62
    18
420
        0
176
     0
 90
       50
176
     0
 90
        3
176
     0
 62
     5
420
      255
176
     0
290
     0
176
     0
 90
       50
176
     0
 90
       50
176
     0
 90
       50
176
     0
290
     0
176
     0
 90
       50
176
     0
 62
   256
176
     0
 40
1.0
176
     0
 90
        2
176
     0
  1
strokes_ogs.tif
176
     0
290
     0
176
     0
 40
1.0
176
     0
 40
1.0
176
     0
  0
VISUALSTYLE
  5
33
102
{ACAD_REACTORS
330
29
102
}
330
29
100
AcDbVisualStyle
  2
Realistic
 70
     8
177
     3
291
     0
 70
    58
 90
        2
176
     1
 90
        3
176
     1
 90
        0
176
     1
 90
        2
176
     1
 40
0.6
176
     1
 40
30.0
176
     1
 62
     7
420
 16777215
176
     1
 90
        0
176
     1
 90
        0
176
     1
 62
     7
176
     1
 62
   257
176
     1
 90
        1
176
     1
 90
        1
176
     1
 40
1.0
176
     1
 90
        8
176
     1
 62
   257
176
     1
 40
1.0
176
     1
 90
        1
176
     1
 90
        6
176
     1
 90
        2
176
     1
 62
     7
176
     1
 90
        3
176
     1
 90
        0
176
     1
 90
        0
176
     1
290
     0
176
     1
 90
       13
176
     1
 40
0.0
176
     1
 90
        0
176
     1
290
     0
176
     1
290
     1
176
     1
290
     1
176
     1
290
     0
176
     1
290
     0
176
     1
290
     0
176
     1
290
     0
176
     1
290
     0
176
     1
290
     0
176
     1
 90
       50
176
     1
 40
0.0
176
     1
 40
1.0
176
     1
 90
        0
176
     1
 62
    18
420
        0
176
     1
 90
       50
176
     1
 90
        3
176
     1
 62
     5
420
      255
176
     1
290
     0
176
     1
 90
       50
176
     1
 90
       50
176
     1
 90
       50
176
     1
290
     0
176
     1
 90
       50
176
     1
 62
   256
176
     0
 40
1.0
176
     0
 90
        2
176
     1
  1
strokes_ogs.tif
176
     1
290
     0
176
     1
 40
1.0
176
     1
 40
1.0
176
     1
  0
VISUALSTYLE
  5
3E
102
{ACAD_REACTORS
330
29
102
}
330
29
100
AcDbVisualStyle
  2
Shaded
 70
    27
177
     3
291
     0
 70
    58
 90
        2
176
     1
 90
        2
176
     1
 90
        1
176
     1
 90
        2
176
     1
 40
0.6
176
     1
 40
30.0
176
     1
 62
     7
420
 16777215
176
     1
 90
        0
176
     1
 90
        4
176
     1
 62
     7
176
     1
 62
   257
176
     1
 90
        1
176
     1
 90
        1
176
     1
 40
1.0
176
     1
 90
        8
176
     1
 62
   257
176
     1
 40
1.0
176
     1
 90
        1
176
     1
 90
        6
176
     1
 90
        2
176
     1
 62
     8
420
  7895160
176
     1
 90
        3
176
     1
 90
        0
176
     1
 90
        0
176
     1
290
     0
176
     1
 90
        5
176
     1
 40
0.0
176
     1
 90
        0
176
     1
290
     0
176
     1
290
     1
176
     1
290
     1
176
     1
290
     0
176
     1
290
     0
176
     1
290
     0
176
     1
290
     0
176
     1
290
     0
176
     1
290
     0
176
     1
 90
       50
176
     1
 40
0.0
176
     1
 40
1.0
176
     1
 90
        0
176
     1
 62
    18
420
        0
176
     1
 90
       50
176
     1
 90
        3
176
     1
 62
     5
420
      255
176
     1
290
     0
176
     1
 90
       50
176
     1
 90
       50
176
     1
 90
       50
176
     1
290
     0
176
     1
 90
       50
176
     1
 62
   256
176
     0
 40
1.0
176
     0
 90
        2
176
     1
  1
strokes_ogs.tif
176
     1
290
     0
176
     1
 40
1.0
176
     1
 40
1.0
176
     1
  0
VISUALSTYLE
  5
3D
102
{ACAD_REACTORS
330
29
102
}
330
29
100
AcDbVisualStyle
  2
Shaded with edges
 70
    26
177
     3
291
     0
 70
    58
 90
        2
176
     1
 90
        2
176
     1
 90
        1
176
     1
 90
        2
176
     1
 40
0.6
176
     1
 40
30.0
176
     1
 62
     7
420
 16777215
176
     1
 90
        1
176
     1
 90
        2
176
     1
 62
     7
176
     1
 62
   257
176
     1
 90
        2
176
     1
 90
        1
176
     1
 40
1.0
176
     1
 90
        8
176
     1
 62
   257
176
     1
 40
1.0
176
     1
 90
        1
176
     1
 90
        6
176
     1
 90
        2
176
     1
 62
     7
176
     1
 90
        3
176
     1
 90
        0
176
     1
 90
        0
176
     1
290
     0
176
     1
 90
        5
176
     1
 40
0.0
176
     1
 90
        0
176
     1
290
     0
176
     1
290
     1
176
     1
290
     1
176
     1
290
     0
176
     1
290
     0
176
     1
290
     0
176
     1
290
     0
176
     1
290
     0
176
     1
290
     0
176
     1
 90
       50
176
     1
 40
0.0
176
     1
 40
1.0
176
     1
 90
        0
176
     1
 62
    18
420
        0
176
     1
 90
       50
176
     1
 90
        3
176
     1
 62
     5
420
      255
176
     1
290
     0
176
     1
 90
       50
176
     1
 90
       50
176
     1
 90
       50
176
     1
290
     0
176
     1
 90
       50
176
     1
 62
   256
176
     0
 40
1.0
176
     0
 90
        2
176
     1
  1
strokes_ogs.tif
176
     1
290
     0
176
     1
 40
1.0
176
     1
 40
1.0
176
     1
  0
VISUALSTYLE
  5
3A
102
{ACAD_REACTORS
330
29
102
}
330
29
100
AcDbVisualStyle
  2
Shades of Gray
 70
    23
177
     3
291
     0
 70
    58
 90
        2
176
     1
 90
        2
176
     1
 90
        3
176
     1
 90
        0
176
     1
 40
0.6
176
     1
 40
30.0
176
     1
 62
     7
420
 16777215
176
     1
 90
        2
176
     1
 90
        2
176
     1
 62
     7
176
     1
 62
     7
176
     1
 90
        1
176
     1
 90
        1
176
     1
 40
40.0
176
     1
 90
        8
176
     1
 62
     7
176
     1
 40
1.0
176
     1
 90
        1
176
     1
 90
        6
176
     1
 90
        2
176
     1
 62
     7
176
     1
 90
        3
176
     1
 90
        0
176
     1
 90
        0
176
     1
290
     0
176
     1
 90
        1
176
     1
 40
0.0
176
     1
 90
        0
176
     1
290
     0
176
     1
290
     1
176
     1
290
     1
176
     1
290
     0
176
     1
290
     0
176
     1
290
     0
176
     1
290
     0
176
     1
290
     0
176
     1
290
     0
176
     1
 90
       50
176
     1
 40
0.0
176
     1
 40
1.0
176
     1
 90
        0
176
     1
 62
    18
420
        0
176
     1
 90
       50
176
     1
 90
        3
176
     1
 62
     5
420
      255
176
     1
290
     0
176
     1
 90
       50
176
     1
 90
       50
176
     1
 90
       50
176
     1
290
     0
176
     1
 90
       50
176
     1
 62
   256
176
     0
 40
1.0
176
     0
 90
        2
176
     1
  1
strokes_ogs.tif
176
     1
290
     0
176
     1
 40
1.0
176
     1
 40
1.0
176
     1
  0
VISUALSTYLE
  5
3B
102
{ACAD_REACTORS
330
29
102
}
330
29
100
AcDbVisualStyle
  2
Sketchy
 70
    24
177
     3
291
     0
 70
    58
 90
        1
176
     1
 90
        2
176
     1
 90
        2
176
     1
 90
        0
176
     1
 40
0.6
176
     1
 40
30.0
176
     1
 62
     7
420
 16777215
176
     1
 90
        2
176
     1
 90
        2
176
     1
 62
     7
176
     1
 62
     7
176
     1
 90
        1
176
     1
 90
        1
176
     1
 40
40.0
176
     1
 90
       11
176
     1
 62
     7
176
     1
 40
1.0
176
     1
 90
        1
176
     1
 90
        6
176
     1
 90
        2
176
     1
 62
     7
176
     1
 90
        6
176
     1
 90
        0
176
     1
 90
        0
176
     1
290
     0
176
     1
 90
        1
176
     1
 40
0.0
176
     1
 90
        0
176
     1
290
     0
176
     1
290
     1
176
     1
290
     1
176
     1
290
     0
176
     1
290
     0
176
     1
290
     0
176
     1
290
     0
176
     1
290
     0
176
     1
290
     0
176
     1
 90
       50
176
     1
 40
0.0
176
     1
 40
1.0
176
     1
 90
        0
176
     1
 62
    18
420
        0
176
     1
 90
       50
176
     1
 90
        3
176
     1
 62
     5
420
      255
176
     1
290
     0
176
     1
 90
       50
176
     1
 90
       50
176
     1
 90
       50
176
     1
290
     0
176
     1
 90
       50
176
     1
 62
   256
176
     0
 40
1.0
176
     0
 90
        2
176
     1
  1
strokes_ogs.tif
176
     1
290
     0
176
     1
 40
1.0
176
     1
 40
1.0
176
     1
  0
VISUALSTYLE
  5
36
102
{ACAD_REACTORS
330
29
102
}
330
29
100
AcDbVisualStyle
  2
Thicken
 70
    13
177
     3
291
     1
 70
    58
 90
        2
176
     1
 90
        2
176
     1
 90
        0
176
     1
 90
        0
176
     1
 40
0.6
176
     1
 40
30.0
176
     1
 62
     7
420
 16777215
176
     1
 90
        1
176
     1
 90
        4
176
     1
 62
     7
176
     1
 62
   257
176
     1
 90
        1
176
     1
 90
        1
176
     1
 40
1.0
176
     1
 90
       12
176
     1
 62
     7
176
     1
 40
1.0
176
     1
 90
        1
176
     1
 90
        6
176
     1
 90
        2
176
     1
 62
     7
176
     1
 90
        5
176
     1
 90
        0
176
     1
 90
        0
176
     1
290
     0
176
     1
 90
        1
176
     1
 40
0.0
176
     1
 90
        0
176
     1
290
     0
176
     1
290
     1
176
     1
290
     1
176
     1
290
     0
176
     1
290
     0
176
     1
290
     0
176
     1
290
     0
176
     1
290
     0
176
     1
290
     0
176
     1
 90
       50
176
     1
 40
0.0
176
     1
 40
1.0
176
     1
 90
        0
176
     1
 62
    18
420
        0
176
     1
 90
       50
176
     1
 90
        3
176
     1
 62
     5
420
      255
176
     1
290
     0
176
     1
 90
       50
176
     1
 90
       50
176
     1
 90
       50
176
     1
290
     0
176
     1
 90
       50
176
     1
 62
   256
176
     0
 40
1.0
176
     0
 90
        2
176
     1
  1
strokes_ogs.tif
176
     1
290
     0
176
     1
 40
1.0
176
     1
 40
1.0
176
     1
  0
VISUALSTYLE
  5
30
102
{ACAD_REACTORS
330
29
102
}
330
29
100
AcDbVisualStyle
  2
Wireframe
 70
     5
177
     3
291
     0
 70
    58
 90
        0
176
     1
 90
        2
176
     1
 90
        0
176
     1
 90
        0
176
     1
 40
0.6
176
     1
 40
30.0
176
     1
 62
     7
420
 16777215
176
     1
 90
        1
176
     1
 90
        4
176
     1
 62
     7
176
     1
 62
   257
176
     1
 90
        1
176
     1
 90
        1
176
     1
 40
1.0
176
     1
 90
        0
176
     1
 62
   257
176
     1
 40
1.0
176
     1
 90
        1
176
     1
 90
        6
176
     1
 90
        2
176
     1
 62
     7
176
     1
 90
        3
176
     1
 90
        0
176
     1
 90
        0
176
     1
290
     0
176
     1
 90
        1
176
     1
 40
0.0
176
     1
 90
        0
176
     1
290
     0
176
     1
290
     1
176
     1
290
     1
176
     1
290
     0
176
     1
290
     0
176
     1
290
     0
176
     1
290
     0
176
     1
290
     0
176
     1
290
     0
176
     1
 90
       50
176
     1
 40
0.0
176
     1
 40
1.0
176
     1
 90
        0
176
     1
 62
    18
420
        0
176
     1
 90
       50
176
     1
 90
        3
176
     1
 62
     5
420
      255
176
     1
290
     0
176
     1
 90
       50
176
     1
 90
       50
176
     1
 90
       50
176
     1
290
     0
176
     1
 90
       50
176
     1
 62
   256
176
     0
 40
1.0
176
     0
 90
        2
176
     1
  1
strokes_ogs.tif
176
     1
290
     0
176
     1
 40
1.0
176
     1
 40
1.0
176
     1
  0
VISUALSTYLE
  5
3C
102
{ACAD_REACTORS
330
29
102
}
330
29
100
AcDbVisualStyle
  2
X-Ray
 70
    25
177
     3
291
     0
 70
    58
 90
        2
176
     1
 90
        2
176
     1
 90
        1
176
     1
 90
        1
176
     1
 40
0.5
176
     1
 40
30.0
176
     1
 62
     7
420
 16777215
176
     1
 90
        1
176
     1
 90
        0
176
     1
 62
     7
176
     1
 62
   257
176
     1
 90
        1
176
     1
 90
        1
176
     1
 40
1.0
176
     1
 90
        8
176
     1
 62
     7
176
     1
 40
1.0
176
     1
 90
        1
176
     1
 90
        6
176
     1
 90
        2
176
     1
 62
     7
176
     1
 90
        3
176
     1
 90
        0
176
     1
 90
        0
176
     1
290
     0
176
     1
 90
       13
176
     1
 40
0.0
176
     1
 90
        0
176
     1
290
     0
176
     1
290
     1
176
     1
290
     1
176
     1
290
     0
176
     1
290
     0
176
     1
290
     0
176
     1
290
     0
176
     1
290
     0
176
     1
290
     0
176
     1
 90
       50
176
     1
 40
0.0
176
     1
 40
1.0
176
     1
 90
        0
176
     1
 62
    18
420
        0
176
     1
 90
       50
176
     1
 90
        3
176
     1
 62
     5
420
      255
176
     1
290
     0
176
     1
 90
       50
176
     1
 90
       50
176
     1
 90
       50
176
     1
290
     0
176
     1
 90
       50
176
     1
 62
   256
176
     0
 40
1.0
176
     0
 90
        2
176
     1
  1
strokes_ogs.tif
176
     1
290
     0
176
     1
 40
1.0
176
     1
 40
1.0
176
     1
  0
DICTIONARYVAR
  5
AC
102
{ACAD_REACTORS
330
A7
102
}
330
A7
100
DictionaryVariables
280
     0
  1
1:1
  0
DICTIONARYVAR
  5
A9
102
{ACAD_REACTORS
330
A7
102
}
330
A7
100
DictionaryVariables
280
     0
  1
STANDARD
  0
DICTIONARYVAR
  5
A8
102
{ACAD_REACTORS
330
A7
102
}
330
A7
100
DictionaryVariables
280
     0
  1
STANDARD
  0
DICTIONARYVAR
  5
AA
102
{ACAD_REACTORS
330
A7
102
}
330
A7
100
DictionaryVariables
280
     0
  1
Imperial24
  0
DICTIONARYVAR
  5
AB
102
{ACAD_REACTORS
330
A7
102
}
330
A7
100
DictionaryVariables
280
     0
  1
Imperial24
  0
DICTIONARY
  5
1A
330
19
100
AcDbDictionary
280
     1
281
     1
  3
BUMPTILE
360
1C
  3
DIFFUSETILE
360
1B
  3
OPACITYTILE
360
1F
  3
REFLECTIONTILE
360
1E
  3
REFRACTIONTILE
360
20
  3
SPECULARTILE
360
1D
  0
DICTIONARY
  5
12
330
11
100
AcDbDictionary
280
     1
281
     1
  3
BUMPTILE
360
14
  3
DIFFUSETILE
360
13
  3
OPACITYTILE
360
17
  3
REFLECTIONTILE
360
16
  3
REFRACTIONTILE
360
18
  3
SPECULARTILE
360
15
  0
DICTIONARY
  5
22
330
21
100
AcDbDictionary
280
     1
281
     1
  3
BUMPTILE
360
24
  3
DIFFUSETILE
360
23
  3
OPACITYTILE
360
27
  3
REFLECTIONTILE
360
26
  3
REFRACTIONTILE
360
28
  3
SPECULARTILE
360
25
  0
DICTIONARY
  5
AD
330
65
100
AcDbDictionary
280
     1
281
     1
  3
ACAD_ROUNDTRIP_2008_TABLESTYLE_CELLSTYLEMAP
360
AE
  0
XRECORD
  5
1C
102
{ACAD_REACTORS
330
1A
102
}
330
1A
100
AcDbXrecord
280
     1
270
     1
271
     1
  0
XRECORD
  5
1B
102
{ACAD_REACTORS
330
1A
102
}
330
1A
100
AcDbXrecord
280
     1
270
     1
271
     1
  0
XRECORD
  5
1F
102
{ACAD_REACTORS
330
1A
102
}
330
1A
100
AcDbXrecord
280
     1
270
     1
271
     1
  0
XRECORD
  5
1E
102
{ACAD_REACTORS
330
1A
102
}
330
1A
100
AcDbXrecord
280
     1
270
     1
271
     1
  0
XRECORD
  5
20
102
{ACAD_REACTORS
330
1A
102
}
330
1A
100
AcDbXrecord
280
     1
270
     1
271
     1
  0
XRECORD
  5
1D
102
{ACAD_REACTORS
330
1A
102
}
330
1A
100
AcDbXrecord
280
     1
270
     1
271
     1
  0
XRECORD
  5
14
102
{ACAD_REACTORS
330
12
102
}
330
12
100
AcDbXrecord
280
     1
270
     1
271
     1
  0
XRECORD
  5
13
102
{ACAD_REACTORS
330
12
102
}
330
12
100
AcDbXrecord
280
     1
270
     1
271
     1
  0
XRECORD
  5
17
102
{ACAD_REACTORS
330
12
102
}
330
12
100
AcDbXrecord
280
     1
270
     1
271
     1
  0
XRECORD
  5
16
102
{ACAD_REACTORS
330
12
102
}
330
12
100
AcDbXrecord
280
     1
270
     1
271
     1
  0
XRECORD
  5
18
102
{ACAD_REACTORS
330
12
102
}
330
12
100
AcDbXrecord
280
     1
270
     1
271
     1
  0
XRECORD
  5
15
102
{ACAD_REACTORS
330
12
102
}
330
12
100
AcDbXrecord
280
     1
270
     1
271
     1
  0
XRECORD
  5
24
102
{ACAD_REACTORS
330
22
102
}
330
22
100
AcDbXrecord
280
     1
270
     1
271
     1
  0
XRECORD
  5
23
102
{ACAD_REACTORS
330
22
102
}
330
22
100
AcDbXrecord
280
     1
270
     1
271
     1
  0
XRECORD
  5
27
102
{ACAD_REACTORS
330
22
102
}
330
22
100
AcDbXrecord
280
     1
270
     1
271
     1
  0
XRECORD
  5
26
102
{ACAD_REACTORS
330
22
102
}
330
22
100
AcDbXrecord
280
     1
270
     1
271
     1
  0
XRECORD
  5
28
102
{ACAD_REACTORS
330
22
102
}
330
22
100
AcDbXrecord
280
     1
270
     1
271
     1
  0
XRECORD
  5
25
102
{ACAD_REACTORS
330
22
102
}
330
22
100
AcDbXrecord
280
     1
270
     1
271
     1
  0
CELLSTYLEMAP
  5
AE
102
{ACAD_REACTORS
330
AD
102
}
330
AD
100
AcDbCellStyleMap
 90
        3
300
CELLSTYLE
  1
TABLEFORMAT_BEGIN
 90
        5
170
     1
 91
        0
 92
    32768
 62
   257
 93
        1
300
CONTENTFORMAT
  1
CONTENTFORMAT_BEGIN
 90
        0
 91
        0
 92
      512
 93
        0
300

 40
0.0
140
1.0
 94
        5
 62
     0
340
55
144
0.25
309
CONTENTFORMAT_END
171
     0
 94
        0
309
TABLEFORMAT_END
  1
CELLSTYLE_BEGIN
 90
        1
 91
        1
300
_TITLE
309
CELLSTYLE_END
300
CELLSTYLE
  1
TABLEFORMAT_BEGIN
 90
        5
170
     1
 91
        0
 92
        0
 62
   257
 93
        1
300
CONTENTFORMAT
  1
CONTENTFORMAT_BEGIN
 90
        0
 91
        0
 92
      512
 93
        0
300

 40
0.0
140
1.0
 94
        5
 62
     0
340
55
144
0.18
309
CONTENTFORMAT_END
171
     0
 94
        0
309
TABLEFORMAT_END
  1
CELLSTYLE_BEGIN
 90
        2
 91
        1
300
_HEADER
309
CELLSTYLE_END
300
CELLSTYLE
  1
TABLEFORMAT_BEGIN
 90
        5
170
     1
 91
        0
 92
        0
 62
   257
 93
        1
300
CONTENTFORMAT
  1
CONTENTFORMAT_BEGIN
 90
        0
 91
        0
 92
      512
 93
        0
300

 40
0.0
140
1.0
 94
        2
 62
     0
340
55
144
0.18
309
CONTENTFORMAT_END
171
     0
 94
        0
309
TABLEFORMAT_END
  1
CELLSTYLE_BEGIN
 90
        3
 91
        2
300
_DATA
309
CELLSTYLE_END
  0
ENDSEC
  0
EOF
